<?xml version="1.0" encoding="UTF-8"?>
<svg id="Calque_1" data-name="Calque 1" xmlns="http://www.w3.org/2000/svg" viewBox="0 0 1200 589">
  <defs>
    <style>
      .cls-1, .cls-2, .cls-3, .cls-4, .cls-5, .cls-6, .cls-7, .cls-8, .cls-9, .cls-10, .cls-11 {
        stroke-width: 0px;
      }

      .cls-2 {
        fill: #fad812;
      }

      .cls-3 {
        fill: #8b3589;
      }

      .cls-4 {
        fill: #494493;
      }

      .cls-5 {
        fill: #1a92b2;
      }

      .cls-6 {
        fill: #19a8e1;
      }

      .cls-7 {
        fill: #a5c618;
      }

      .cls-8 {
        fill: #fdfdfd;
      }

      .cls-9 {
        fill: #e53c4c;
      }

      .cls-10 {
        fill: #fefefe;
      }

      .cls-11 {
        fill: #ed8408;
      }
    </style>
  </defs>
  <path class="cls-8" d="m600,588.91c-198.47,0-396.94-.01-595.41.09-3.75,0-4.6-.84-4.59-4.59C.11,391.14.11,197.86,0,4.59,0,.84.84,0,4.59,0c396.94.1,793.88.1,1190.81,0,3.75,0,4.6.84,4.59,4.59-.11,193.27-.11,386.54,0,579.82,0,3.75-.84,4.59-4.59,4.59-198.47-.11-396.94-.09-595.41-.09Z"/>
  <path class="cls-1" d="m100.58,480.42c-9.74,17.54-19.47,35.08-29.22,52.61-5.38,9.67-15.15,13.06-23.85,8.3-8.75-4.79-11.44-14.91-6.1-24.54,14.63-26.39,29.43-52.68,44.16-79.02.97-1.73,1.87-3.5,2.8-5.25,1.28-5.8,4.93-10.41,7.76-15.43,5.12-9.08,10.35-18.09,15.61-27.09,1.07-1.83,1.91-3.91,4.07-4.84,24.25-41.07,48.79-81.97,74.67-122.05,11.09-17.17,22.39-34.19,33.59-51.28.34-1.28.7-2.54,1.46-3.67,6.53-9.63,13.19-19.15,20.05-28.55.7-.96,1.6-1.67,2.62-2.26,11.21-14.66,22.2-29.5,33.69-43.94,20.33-25.56,41.64-50.27,67.12-70.97,12.83-10.42,26.44-19.59,42.81-23.73,22.19-5.62,41.8,2.5,53.16,22.27,8.39,14.59,11.5,30.74,13,47.21,3.46,37.84.05,75.43-4.57,112.96-2.6,21.14-6.04,42.14-9.39,63.17-1.29,8.06-4.67,14.31-12.95,16.54-11.68,3.14-22.57-5.98-21.11-18.11,1.69-14.02,4.35-27.92,6.4-41.91,4.6-31.45,8.42-62.97,8.87-94.82.27-19.16.07-38.26-5.21-56.88-5.47-19.27-13.38-22.58-31-12.91-16.68,9.16-30.32,22.15-43.4,35.69-19.57,20.25-37.24,42.12-54.1,64.66-1.45,5.64-5.85,9.42-9,13.96-4.88,7.04-10,13.92-14.91,20.95-40.6,57.57-77.37,117.57-113.36,178.07-9.61,16.15-19.05,32.41-28.29,48.78-7.5,12.38-14.4,25.1-21.56,37.67-.98,1.72-1.69,3.67-3.83,4.38Z"/>
  <path class="cls-5" d="m266.85,210.95c7.58-11.91,16.25-23.04,24.67-34.35,13.97.06,27.95.24,41.92.13,11.66-.09,23.33-.39,34.78,2.27,24.96,5.8,35.36,23.74,28.1,48.42-4.12,14.01-11.64,26.45-18.31,39.27-24.3,46.78-47.79,93.99-73.25,140.17-16.72,30.33-33.95,60.38-55.93,87.34-13.55,16.62-28.44,31.88-48.25,41.12-18.46,8.61-37.47,12.08-56.79,2.87-14.76-7.05-24.27-19.48-31.74-33.52-4.19-7.88-7.68-16.14-11.49-24.23,8.02-14.07,16.04-28.14,24.06-42.21,2.15.87,1.84,3,2.25,4.66,2.92,11.82,6.55,23.4,11.2,34.67,2.95,7.14,6.9,13.64,11.29,19.95,6.54,9.4,15.46,12.02,26.24,9.41,11.89-2.88,21.4-9.88,30.08-18.03,17.17-16.1,30.12-35.53,42.49-55.3,18.56-29.66,34.85-60.6,51-91.62,19.6-37.66,39.02-75.41,58.49-113.13,1.61-3.11,2.97-6.32,4.09-9.65,1.14-3.4.38-5.39-3.42-6.07-2.97-.53-5.93-.78-8.94-.78-25.15.01-50.3.03-75.45-.03-2.41,0-5.05.7-7.11-1.35Z"/>
  <path class="cls-1" d="m531.19,297.16c3.05-17.84,5.58-35.28,9.14-52.5,2.55-12.34-5.19-22.66-21.51-18.1-8.45,2.36-13.41,8.65-15.06,17.05-3.16,16.15-6.02,32.36-8.65,48.6-.63,3.91-1.88,5.22-5.91,5.05-8.13-.35-16.29-.1-25-.1,2.08-12.08,4.06-23.77,6.1-35.46,3.23-18.5,6.63-36.98,9.67-55.52.69-4.21,2.18-5.7,6.57-5.44,7.14.43,14.32.2,21.48.07,2.5-.04,3.21.57,2.51,3.12-.89,3.26-1.34,6.64-2.24,11.33,9.51-9.89,19.76-15.75,32.95-15.49,13.44.27,23.48,5.28,28.78,18.92,4.59-5.3,9.23-9.85,14.96-13.18,10.52-6.1,21.71-7.25,33.26-4.32,11.48,2.91,18.72,12.47,19.77,24.75.82,9.6-1.23,18.86-2.92,28.19-2.41,13.25-4.78,26.51-6.92,39.8-.41,2.56-1.25,3.29-3.71,3.26-7.83-.12-15.66-.19-23.49.03-3.1.09-3.12-1.14-2.68-3.54,2.79-15.21,5.47-30.43,8.19-45.65.06-.33.16-.65.22-.97,2-10.89-.22-17.14-7.16-20.17-8.33-3.63-19.33-.36-24.92,7.31-4.84,6.65-5.1,14.64-6.58,22.24-2.4,12.4-4.48,24.86-6.75,37.28-.26,1.44.23,3.48-2.46,3.46-9.13-.08-18.27-.03-27.66-.03Z"/>
  <path class="cls-1" d="m678.42,282.91c-.76,3.87-1.67,7.73-2.21,11.63-.3,2.16-1.24,2.68-3.24,2.66-7.99-.08-15.98-.11-23.97.01-2.38.04-3.18-.39-2.7-3.04,7.29-40.54,14.5-81.1,21.62-121.67.43-2.48,1.21-3.39,3.75-3.34,7.49.14,14.99.22,22.47-.03,3.45-.12,4.24.86,3.61,4.2-2.65,14.03-5.09,28.1-7.65,42.37,2.03-.65,2.71-2.41,3.82-3.66,13.8-15.65,40.76-16.9,54.47-2.41,6.01,6.35,8.51,14.18,8.88,22.71.93,21.31-4.94,40.19-21.15,54.76-10.59,9.53-23.39,13.04-37.5,10.78-9.12-1.46-15.71-6.61-20.2-14.96Z"/>
  <path class="cls-1" d="m977.67,298.5c-3.97-.12-9.09-.48-14.08-1.94-18.45-5.42-28.81-19.42-28.42-39.53.89-45.05,40.98-64,73.85-55.58,18.73,4.8,29.11,20.22,28.41,40.49-1.15,32.92-25.62,56.55-59.76,56.56Z"/>
  <path class="cls-1" d="m1086.31,217c7.42-9.01,15.61-14.61,25.99-16.5,5.61-1.02,11.31-1.19,16.87.02,13.2,2.88,20.51,11.94,21.59,26.31.78,10.45-2.18,20.45-3.86,30.59-1.98,11.97-4.27,23.88-6.28,35.85-.49,2.9-1.48,4.13-4.72,4-7.15-.3-14.33-.36-21.48.01-3.98.21-4.13-1.26-3.55-4.46,2.83-15.7,5.47-31.43,8.2-47.15,1.74-10.03-.15-16.15-6.06-19.42-6.89-3.81-17.25-2.12-23.68,3.72-5.09,4.63-7.16,10.68-8.3,17.17-2.74,15.55-5.54,31.1-8.04,46.69-.47,2.94-1.67,3.43-4.21,3.38-7.33-.12-14.66-.25-21.98.05-3.59.14-4.5-.73-3.84-4.33,3.86-21.26,7.52-42.55,11.28-63.83,1.47-8.34,3.16-16.65,4.44-25.03.39-2.54,1.22-3.3,3.73-3.26,7.83.14,15.66.18,23.48-.02,2.88-.07,3.38.94,2.85,3.44-.82,3.81-1.47,7.65-2.43,12.76Z"/>
  <path class="cls-5" d="m598.41,341.19c7.66-9.71,17.05-14.64,29.13-14.65,19.54-.02,33.17,12.33,34.39,31.97,1.17,18.95.24,37.94.51,56.92.04,2.64-.97,3.45-3.52,3.41-6.99-.12-13.99-.2-20.98.03-3.22.1-3.87-1.15-3.85-4.06.12-15.65.17-31.3.02-46.95-.11-11.88-7.23-18.48-18.98-18.03-8.52.33-14.74,5.99-16.15,14.85-1.18,7.44-.44,14.95-.54,22.43-.12,9.32-.1,18.65.02,27.97.04,2.76-.78,3.84-3.68,3.77-7.16-.17-14.32-.12-21.48-.02-2.38.04-3.18-.82-3.17-3.18.06-28.3.06-56.6,0-84.91,0-2.39.87-3.23,3.21-3.2,7.33.09,14.65.09,21.98,0,2.44-.03,3.19,1.03,3.12,3.3-.1,3.45-.03,6.9-.03,10.35Z"/>
  <path class="cls-5" d="m519.86,403.18c-10.11,15.1-23.57,18.45-38.87,15.28-14.28-2.96-23.81-15.18-24.61-32.5-.85-18.44-.25-36.95-.39-55.44-.02-2.59,1.17-2.99,3.33-2.97,6.99.08,14,.2,20.98-.05,3.3-.11,3.79,1.24,3.77,4.09-.11,15.32-.14,30.64-.02,45.96.1,12.38,7.32,19.12,19.55,18.57,9.73-.44,16.15-8.06,16.24-19.67.12-14.65.16-29.31-.06-43.96-.06-3.9.98-5.21,4.97-5,6.48.33,12.99.18,19.48.05,2.6-.05,3.86.43,3.85,3.49-.11,28.14-.09,56.28-.02,84.42,0,2.61-.78,3.47-3.41,3.41-7.16-.15-14.32-.16-21.48,0-2.72.06-3.45-1.03-3.34-3.52.15-3.48.04-6.96.04-12.15Z"/>
  <path class="cls-5" d="m768.68,385.98c-2.41,16.05-15.1,29.18-32.23,32.48-19.07,3.67-36.16.14-48.75-16.19-13.61-17.67-13.26-56.92,13.88-70.73,21.22-10.8,49.54-4.95,61.5,13.11,5.94,8.98,7.76,18.9,7.12,29.51-.2,3.36-1.54,4.06-4.61,4.03-17.99-.12-35.99.1-53.98-.17-4.57-.07-5.38,1.45-4.53,5.46,1.5,7.14,6.36,12.29,13.06,13.42,8.02,1.35,14.34-1.55,18.11-8.34.7-1.26.95-2.66,3.03-2.63,9.12.12,18.23.05,27.41.05Z"/>
  <path class="cls-5" d="m407.48,378.13c-9.16,0-18.33.16-27.48-.08-3.63-.1-4.18,1.13-3.52,4.35,1.69,8.3,6.02,13.21,13.14,14.45,8.21,1.42,14.16-1.27,18.31-8.69,1.01-1.81,2.09-2.22,3.91-2.21,7.66.06,15.33.21,22.98-.05,4.43-.15,3.51,2.19,2.7,4.65-4.43,13.46-13.57,22.33-26.92,26.65-22.41,7.26-52.1.03-59.73-28.6-4.97-18.62-3.15-36.48,11.63-50.84,12.66-12.31,36.21-15.24,53.86-7.05,15.53,7.21,24.47,23.1,23.72,41.64-.17,4.32-1.36,6.12-6.12,5.89-8.81-.43-17.65-.12-26.48-.12Z"/>
  <path class="cls-5" d="m1026.57,378.13c-9.33,0-18.66.13-27.98-.07-3.35-.07-3.93,1.09-3.39,4.09,1.46,8.13,5.89,13.44,12.96,14.65,7.39,1.27,15.39-.76,18.69-8.84.87-2.13,2.34-1.99,4.01-1.99,7.49,0,15,.18,22.48-.07,3.81-.13,4.1,1.16,3.06,4.34-5.21,15.95-16.49,25.29-32.48,28.4-16.27,3.17-31.56.51-43.88-11.8-13.28-13.26-16.72-38.78-7.83-56.91,8.19-16.72,26.61-25.93,46.79-23.39,25.59,3.22,40.59,20.44,39.82,45.52-.13,4.33-1.22,6.47-6.27,6.19-8.63-.48-17.31-.13-25.97-.13Z"/>
  <path class="cls-5" d="m1085.85,387.97c1.83,0,3.68.17,5.49-.03,4.58-.52,7.67.15,9.74,5.41,2.44,6.2,14.05,8.78,19.81,5.41,2.54-1.48,3.79-3.88,3.7-6.66-.1-3.01-1.67-5.34-4.61-6.56-5.09-2.12-10.45-3.28-15.78-4.59-5-1.24-10.06-2.36-14.89-4.11-21.85-7.92-19.12-32.29-8.57-41.87,19.3-17.54,57.4-8.7,66.56,15.6q2.79,7.42-5.2,7.42c-3.17,0-6.34-.15-9.5.03-5.35.32-9.88.52-12.58-6.07-2.09-5.07-9.87-7.01-15.36-5.6-3.34.86-5.69,2.74-6.13,6.37-.45,3.72,1.53,5.94,4.7,7.37,6.58,2.97,13.75,3.87,20.61,5.87,5.43,1.58,10.95,2.91,15.75,6.08,14.68,9.69,14.93,30.94.45,40.96-8.8,6.09-18.84,7.25-29.13,6.67-7.33-.41-14.49-1.83-21.11-5.38-9.42-5.07-14.9-12.93-17.4-23.19-.61-2.5-.13-3.27,2.44-3.17,3.66.15,7.33.04,11,.04Z"/>
  <path class="cls-5" d="m876.32,387.97c8.28,0,16.26.05,24.24-.04,2.03-.02,2.74.79,3.44,2.66,2.81,7.53,12.25,11.62,19.72,8.8,3.12-1.18,4.93-3.41,5.15-6.7.22-3.36-1.48-5.72-4.49-7.09-5.03-2.28-10.41-3.37-15.75-4.61-5.66-1.32-11.33-2.6-16.72-4.87-19.34-8.14-17.52-31.21-6.97-41.03,19.97-18.59,59.53-8.38,67.4,17.6.47,1.57.75,3.2,1.23,5.27-8.36,0-16.32-.09-24.28.05-2.52.04-2.36-1.91-3-3.24-3.06-6.34-9.56-9.85-16.39-8.62-3.48.63-6.34,2.16-6.97,6.1-.66,4.16,1.47,6.56,5.09,8.07,6.64,2.77,13.78,3.74,20.62,5.74,7.01,2.05,14.07,3.92,19.49,9.42,9.62,9.74,9.08,26.75-1.38,35.63-9.12,7.75-20.11,9.1-31.45,8.55-7.68-.37-15.17-1.9-21.99-5.81-9.92-5.69-15.31-14.31-16.98-25.89Z"/>
  <path class="cls-5" d="m797.09,387.97c2.17,0,4.33.06,6.5-.02,4-.15,7.13-.39,8.86,5.05,2.01,6.28,13.66,9.15,19.63,5.94,2.74-1.48,4.07-3.81,4.02-6.94-.05-3.26-1.92-5.26-4.66-6.49-4.89-2.18-10.11-3.28-15.3-4.46-5.68-1.29-11.34-2.61-16.76-4.81-20.12-8.15-17.42-32.92-6.15-42.07,17.61-14.29,51.07-9.06,62.77,10.23.09.14.19.28.27.42,2.19,3.94,5.28,8.59,3.78,12.4-.9,2.29-7,.52-10.76.73-2.16.12-4.34-.12-6.49.05-4.82.39-8.48.14-10.84-5.62-2.34-5.73-11.21-7.84-17.06-5.61-2.97,1.13-4.58,3.25-4.86,6.34-.27,3,1.21,5.13,3.78,6.48,4.32,2.26,9.05,3.26,13.74,4.39,6.8,1.63,13.64,3.14,20.04,6.03,19.16,8.66,17.36,31.49,6.95,40.8-16,14.31-51.53,11.1-64.37-6.03-3.04-4.06-4.9-8.66-6.11-13.56-.54-2.19-.19-3.44,2.54-3.3,3.49.19,7,.05,10.49.04Z"/>
  <path class="cls-1" d="m867.97,177.04c-1.29,7.25-2.39,13.97-3.72,20.65-.47,2.37-.1,3.33,2.54,3.22,4.33-.17,8.66,0,12.99-.07,2.1-.03,3.38-.03,2.71,2.94-1.43,6.32-2.46,12.74-3.37,19.15-.34,2.39-1.27,3.02-3.5,2.95-4.49-.13-9,0-13.49-.06-1.87-.03-2.96.27-3.33,2.55-1.86,11.32-4.11,22.57-5.88,33.9-1.04,6.66.87,8.87,7.53,9.44,3.28.28,6.6.05,10.17.05-1.34,7.91-2.57,15.26-3.84,22.61-.26,1.5-.59,2.89-2.72,2.81-6.82-.24-13.7.6-20.46-.55-15.81-2.7-23.11-12.36-21.22-28.81,1.21-10.56,3.37-21.01,5.1-31.51.05-.33.14-.65.2-.98,1.69-9.18,1.69-9.33-7.51-9.41-3.09-.03-3.63-1.07-3.1-3.76,1.13-5.71,2.25-11.43,3.08-17.19.46-3.2,1.67-4.32,5.07-4.22,8.47.24,8.45.03,9.93-8.13.92-5.07.32-11.91,3.37-14.69,3.34-3.04,10.15-.74,15.44-.88,4.48-.12,8.97-.02,14-.02Z"/>
  <path class="cls-4" d="m506.1,501.09c-13.31,0-26.63-.21-39.94.12-4.53.11-4.71-1.56-3.88-5.08,1.69-7.11,3.18-14.26,4.68-21.41,2.71-12.97,10.49-20.15,23.68-21.82,7.8-.99,15.62-.42,23.43-.48,14.14-.1,28.29.09,42.44-.11,3.62-.05,4.14,1.14,3.44,4.31-3.04,13.62-6.05,27.24-8.76,40.93-.61,3.09-1.94,3.61-4.65,3.59-13.48-.1-26.96-.05-40.44-.05Z"/>
  <path class="cls-11" d="m968.4,501.09c-13.49,0-26.98-.07-40.47.05-3.16.03-4.48-.38-3.52-4.11,1.93-7.56,3.29-15.27,4.96-22.9,2.71-12.41,10.46-19.42,23.17-21.2,5.31-.74,10.63-.53,15.96-.54,16.49-.02,32.98.16,49.46-.12,4.6-.08,5.04,1.17,4.08,5.29-3.01,12.95-5.7,25.97-8.25,39.02-.71,3.64-2.27,4.67-5.91,4.6-13.15-.23-26.31-.09-39.47-.09Z"/>
  <path class="cls-7" d="m736.98,501.09c-13.33,0-26.66-.11-39.99.07-3.72.05-4.56-.96-3.66-4.56,1.8-7.26,3.2-14.62,4.74-21.94,2.68-12.78,10.32-19.88,23.31-21.72,4.64-.66,9.3-.58,13.96-.58,17.33,0,34.66.08,51.99-.06,3.56-.03,4.59.71,3.72,4.48-3.11,13.44-6.02,26.94-8.67,40.48-.63,3.24-1.94,3.92-4.92,3.89-13.5-.13-26.99-.06-40.49-.06Z"/>
  <path class="cls-2" d="m852.72,501.08c-13.5,0-26.99-.09-40.49.07-3.39.04-4.21-.74-3.38-4.18,2.07-8.56,3.58-17.25,5.59-25.83,2.27-9.71,11.16-16.66,22.64-18.24,6.81-.94,13.64-.5,20.46-.53,14.83-.08,29.66.09,44.49-.1,4.13-.05,5.55.62,4.43,5.26-3.09,12.76-5.89,25.61-8.21,38.53-.79,4.4-2.58,5.18-6.54,5.11-12.99-.23-25.99-.09-38.99-.09Z"/>
  <path class="cls-9" d="m1090.02,501.09c-13.48,0-26.96-.12-40.43.08-3.67.05-4.12-1.23-3.39-4.35,1.7-7.27,3.23-14.59,4.75-21.9,2.73-13.19,10.51-20.31,24.03-22.06,5.31-.69,10.63-.45,15.94-.47,16.47-.04,32.94.08,49.42-.08,3.65-.03,4.48.82,3.63,4.51-3.1,13.42-5.99,26.9-8.65,40.42-.62,3.16-1.83,3.96-4.87,3.93-13.48-.15-26.95-.07-40.43-.07Z"/>
  <path class="cls-3" d="m388.35,501.09c-13.47,0-26.95-.09-40.42.06-3.37.04-4.3-.71-3.43-4.2,1.83-7.41,3.21-14.92,4.78-22.4,2.72-12.92,11.04-20.81,24.35-21.57,12.6-.72,25.27-.37,37.9-.44,9.15-.05,18.3.06,27.45-.05,2.87-.04,4.15.24,3.34,3.8-3.11,13.59-5.95,27.24-8.69,40.92-.6,3.01-1.76,3.99-4.86,3.95-13.47-.17-26.95-.07-40.42-.07Z"/>
  <path class="cls-6" d="m621.46,501.09c-13.33,0-26.65-.08-39.98.06-3.28.04-4.75-.18-3.73-4.22,2.16-8.54,3.58-17.25,5.53-25.85,2.23-9.83,11.81-17.61,23.71-18.1,15.3-.63,30.64-.34,45.96-.42,6.5-.03,13,.08,19.49-.04,2.81-.05,3.85.54,3.15,3.69-3.05,13.63-5.9,27.3-8.72,40.97-.59,2.86-1.74,4.04-4.93,4-13.49-.2-26.99-.09-40.48-.09Z"/>
  <path class="cls-5" d="m115.81,385.17c-9.15,15.79-18.3,31.58-27.45,47.36-8.24-42.92-11.94-86.28-12.64-129.94-.16-10.1,6.53-17.64,16.06-18.01,10.02-.39,17.23,5.91,17.66,16.17.89,21.27,1.39,42.56,3.67,63.75.74,6.9.74,13.92,2.7,20.67Z"/>
  <path class="cls-1" d="m778.5,297.16c-1.83,0-3.66,0-5.5,0-9.45,0-9.61-.03-7.97-9.46,4.81-27.67,9.83-55.31,14.54-82.99.55-3.24,1.7-4,4.72-3.91,7.32.2,14.66.2,21.98,0,3.02-.08,4.08.46,3.48,3.8-5.37,29.6-10.62,59.21-15.81,88.84-.49,2.78-1.42,4.04-4.46,3.79-3.64-.29-7.32-.07-10.99-.07Z"/>
  <path class="cls-1" d="m915.37,200.86c3.66,0,7.35.26,10.98-.07,3.7-.34,4.02,1.2,3.46,4.26-4.16,22.88-8.21,45.78-12.3,68.68-1.2,6.71-2.54,13.39-3.51,20.14-.36,2.51-1.19,3.39-3.73,3.35-7.82-.13-15.65-.21-23.47.03-3.21.1-3.11-1.35-2.71-3.61,5.3-29.94,10.6-59.87,15.79-89.83.4-2.32,1.25-3.06,3.51-2.98,3.99.14,7.99.04,11.98.04Z"/>
  <path class="cls-5" d="m248.2,177.37c-8.04,11.49-16.09,22.98-24.13,34.47-10.46.01-20.91.01-31.37.05-4.83.01-9.65.17-14.47.12-10.01-.1-17.22-7.13-17.31-16.78-.09-9.87,7.15-17.07,17.44-17.18,17.63-.19,35.27-.28,52.9-.44,5.65-.05,11.29-.16,16.94-.24Z"/>
  <path class="cls-1" d="m917.59,189.22c-6.24,0-11.86-1.71-14.23-7.94-2.37-6.22-.85-12.19,3.95-16.94,6.39-6.32,14.16-7.81,22.52-5.13,7.98,2.55,10.87,11.75,6.4,19.83-4.01,7.25-10.57,10.18-18.64,10.18Z"/>
  <path class="cls-1" d="m797.26,189.2c-6.03-.02-11.45-1.67-13.98-7.59-2.66-6.25-.92-12.09,3.57-17.01,5.46-5.98,15.43-8.26,22.97-5.43,6.57,2.46,9.65,9.05,7.64,16.31-2.36,8.52-10.14,13.79-20.2,13.72Z"/>
  <path class="cls-10" d="m266.85,210.95c22.79-.11,45.59-.24,68.38-.31,8.15-.03,16.28-.09,24.38,1.24,4.52.74,5.23,2.57,3.81,6.7-4.09,11.87-10.55,22.56-16.3,33.6-27.37,52.63-53.54,105.9-83.02,157.41-13.97,24.42-28.66,48.38-47.27,69.66-8.81,10.07-18.51,19.14-30.62,25.24-.74.37-1.47.79-2.24,1.09-19.57,7.57-28.26,4.36-38.36-11.18-11.14-17.13-16.67-36.45-20.99-56.18,35.48-62.05,72.24-123.31,111.68-182.95,9.9-14.96,19.64-30.04,30.54-44.32Z"/>
  <path class="cls-10" d="m683.82,253.81c.13-15.98,11.11-27.98,25.59-27.95,9.84.02,15.68,4.71,17,14.45,1.53,11.28-4.01,27.13-18.97,31.22-13.69,3.75-23.73-3.73-23.62-17.72Z"/>
  <path class="cls-10" d="m965.85,254.11c.84-9.77,3.44-19.75,13.61-25.67,6.55-3.82,13.49-4.8,20.23-.41,6.57,4.28,7.47,10.9,6.73,18.02-.87,8.35-3.53,15.85-10.3,21.34-3.14,2.55-6.66,4.23-10.72,4.83-11.85,1.73-19.77-5.15-19.55-18.1Z"/>
  <path class="cls-10" d="m724.11,366.13c-4.82,0-9.65-.07-14.47.03-2.2.05-2.87-.71-2.64-2.92.86-8.24,8.23-14.49,17.48-14.67,9.35-.18,15.99,5.2,17.33,13.83.43,2.76-.16,3.93-3.23,3.79-4.81-.22-9.65-.06-14.47-.06Z"/>
  <path class="cls-10" d="m393.79,366.13c-4.82,0-9.64.04-14.45-.02-1.32-.02-2.9.6-2.79-2.08.35-8.21,7.89-15.12,17.26-15.45,9.55-.33,16.68,5.5,17.49,14.02.25,2.59-.3,3.66-3.06,3.57-4.81-.15-9.63-.04-14.45-.04Z"/>
  <path class="cls-10" d="m1012.91,366.13c-4.99,0-9.98.01-14.96,0-1.5,0-2.87.18-2.66-2.32.72-8.47,8.06-14.98,17.51-15.22,9.17-.23,16.1,5.16,17.21,13.24.41,2.98.06,4.66-3.64,4.39-4.47-.31-8.97-.07-13.46-.08Z"/>
</svg>