<?xml version="1.0" encoding="utf-8"?>
<!-- Generator: Adobe Illustrator 28.0.0, SVG Export Plug-In . SVG Version: 6.00 Build 0)  -->
<svg version="1.1" id="Calque_1" xmlns="http://www.w3.org/2000/svg" xmlns:xlink="http://www.w3.org/1999/xlink" x="0px" y="0px"
	 viewBox="0 0 267 275" style="enable-background:new 0 0 267 275;" xml:space="preserve">
<style type="text/css">
	.st0{fill:#A6C612;}
	.st1{fill:#D34E0A;}
	.st2{fill:#D34F0C;}
	.st3{fill:#D34E09;}
</style>
<path class="st0" d="M86.5,106.8L86.5,106.8c-30,0-54.3,24.2-54.4,54.1c-0.1,29.9,24.6,54.4,54.8,54.3c29.9-0.1,54.3-24.6,54.2-54.4
	C140.8,130.8,116.5,106.8,86.5,106.8z M72.2,196.9c-3.2-1.2-6-2.9-8.2-5.5c-4.3-5-5-12.5-1.4-17c3.6-4.6,12.3-6.2,17.8-3.2
	c5.8,3.2,7.9,10.9,4,17.4c-1.9,3.2-0.7,3.6,1.9,4c4.6,0.7,9-2.1,10.5-7.4c4.5-15.8-0.3-31.7-13.3-42c-6.9-5.5-15-5.8-23.3-3.8
	c-1.1,0.3-2.1,0.9-4.1,0.3v0c5.2-10.2,14.3-13.7,24.4-14.2c21.4-1,39.4,11.8,40.1,35.1C121.4,191.2,94.1,204.8,72.2,196.9z"/>
<path class="st0" d="M75.1,17.8C118.6,4,180.1,28,195.7,88.5c14.9,57.6-23.5,106.9-64.3,118C183.2,174,187,115.1,172.7,81
	C156.2,41.9,118.3,16.9,75.1,17.8L75.1,17.8z"/>
<path class="st0" d="M43.5,75.8c33.9-25.2,85.1-14.1,107.7,22.8c23.2,37.8,7.7,83-19.6,100.7c19.8-31.8,21.5-63.4-0.1-93.3
	C109.7,75.8,79.1,67.6,43.5,75.8L43.5,75.8z"/>
<path class="st0" d="M162.3,200.5c5.1-4.7,10.7-8.8,15.4-13.8c19.3-20.7,29.6-45.9,36.1-72.9c2.4-9.9,4.2-19.8,5.1-29.9
	c0.3-2.9,1.4-2.7,2.9-1.1c6.9,7,13.5,14.2,17.5,23.4c2.3,5.3,1.6,10.4,0.2,15.6c-8.5,31.8-28.6,54.2-56.7,70.1
	C176.3,195.5,169.6,198.7,162.3,200.5L162.3,200.5z"/>
<path class="st1" d="M84.9,253.4c-0.7-4.4-1.3-8.9-1.8-13.3c-0.7-6.7-2.9-10-7.5-11c-5.7-1.2-12.1,1.6-15.2,6.9
	c3.2,0.1,5.6-2.4,8.7-2c1.9,0.2,3.4,0.9,3.6,2.8c0.2,1.8-1.7,1.7-2.9,2c-3.4,0.9-6.5,2.4-9,5c-2.7,2.8-3.5,5.8-2,9.5
	c1.6,3.8,4.8,5.8,8.3,5c7-1.5,14,0.3,21-0.8h0c0-0.2,0-0.4,0-0.6C85.5,257.1,85.2,255.2,84.9,253.4z M73.4,254.7
	c-2,0.6-3.5-0.4-4.5-2.1c-2.1-3.6-0.6-8.4,4.3-12.4h0c0.6,4,1.2,7.4,1.6,10.8C75,252.4,75.4,254.2,73.4,254.7z"/>
<path class="st1" d="M138,248.2c-0.4-4.1-1-8.2-1.8-12.3c-1-5-4.5-7-9.5-7c-6.5,0.1-10.8,2.8-12,7.6c2.7-1.2,5.3-2.8,8.5-2.5
	c1.7,0.2,3,1,3.3,2.5c0.4,2-1.6,1.8-2.7,2.2c-3.4,1-6.5,2.3-9.1,5c-2.7,2.8-3.7,5.8-2.2,9.5c1.6,4,5.1,6,8.7,5.2
	c6.4-1.5,12.7,0.2,19.3-0.6l0,0C138.7,254.8,138.4,251.5,138,248.2z M127.1,254.7c-1.8,0.4-3.2-0.3-4.2-1.9
	c-2.3-3.7-0.8-8.9,3.8-12.3h0c1.6,3.4,1,7.1,1.9,10.6C129.1,252.7,129.1,254.3,127.1,254.7z"/>
<path class="st1" d="M184,229c-8.1-0.2-14.2,6.3-14.3,15.1c-0.1,8.4,5.6,14.7,13.3,14.9c8.4,0.2,14.5-6,14.6-14.8
	C197.7,235.5,192,229.1,184,229z M186.8,252.2c0,2.1-0.9,3.5-3.1,3.7c-2.2,0.2-3.1-1.5-3.2-3.1c-0.2-6-0.2-11.9-0.1-17.8
	c0-1.5,1.2-2.9,2.9-2.8c1.8,0.1,3.2,1.3,3.3,3.1c0.2,3,0.1,6,0.1,8.9h0.1l0,0C186.9,246.8,186.9,249.5,186.8,252.2z"/>
<path class="st1" d="M227.9,248.8c-1-1.1-2.3-2.4-1.8-3.9c0.6-1.8,2.6-0.8,3.9-0.9c2-0.2,4,0,6,0c6.9,0,8.2-2.4,4.9-8.5
	c-1.6-3-4.1-4.7-7.3-5.5c-7.4-1.9-14.1,1.6-16.9,8.7c-2.7,6.9-0.2,14.2,5.9,17.7c7.2,4.1,16.4,2.8,20.9-3.2v0
	C237.3,254.5,232,253.5,227.9,248.8z M224,237.6c0.2-2.2,0.6-4.6,3.4-4.5c3.1,0.1,4.3,2.5,4.6,5.4c0.4,3.8-2.5,1.8-3.6,2.3
	C225.6,241.2,223.7,240.8,224,237.6z"/>
<path class="st1" d="M55.7,253.1c-3.1,4.9-7.5,6.6-13.4,5.6c-6.4-1.1-10.7-4.8-12-11.1c-1.1-5.4-0.1-10.7,4.4-14.6
	c4.4-3.9,9.5-4.6,14.9-2.7c3.4,1.2,5.2,3.8,4.3,7.4c-0.8,3.3-3.6,3.7-6.4,3.3c-3.4-0.5-3.9-3-3.7-6c0.1-0.9,1.5-2.3-0.5-2.8
	c-1.5-0.4-2.7,0.5-3.2,1.8c-2,4.6-1.5,9.1,1,13.4c2.3,4,5.6,6.6,10.5,6.4C52.9,253.6,54.2,253.3,55.7,253.1L55.7,253.1z"/>
<path class="st1" d="M166.6,254.4c-5.3,5.5-13.3,6-19.4,1.5c-5.6-4.1-7.3-13-3.9-19.4c3.1-5.8,10.9-8.7,17.3-6.5
	c3.6,1.2,5.7,3.7,4.9,7.6c-0.7,3.3-3.4,3.8-6.3,3.4c-3.2-0.4-3.9-2.6-3.8-5.4c0-1.1,1.7-2.7-0.4-3.4c-1.7-0.6-2.8,0.7-3.6,2.1
	c-4,7.4,2.7,19,11.1,19.4C163.8,253.7,165.2,252.8,166.6,254.4L166.6,254.4z"/>
<path class="st2" d="M213.1,257.8h-12.3c2-12.4,0.8-24.8,0.5-37.1c0.1-0.9,1-0.7,1.8-0.8c2.7-0.5,6.6-2.4,7.9-1.3
	c2,1.8,0.6,5.6,0.7,8.6c0.1,7.8,0.1,15.6,0,23.4C211.6,252.9,211.7,255.2,213.1,257.8L213.1,257.8z"/>
<path class="st3" d="M88,257.6c0-0.2,0-0.4,0-0.6c1.8-7.5,1.2-15.1,0.4-22.6c-0.2-1.9-0.3-2.5,1.5-2.9c1.9-0.5,3.9-0.9,5.7-1.7
	c2.9-1.4,3.8-0.2,3.5,2.8c2-1,3.3-2.6,5.3-3.2c2.6-0.8,4.7-0.2,6.2,1.9c1.2,1.7,1.3,3.9,0.1,5.7c-1.4,2.2-3.7,1.8-5.8,1.2
	c-5.8-1.7-5.9-1.7-5.8,4.6c0.2,4.9-1,9.9,1.2,15C96.1,258,92.1,258.1,88,257.6L88,257.6z"/>
</svg>
