<?xml version="1.0" encoding="UTF-8"?>
<svg id="Calque_1" data-name="Calque 1" xmlns="http://www.w3.org/2000/svg" viewBox="0 0 517 224">
  <defs>
    <style>
      .cls-1 {
        fill: #f7f9f2;
      }

      .cls-1, .cls-2, .cls-3, .cls-4, .cls-5, .cls-6, .cls-7, .cls-8, .cls-9, .cls-10, .cls-11, .cls-12, .cls-13, .cls-14, .cls-15, .cls-16, .cls-17, .cls-18, .cls-19, .cls-20, .cls-21, .cls-22, .cls-23, .cls-24, .cls-25, .cls-26, .cls-27, .cls-28, .cls-29, .cls-30, .cls-31, .cls-32, .cls-33, .cls-34, .cls-35, .cls-36, .cls-37, .cls-38, .cls-39, .cls-40, .cls-41, .cls-42, .cls-43, .cls-44, .cls-45, .cls-46, .cls-47, .cls-48, .cls-49, .cls-50, .cls-51, .cls-52, .cls-53, .cls-54, .cls-55, .cls-56, .cls-57, .cls-58, .cls-59, .cls-60, .cls-61, .cls-62, .cls-63, .cls-64, .cls-65, .cls-66, .cls-67, .cls-68, .cls-69, .cls-70, .cls-71, .cls-72, .cls-73, .cls-74, .cls-75, .cls-76, .cls-77, .cls-78, .cls-79, .cls-80, .cls-81, .cls-82, .cls-83, .cls-84, .cls-85, .cls-86, .cls-87, .cls-88, .cls-89, .cls-90, .cls-91, .cls-92, .cls-93, .cls-94, .cls-95, .cls-96, .cls-97, .cls-98, .cls-99, .cls-100, .cls-101, .cls-102, .cls-103, .cls-104, .cls-105, .cls-106, .cls-107, .cls-108, .cls-109, .cls-110, .cls-111, .cls-112, .cls-113, .cls-114, .cls-115, .cls-116, .cls-117, .cls-118, .cls-119, .cls-120, .cls-121, .cls-122, .cls-123, .cls-124, .cls-125, .cls-126, .cls-127, .cls-128, .cls-129, .cls-130, .cls-131, .cls-132, .cls-133, .cls-134, .cls-135, .cls-136, .cls-137, .cls-138, .cls-139, .cls-140, .cls-141, .cls-142, .cls-143, .cls-144, .cls-145, .cls-146, .cls-147, .cls-148, .cls-149, .cls-150, .cls-151, .cls-152, .cls-153, .cls-154, .cls-155, .cls-156, .cls-157, .cls-158, .cls-159, .cls-160, .cls-161, .cls-162, .cls-163, .cls-164, .cls-165, .cls-166, .cls-167, .cls-168, .cls-169, .cls-170, .cls-171, .cls-172, .cls-173, .cls-174 {
        stroke-width: 0px;
      }

      .cls-2 {
        fill: #f7f9f1;
      }

      .cls-3 {
        fill: #f6f8f0;
      }

      .cls-4 {
        fill: #f9faf6;
      }

      .cls-5 {
        fill: #f9faf5;
      }

      .cls-6 {
        fill: #f8f9f3;
      }

      .cls-7 {
        fill: #74951b;
      }

      .cls-8 {
        fill: #749811;
      }

      .cls-9 {
        fill: #74990a;
      }

      .cls-10 {
        fill: #789b18;
      }

      .cls-11 {
        fill: #789822;
      }

      .cls-12 {
        fill: #799b18;
      }

      .cls-13 {
        fill: #799c1a;
      }

      .cls-14 {
        fill: #799c19;
      }

      .cls-15 {
        fill: #759912;
      }

      .cls-16 {
        fill: #82a325;
      }

      .cls-17 {
        fill: #759718;
      }

      .cls-18 {
        fill: #75971c;
      }

      .cls-19 {
        fill: #82a227;
      }

      .cls-20 {
        fill: #7b9d1c;
      }

      .cls-21 {
        fill: #7b9a27;
      }

      .cls-22 {
        fill: #7b9e1d;
      }

      .cls-23 {
        fill: #779a15;
      }

      .cls-24 {
        fill: #7a9c1b;
      }

      .cls-25 {
        fill: #6f9509;
      }

      .cls-26 {
        fill: #6c9206;
      }

      .cls-27 {
        fill: #6f9407;
      }

      .cls-28 {
        fill: #86ac1a;
      }

      .cls-29 {
        fill: #86ab19;
      }

      .cls-30 {
        fill: #88aa28;
      }

      .cls-31 {
        fill: #87ae1b;
      }

      .cls-32 {
        fill: #87ad1b;
      }

      .cls-33 {
        fill: #9ab846;
      }

      .cls-34 {
        fill: #86ad1b;
      }

      .cls-35 {
        fill: #86ad1a;
      }

      .cls-36 {
        fill: #99b845;
      }

      .cls-37 {
        fill: #99b744;
      }

      .cls-38 {
        fill: #89b11b;
      }

      .cls-39 {
        fill: #88b01b;
      }

      .cls-40 {
        fill: #87a631;
      }

      .cls-41 {
        fill: #87ab1b;
      }

      .cls-42 {
        fill: #87a82a;
      }

      .cls-43 {
        fill: #87a929;
      }

      .cls-44 {
        fill: #87a72e;
      }

      .cls-45 {
        fill: #87ab19;
      }

      .cls-46 {
        fill: #95b341;
      }

      .cls-47 {
        fill: #95b43e;
      }

      .cls-48 {
        fill: #95b43f;
      }

      .cls-49 {
        fill: #95b441;
      }

      .cls-50 {
        fill: #95b440;
      }

      .cls-51 {
        fill: #89a53c;
      }

      .cls-52 {
        fill: #89a736;
      }

      .cls-53 {
        fill: #89ae18;
      }

      .cls-54 {
        fill: #94b43e;
      }

      .cls-55 {
        fill: #71950b;
      }

      .cls-56 {
        fill: #71950c;
      }

      .cls-57 {
        fill: #71950a;
      }

      .cls-58 {
        fill: #a1be50;
      }

      .cls-59 {
        fill: #70960a;
      }

      .cls-60 {
        fill: #709509;
      }

      .cls-61 {
        fill: #70950a;
      }

      .cls-62 {
        fill: #71960b;
      }

      .cls-63 {
        fill: #71960c;
      }

      .cls-64 {
        fill: #71960a;
      }

      .cls-65 {
        fill: #94b241;
      }

      .cls-66 {
        fill: #94b33e;
      }

      .cls-67 {
        fill: #83a427;
      }

      .cls-68 {
        fill: #83a718;
      }

      .cls-69 {
        fill: #83a719;
      }

      .cls-70 {
        fill: #83a134;
      }

      .cls-71 {
        fill: #83a429;
      }

      .cls-72 {
        fill: #c3d491;
      }

      .cls-73 {
        fill: #d1deac;
      }

      .cls-74 {
        fill: #d2ddb6;
      }

      .cls-75 {
        fill: #dce4c5;
      }

      .cls-76 {
        fill: #c9d6a8;
      }

      .cls-77 {
        fill: #ccd9a8;
      }

      .cls-78 {
        fill: #dfe7cb;
      }

      .cls-79 {
        fill: #dae4bf;
      }

      .cls-80 {
        fill: #a9c35b;
      }

      .cls-81 {
        fill: #a3ba64;
      }

      .cls-82 {
        fill: #a5c159;
      }

      .cls-83 {
        fill: #cedaaf;
      }

      .cls-84 {
        fill: #92b13e;
      }

      .cls-85 {
        fill: #92b13b;
      }

      .cls-86 {
        fill: #92b13d;
      }

      .cls-87 {
        fill: #85a727;
      }

      .cls-88 {
        fill: #85a728;
      }

      .cls-89 {
        fill: #85a725;
      }

      .cls-90 {
        fill: #85aa18;
      }

      .cls-91 {
        fill: #9cca1f;
      }

      .cls-92 {
        fill: #9db852;
      }

      .cls-93 {
        fill: #8bb31c;
      }

      .cls-94 {
        fill: #9dba4b;
      }

      .cls-95 {
        fill: #9dba4f;
      }

      .cls-96 {
        fill: #8bac31;
      }

      .cls-97 {
        fill: #8bac2e;
      }

      .cls-98 {
        fill: #8bac30;
      }

      .cls-99 {
        fill: #8cad32;
      }

      .cls-100 {
        fill: #8bb11f;
      }

      .cls-101 {
        fill: #8faf38;
      }

      .cls-102 {
        fill: #8faf35;
      }

      .cls-103 {
        fill: #8faf36;
      }

      .cls-104 {
        fill: #90ae3f;
      }

      .cls-105 {
        fill: #72970d;
      }

      .cls-106 {
        fill: #729318;
      }

      .cls-107 {
        fill: #72960c;
      }

      .cls-108 {
        fill: #72960d;
      }

      .cls-109 {
        fill: #729418;
      }

      .cls-110 {
        fill: #729419;
      }

      .cls-111 {
        fill: #bacd80;
      }

      .cls-112 {
        fill: #8dad33;
      }

      .cls-113 {
        fill: #8dad34;
      }

      .cls-114 {
        fill: #8eab42;
      }

      .cls-115 {
        fill: #8eaf35;
      }

      .cls-116 {
        fill: #8eae35;
      }

      .cls-117 {
        fill: #b9ca89;
      }

      .cls-118 {
        fill: #8eb31a;
      }

      .cls-119 {
        fill: #98b643;
      }

      .cls-120 {
        fill: #98b644;
      }

      .cls-121 {
        fill: #97b542;
      }

      .cls-122 {
        fill: #97b643;
      }

      .cls-123 {
        fill: #96b542;
      }

      .cls-124 {
        fill: #96b540;
      }

      .cls-125 {
        fill: #7fa121;
      }

      .cls-126 {
        fill: #7f9f23;
      }

      .cls-127 {
        fill: #7fa419;
      }

      .cls-128 {
        fill: #7ca018;
      }

      .cls-129 {
        fill: #7c9f18;
      }

      .cls-130 {
        fill: #91b03b;
      }

      .cls-131 {
        fill: #7c9e1f;
      }

      .cls-132 {
        fill: #8aaf17;
      }

      .cls-133 {
        fill: #8ab01b;
      }

      .cls-134 {
        fill: #8ab11b;
      }

      .cls-135 {
        fill: #8baa34;
      }

      .cls-136 {
        fill: #8aab30;
      }

      .cls-137 {
        fill: #8aab2d;
      }

      .cls-138 {
        fill: #8ab21b;
      }

      .cls-139 {
        fill: #8ab21c;
      }

      .cls-140 {
        fill: #a0bb53;
      }

      .cls-141 {
        fill: #92b23a;
      }

      .cls-142 {
        fill: #84a723;
      }

      .cls-143 {
        fill: #84a429;
      }

      .cls-144 {
        fill: #84a52a;
      }

      .cls-145 {
        fill: #93b13e;
      }

      .cls-146 {
        fill: #93b13f;
      }

      .cls-147 {
        fill: #93b23c;
      }

      .cls-148 {
        fill: #93b240;
      }

      .cls-149 {
        fill: #fdfdfd;
      }

      .cls-150 {
        fill: #fdfefd;
      }

      .cls-151 {
        fill: #91b139;
      }

      .cls-152 {
        fill: #91b137;
      }

      .cls-153 {
        fill: #7d9e27;
      }

      .cls-154 {
        fill: #91b03a;
      }

      .cls-155 {
        fill: #739418;
      }

      .cls-156 {
        fill: #739419;
      }

      .cls-157 {
        fill: #73970e;
      }

      .cls-158 {
        fill: #80a31b;
      }

      .cls-159 {
        fill: #80a419;
      }

      .cls-160 {
        fill: #80a41a;
      }

      .cls-161 {
        fill: #80a125;
      }

      .cls-162 {
        fill: #81a226;
      }

      .cls-163 {
        fill: #81a227;
      }

      .cls-164 {
        fill: #7ea118;
      }

      .cls-165 {
        fill: #98b743;
      }

      .cls-166 {
        fill: #eff3e4;
      }

      .cls-167 {
        fill: #fbfcf9;
      }

      .cls-168 {
        fill: #fefefe;
      }

      .cls-169 {
        fill: #eaf0dc;
      }

      .cls-170 {
        fill: #eef2e2;
      }

      .cls-171 {
        fill: #fafbf7;
      }

      .cls-172 {
        fill: #fcfcfa;
      }

      .cls-173 {
        fill: #fcfdfa;
      }

      .cls-174 {
        fill: #fcfdfb;
      }
    </style>
  </defs>
  <path class="cls-168" d="m89.98.09C230.79.09,371.6.11,512.4,0c3.75,0,4.6.84,4.59,4.59-.13,71.77-.13,143.55,0,215.32,0,3.42-.67,4.09-4.1,4.09-170.97-.11-341.94-.09-512.9-.09,0-62.61,0-125.23,0-187.84,1.05-1.88,2.35-3.55,3.89-5.08C12.93,22.02,21.94,13.02,30.91,3.98c1.53-1.54,3.2-2.84,5.08-3.89h7c9.02,6.59,16.01,15.23,23.5,22.59,7.49-7.36,14.47-16,23.5-22.59Z"/>
  <path class="cls-168" d="m35.99.09C24.41,12.5,12.41,24.49,0,36.06V.09c12,0,24,0,35.99,0Z"/>
  <path class="cls-168" d="m89.98.09c-7.17,7.34-14.38,14.64-21.49,22.03-1.51,1.57-2.5,1.57-4.01,0C57.37,14.73,50.17,7.43,42.99.09c15.66,0,31.33,0,46.99,0Z"/>
  <path class="cls-12" d="m77.1,126.03c6.77-9.28,13.16-18.77,17.13-29.69.82-2.26,1.94-4.62,4.8-5.17,3.3-.18,6.61-.2,9.91.01,3.47,1.34,1.08,3.2.23,4.59-7.25,11.8-14.62,23.54-21.93,35.31-.95,1.54-1.79,3.15-2.68,4.72-.18,2.41,1.1,1.76,2.38,1.14,13.07-12.23,25.5-24.98,33.88-41.09,1.14-2.2,1.89-3.71-.55-5.84-3.5-3.05-2.83-7.24-1.21-11.06,1.69-3.96,4.38-7.22,8.96-7.79,5.18-.64,7.85,3.76,6.29,9.55-.52,1.92-3.15,4.06-.03,6.07,1.54,1.02,1.85,1.02,3.39,0,1.54-.59,3.08-1.19,4.63-1.76,2.12-.79,3.48.45,4.73,1.86,1.75,1.98-.32,2.94-1.24,4.11-7.14,9.06-12.62,19.03-16.34,29.94-.63,1.86-1.61,4.31.02,5.66,1.96,1.63,4.08-.28,5.84-1.39,6.12-3.86,11.29-8.3,13.63-15.77,2.66-8.52,7.84-15.76,14.54-21.74,3.6-3.21,7.41-6.19,12.5-6.71,2.67.13,5.33.08,8,.02,5.11,1.54,8.97,4.34,9.91,10.01-.68,1.64-.64,3.29-.02,4.93-2.28,9.81-13.43,17.86-24.89,17.97-1.65-.75-3.31-.72-4.97-.01-4.52-1.04-6.42,1.24-6.84,5.39-.6-.41-.86-.86-.12-1.39-.68.15-.58.7-.56,1.16.05.97-.27,2,.44,2.88.66,10.46,5.41,13.65,15.04,9.29,9.75-4.42,18.2-10.24,21.76-21.47,3.06-9.65,9.01-17.73,17.06-24.04,2.73-2.14,5.62-4.13,9.24-4.58,2.99.25,5.96-.29,8.95-.12,11.84,3.92,12.37,14.26,7.63,20.62-5.58,7.49-12.85,12.32-22.64,12.28-1.65-.74-3.31-.73-4.97,0-4.42-.99-6.48,1.09-6.89,5.3-.64-.32-.45-1.05-1.01-2.26.62,1.78,0,3.02.84,3.99.04.99.08,1.98.12,2.97.23,7.26,4.56,10.75,11.54,8.45,10.29-3.4,19.14-9.01,24.21-19.14,5.03-10.05,11.65-18.85,20.57-25.74,2.51-1.94,6-5.45,8.65-2.99,3.16,2.93-.8,6.3-2.57,9.02-2.58,3.97-5.64,7.63-8.5,11.43-1.25,3.25-4.15,5.46-5.6,9.26,2.55-2.81,4.2-5.84,7.33-7.3,6.56-3.97,10.07-11.07,16.19-15.61,4.31-3.19,7.77-7.51,13.09-9.29,2.09.26,4.26-.22,6.26.77l-.04-.04c.64,1.35.4,2.86.75,4.26-1.18,5.18-4.74,9.04-7.52,13.33-3.52,5.43-7.71,10.43-10.65,16.23-1.05,2.06-1.86,4.25-2.64,6.43-.56,1.57.14,3.1,1.17,4.12,1.46,1.45,2.18-.72,3.05-1.23,5.1-3,10.41-5.79,13.58-11.21.62-1.06,1.93-1.83,3.07-2.45.63-.34,1.73-.37,2.35-.03,1.03.56.76,1.73.48,2.69-.18.63-.46,1.28-.87,1.78-8.37,10.35-17.51,19.78-30.01,25.23-1.97-.12-3.95.07-5.93-.12-3.37-2.76-2.29-6.44-1.56-9.69,2.32-10.41,7.73-19.34,14.68-28.58-5.34,1.39-8.59,4.77-11.7,7.73-5.83,5.54-10.77,11.96-15.48,18.5-2.43,3.38-4.66,6.92-7.76,9.75-1.41,1.29-2.74,3.31-5.08,2.29-2.14-.93-2.33-3.06-2.38-5.11-.02-.98,0-1.96,0-3.86-5.82,4.68-10.67,9.83-17.79,11.03-.42-.29-.9-.38-1.39-.36-.32.02-.66-.16-.96.09.35.04.59.23.73.57-11.36,2.96-18.89-2.2-21.81-15.36-7.28,5.09-11.91,13.8-21.55,15.06-.28-.21-.58-.32-.91-.35-.49-.04-.99-.03-1.48-.05.22.28.68.3.78.71-12.12,3.1-20.1-3.08-21.68-17.43-7.33,5.64-12.81,13.3-21.7,16.13-2-.19-3.98.27-5.98.15-4.39-3.15-3.4-7.68-2.5-11.75,2.58-11.6,8.63-21.49,16.04-30.63,1.5-1.86,2.99-3.73,4.7-5.88-4.91-1.29-7.88-.8-10.25,4.06-6.8,13.92-17.25,25.41-26.61,37.59-7.36,9.58-15.08,18.89-22.76,28.23-1.89,2.29-4.14,4.33-6.45,6.2-1.1.89-2.71,2.4-4.14.12-.21-1.33,1.12-2.65.02-3.99,1.35-9.02,5.94-16.75,9.88-24.74.93-1.89,1.96-3.74,2.68-5.95-6.24,3.86-10.37,11.13-18.62,11.57-1.66-.58-3.31-.7-4.95.07-8.77-1.3-13.74-8.43-13.9-19.96.64-2.31.67-4.63-.01-6.94-.14-2.16-.31-4.32.73-6.34.44.2.58.58.61,1.02.1-.93.25-1.86-.37-2.68,2.18-15.96,9.05-29.97,18.21-42.95,2.8-3.97,5.99-7.73,9.43-11.14,2.82-2.8-.32-5.32.36-7.89.14-3.65.05-7.29.05-10.94-.14-4.99,3.5-7.85,6.78-10.33,2.91-2.21,6.84-1.84,9.52,1.07,1.61,1.74,2.82,3.95.08,6.36-3.29,2.91-5,6.83-5.58,11.77,8.18-4.68,16.04-8.86,25.12-9.8,4.31-.08,8.63-.05,12.94-.02,5.18.51,8.3,3.83,10.82,7.96.14,3.3.03,6.6.07,9.9-3.31,11.94-16.29,23.11-27.87,23.98-2.64-.82-5.3-.7-7.96-.08-6.37-.49-11.34-3.67-15.2-8.47-1.95-2.42-2.88-2.12-4.66.05-8.35,10.21-14.05,21.66-16.85,34.55.81,4.96-.41,9.92-.02,14.88.17,2.15.05,4.33.85,6.39,1.87,4.87,6.4,6.49,10.92,3.83,3.14-1.85,5.6-4.74,9.06-6.13Z"/>
  <path class="cls-106" d="m429.86,139.97c-1,7.21-6.5,9.6-12.44,11.02-4.21,1.01-7.53,2.11-10.33,6.15-3.98,5.75-10.94,6.47-17.53,6.65-9.42.26-18.37-2.69-27.5-4.35-17.51-3.19-34.92-4.4-52.23,1.46-2.81.95-5.2,3.46-8.72,2.87,1.33-3.13,5.01-4.64,5.13-8.31.05-2.24,1.76-3.38,3.14-4.75,4.1-4.44,9.38-6.74,15.06-8.27,5.44-1.46,9.82-4.78,14.31-7.94,1.19-.84,2.54-2.21,4-1.32,1.52.93.73,2.66.46,4.13-.86,4.75-.07,5.46,4.92,4.92,6.28-.68,12.43-2.24,18.74-2.63,2.45-.15,3.45-1.66,4.2-3.62.54-1.39.64-2.93,1.37-4.26.48-.87,1.06-1.94,2.17-1.69,1.07.25,1.27,1.44,1.41,2.44.24,1.68-.25,3.3-.41,4.95-.29,3.06,1.07,4.37,4.13,3.83,7.22-1.25,14.26-3.29,21.43-4.75,2.52-.51,3.53-2.14,3.42-4.69-.08-1.82-.08-3.66.19-5.48.32-2.07,1.39-3.35,3.61-3.37,2.54-.02,3.51,1.53,3.69,3.79.26,3.21-.88,6.24-1.27,9.36-.52,4.17.57,5.26,4.64,4.5,3.1-.58,6.12-1.59,9.22-2.2,1.95-.38,4.03-.94,5.18,1.52Z"/>
  <path class="cls-109" d="m465.06,48.5c-.26.22-.52.44-.78.66-.63.23-1.07,1.11-1.67.98-7.49-1.68-14.74,1.44-22.07,1.11-7.11-.32-13.75,1.7-20.59,2.69-7.73,1.12-8.45.9-11.65-6.15-1.42-2.59-.08-4.02,2.15-5.04,13.98-6.39,27.85-13.05,41.92-19.24,1.54-.83,3.22-1.32,4.9-1.8,6.79-1.37,13.34-3.81,20.26-4.53,1.5-.15,3.37-1.49,4.63.24,1.21,1.66-.29,3.16-.99,4.55-4.67,9.26-8.7,18.92-16.1,26.53Z"/>
  <path class="cls-13" d="m429.86,139.97c-4.47-1.93-8.34.87-12.39,1.77-8.07,1.8-9.15.91-7.65-7.25.48-2.59.8-5.22,1.06-7.84.15-1.5-.46-2.55-2.23-2.61-1.91-.07-2.54.82-2.77,2.65-.44,3.49,1.86,7.96-1.82,10.23-2.78,1.71-6.61,1.71-9.96,2.51-4.67,1.1-9.31,2.33-14,3.33-5.05,1.09-7.06-.85-5.94-5.85.44-1.96,1.05-3.82.54-5.86-.31.09-.79.17-.79.25-.31,9.3-7.03,10.03-14.01,10.69-4.1.39-8.14,1.33-12.24,1.82-2.07.24-4.54,1-6.06-1.04-1.47-1.97-.51-4.12.47-6.11.42-.86,1.14-1.7.21-3.3-7.57,6.9-16.65,10.67-26.32,13.42-2.68.76-3.67,4.75-6.99,5.25-1.97.62-3.09-.37-3.88-2.02.59-2.27,1.18-4.53,1.78-6.8-1.19-1.61-3.36-1.81-4.68-3.23-.73-1.32-.61-2.64.01-3.96,1.19-1.01,2.28-.74,3.34.22,1.91,3.32,6.36,2.4,8.62,5.13.08.37-.04.63-.33.77-.03.02-.03.1-.04.16,1.72-.31,3.42-.78,5.18-.23.61.19,1.6.83.74-.66,3.22-3.06,7.86-3.13,11.45-5.63,5.73-4.01,11.53-7.82,15.68-13.61.87-1.21,2.2-2.68,3.66-2.07,1.95.8,1.11,2.84.83,4.42-.62,3.46-2.06,6.65-3.38,9.86-1.18,2.88-.43,4.43,2.68,4.77.61.2,1.14.56,1.7.86.61.32,1.29.95,2.02.14-.93.55-1.41.19-1.61-.78,1.16-1.84,2.9-1.53,4.63-1.29,1.56.3,2.51,1.92,4.13,1.47-.12-.58-1.66.22-1.79-.91.69-1.86,2.21-1.65,3.71-1.51,1.37.13,2.25,1.73,3.91,1.18-.93.14-1.67.05-1.57-1.09,1.6-2.09,2.74-4.35,3.51-6.91,1.63-5.41,4.55-6.57,10.07-4.33,1.07,2.16,1.32,4.24-.58,6.1-1.93-.07-1.2-1.35-1.06-2.46-.99,1.98.67,3.21,1.14,4.73.43,2.76,1.99,3.49,4.62,2.81,4.17-1.08,8.34-2.15,12.57-2.93,3.08-.57,4.54-2.31,4.52-5.49-.02-3.47-.24-6.97.18-10.41.16-1.3-.4-3.97,2.66-2.7.05,5.31,0,10.61.02,14.13-.38-4.67.74-11.14-.74-17.58-.43-1.88-.38-3.98.78-5.79,2.99-.91,2.52,1.6,2.72,3.01.44,3.2-.1,6.47.39,9.67,1.04,2.05,2.6,1.95,4.34,1.04.66-.69.63-1.58.73-2.44,1.37-9.82,3.2-19.56,4.73-29.34.29-1.89,1.31-3.86-.35-5.64-1.76-.89-4.42-1.22-2.68-4.28,1.24-1.49,2.85-1.52,4.56-1.2,3.28.65,4.37,3.11,4.95,5.99.16,3.47.14,6.9-2,9.9-1.21.24-1.43-.35-1.13-1.37-.88,1.6,1.06,2.41,1.07,3.76.15,1.53.39,3.1-1.56,3.75-.87-.34-.6-1.32-1.38-2.88.12.35-.16,1.55.18.98.44,1.51,1.32,2.83,1.84,4.32-.58,6.94-1.16,13.88-3.99,20.38-.49.19-.91.1-1.23-.35-.26-.36.07-.67.16-1.77-.76,2.3.82,3.19.99,4.49.55,3.21-.55,6.25-.99,9.35-.35,2.49.36,3.5,2.92,2.88,2.1-.51,4.17-1.19,6.29-1.52,4.77-.73,8.25-2.46,7.75-8.19-.11-1.26.22-2.7,1.84-3.17,1.15.82,1.04,1.77.14,3.28,1.58-2.39-.12-3.77-.66-5.35-.36-1.77-.59-3.52,1.07-4.84,1.19-.08,1.33.55.99,1.49.89-1.56-.9-2.38-1.02-3.66-.27-1.45-.36-2.86,1.06-3.85,1.44-.17,1.71,1.21,2.5,1.9.47.43.93.86,1.49,1.16,2.69,1.26,4.57,3.27,5.54,6.09-2.53,1.47-3.06-2.08-5.37-1.99-1.87,4.01-1.03,8.58-2.4,13.12,3.21-.08,4.16-4.54,7.44-3.04-2.49,5.13-7.72,6.9-12.07,9.71-.99.64-1.99,1.02-2.44,2.17Z"/>
  <path class="cls-14" d="m353.78,49.06c.68.26,1.36.52,2.05.77.71.08,1.28.45,1.8.91,1.02.92,1.77,2.06,2.51,3.19,1.87,2.32,3.99,1,5.77.11,4.12-2.04,8.58-3.27,12.58-5.56,1.72-.98,3.55-1.75,5.62-1.24.73.2,1.3.77,2.06.88.47-.42.54-.99.62-1.56.1-.89.25-1.75.8-2.48.37-.31.8-.46,1.27-.49,1.2.16,2.29.52,3.08,1.51.23,1.69-.05,3.47,1.75,4.7,1.06.72.94,1.95,0,2.94-4.65,2.47-9.88,2.58-14.88,3.42-4.03.68-6.12,2.55-7.11,6.38-2.61,10.09-5.76,20.02-8.79,29.99-.67,2.2-1.09,4.52-2.7,6.32-1.49.92-2.74-.33-4.12-.44-.44-.22-.82-.52-1.15-.88-2.39-3.98-6.05-5.19-10.49-5.28-3.48-.07-6.85,1.18-10.34.64-2.41-.83-4.88-.48-7.34-.38-2.48-.68-3.07-2.5-2.37-4.65,1.59-4.84,4.7-8.35,9.68-9.93,2.05-.65,4.17-.51,5.41,1.35,1.73,2.59,3.68,2.33,5.98,1.15.59-.3-.16.06.46-.2,5.46-2.25,12.09-2.89,10.89-11.89-.83-6.21-.74-12.32-6.83-16.09-.29-2.81-2.71-.42-3.88-1.51-.39-.36.5.68.01,1.02-8.08,3.91-15.66,8.48-21.87,15.14-8.21,8.82-15.51,18.16-19.06,29.92-.29.95-.62,1.9-1.62,2.39-1.05.13-1.71-.63-2.49-1.12-3.05-1.85-1.53-5.99-4.06-8.1-.3-1.21-.09-2.32.71-3.3.97.6,1.18,0,1.27-.81.75-2.03,2.54-2.89,4.26-3.81,3.17-1.7,4.97-4.59,6.68-7.57,4.4-5.05,8.55-10.32,13.35-15.01,2.87-2.29,5.67-4.68,8.66-6.81.55-.41,1.12-.8,1.7-1.17.39-.27.8-.49,1.21-.72.63-.38,1.27-.74,1.92-1.09,3.67-1.98,7.53-3.19,11.77-2.94,2.05.12,3.89.57,5.2,2.29Z"/>
  <path class="cls-132" d="m335.95,51.07c-.35.32-.7.64-1.05.96-1.2-1.36-1.1-2.92-.74-4.62-.51,1.63-.11,3.22-.21,4.78-.34.29-.67.58-1.01.87-.16.05-.45.16-.46.13-2.5-5.51-6.22-3.93-10.09-1.78-4.97,2.75-11.16,3.64-14.16,9.41-.4.76-1.35.87-2.14.22-.25-3.7.77-7.19,1.9-10.64,1.35-4.13,3.95-6.4,8.57-5.46,1.24-.66,1.92-1.82,2.35-3.05,2.13-6.22,7.39-8.93,12.82-11.34,4.59-2.04,9.8,2.23,10.92,8.73-3.34,3.3-5.69,7.16-6.69,11.78Z"/>
  <path class="cls-29" d="m356.14,48.05c1.4-6.68,2.39-13.54,8.35-18.12,3.64-.71,6.94-1.83,9.11-5.29,1.2-1.91,3.7-2.05,5.67-2.91,4.57-1.99,9.27-3.8,13.42-6.54,2.94-1.95,4.5-1.08,5.9,1.57.97,2.47,3.27,4.83.63,7.6-4.26,1.9-8.69,3.64-8.78,9.42-.3.37-.69.57-1.16.58-.47-.11-.52-.68-.92-.88.14.44.12.9.2,1.36-.49,1.96-.27,3.9.05,5.85-.03.48-.16.92-.39,1.34-.37.33-.8.52-1.3.57-.24-.04-.48-.09-.73-.13-.44-.25-.77-.6-1-1.06-.45-1.17-.48-2.4-.53-3.62-.07-6.45-.26-6.61-6.33-3.95-4.7,2.06-9.15,4.66-13.98,6.42-2.53.93-3.85,2.94-4.94,5.27-.6,1.29-.71,3.63-3.28,2.48Z"/>
  <path class="cls-14" d="m405.99,121.01c-2.11-2.78-.61-5.98-1.07-8.96-.31-2.02.78-4.27-1-6.05-.97-.54-1.47-1.43-1.78-2.45-.25-1.05-.21-2.1,0-3.15.78-3.72.3-7.48.36-11.23-.02-1.63.09-3.24.41-4.84.79-2.26.67-4.61.67-6.95.01-1.28.11-2.56.44-3.81.27-.97.73-1.85,1.26-2.71.24-.42.52-.82.8-1.22,1.39-3.69-.92-7.2-.53-10.83.09-1.97-.21-4.03,1.24-5.71.5-.54,1.02.06,1.53,0-.27-.6-.75-.96-1.35-1.2-1.7-.83-3.75-.47-5.39-1.56-.77-.82-1.34-1.68-.53-2.8,2.5-2.06,5.12-2.22,7.85-.49.58.57,1.68,1.16,1.65,1.7-.27,5.12,3.4,4.73,6.38,4.2,5.23-.95,10.66-.71,15.75-3.32,1.23-.63,5.1.76,7.82.42,4.74-.58,9.55-.83,14.18-1.9,3.49-.81,6.31,1.64,9.58,1.02-.88,3.95.71,8.4-2.47,11.87-.73.51-1.38,1.14-2.28,1.37-.48-.05-.85-.28-1.13-.67-.42-.87-.41-1.78-.23-2.7.56-2.14.8-4.3.24-6.48-.23-.32-.49-.63-.8-.88-1.92-.91-3.09.83-4.62,1.3-3.2.7-6.35,1.82-9.7.96-1.62-.6-3.02-2.13-5.08-1.12-.59.04.03.81-.03.15-.02-.24.09-.37.34-.36.94.04,2.01-.37,2.6.81-1.25,2.46-3.45,1.76-5.47,1.66-2.54-.66-5.07-1.34-7.49.39-.66.27-1.35.36-2.06.28-.97-.12-1.85-.51-2.72-.92-.41-.19-.84-.39-1.32-.22.72.11,1.15.45.96,1.26-1.59,1.79-3.59,1.43-5.59,1.1-1.55-.61-2.89-1.77-4.08-1.61-1.26-.25-.58.96-.62.29,0-.08.15-.1.48-.09.64.01,1.29.01,1.87.37-.06,3.11-4.81,1.63-4.73,4.86-.07,2.75-.34,5.5.5,8.18.42,1.97.41,3.97.38,5.96.1,1.16-.43,2.53,1.12,3.18.58.16,1.12.37,1.54.81-1.02,3.62,1.94,1.51,3.03,2.1-2.56,4.04-6.03,2.43-9.38,1.5-1.82-1.71-1.1-3.74-1-5.69.07,2.03-.74,4.17,1.01,6.01.89,4.88,2.38,9.81-1.11,14.35-2.13-2.57-.6-5.46-1.04-8.18.53,3.31-1.08,6.84,1.33,9.96,1.1,4.22.76,8.55.52,12.8-.24,4.37.95,7.01,5.66,7.21-.03.88-.24,1.65-1.14,2.05-1.93.65-3.86.69-5.79-.03Z"/>
  <path class="cls-168" d="m77.1,126.03c-2.54,2.56-5.02,5.2-8.11,7.12-6.06,3.77-11.49,1.85-13.35-5.1-1.87-6.99-1.22-14.05.67-21,5.44,5.36,10.88,10.74,16.34,16.09,1.28,1.26,2.35,2.88,4.46,2.89Z"/>
  <path class="cls-68" d="m356.14,48.05c.16-.04.44-.03.47-.12,4.68-12.09,17.49-11.83,26.49-17.34,1.77-1.09,2.79.04,2.81,2,.02,1.83.01,3.66.01,5.49-.86,1.43-1.74,2.83-3.36,3.55-7.27,3.23-14.39,6.82-21.85,9.62-1.24.47-2.57.79-3.78-.18-.37-.41-.74-.81-1.11-1.22.11-.59.21-1.19.32-1.78Z"/>
  <path class="cls-129" d="m391.93,45.06c-1.1-.03-2.28.18-3-1-1.1-1.23-.03-2.28.28-3.4,2.98-4.26,8.03-5.15,12.21-7.47.86-.5,1.74-.96,2.68-1.3,6.33-1.9,12.04-5.21,17.91-8.09,3.96-1.94,7.39-2.35,11.02.23,2.32-1.23,4.58-2.57,6.96-3.67,4.34-2.01,8.3-1.96,11.19,2.56-.28.41-.66.69-1.14.84-1,.19-1.9-.13-2.76-.6-2.91-1.25-5.52-.09-8.12,1.04-8.38,3.67-16.74,7.38-24.93,11.48-3.69,1.12-7,3.07-10.44,4.74-.4.21-.82.38-1.25.54-3.54.83-6.41,3.28-9.94,4.12-.23,0-.45-.02-.68-.03Z"/>
  <path class="cls-90" d="m306.09,61.04c4.44-7.5,12.66-9,19.68-12.39,5.21-2.52,5.21-2.48,6.33,3.23.08.43.55.79.85,1.18-3,2.33-6,4.66-9,6.99-6.04,3.65-13.33,5.23-18.11,10.96.08-3.32.17-6.64.25-9.96Z"/>
  <path class="cls-69" d="m305.84,71c3.57-7.73,11.2-8.74,18.11-10.96-4.34,4.99-8.67,9.99-13.01,14.98-4.99,1.87-9.23,5.89-15.1,5.23-2.41-3-2.74-9.57-.61-12.29,1.79-2.29,3.96-2.2,6.12-.72,1.6,1.1,3,2.49,4.49,3.76Z"/>
  <path class="cls-24" d="m305.9,127.97c.4-1.67.8-3.34,1.2-5.01,1.23-3.34,2.98-6.49,3.79-10,1.54-.81,3.17-.37,4.72-.38-1.88-.62-4.07.73-5.9-.73-.08-.57.1-1.01.55-1.36,6.24-1.11,12.52-1.9,18.81-2.51,2.01.53,4.03.8,6.09.3,4.07,1.76,4.74,3.79,1.76,6.83-4.71,4.79-10.77,6.86-17.26,5.78-4.14-.69-6.15.29-7.59,4-.69,1.79-1.67,3.65-3.67,4.53-1.21.16-2.05-.31-2.51-1.45Z"/>
  <path class="cls-20" d="m459.91,62.05c.4-.78,1.11-.98,1.91-1.01,0,3.01-.02,6.01-.03,9.02.44,5.78-4.1,5.86-7.86,6.83-2.66.39-1.38,2.75-2.06,4.13-4.88-2.88-5.61-2.58-6.94,3.45-.92,4.16-1.76,8.36-1.8,12.65-4.12,4.93-3.99,10.87-3.97,16.78-.75.03-1.5.06-2.26.09-.82-1.4-.35-3.07-.94-4.51.22-1.83.11-3.64-.28-5.45.35-9.39,3.09-18.32,5.26-27.36.61-2.54,2.54-3.79,5.15-3.96,2.33-.16,4.66-.12,6.98-.11,1.68-.1,3.52.59,4.91-.98,1.47-3.03-.58-6.76,1.92-9.58Z"/>
  <path class="cls-53" d="m397.93,17.08c-.93-1.05-1.02-3.14-3.54-1.49-5.36,3.5-11.21,6.16-17.26,8.24-1.83.63-3.27,1.59-4.39,2.99-2.16,2.72-4.82,3.84-8.24,3.11,5.48-1.46,8.16-6.03,11.39-10.06,2.6-3.25,5.65-6.08,9.49-7.88,5.55-2.6,10.04-1.25,13.59,4.02.42,1.09-.11,1.27-1.04,1.07Z"/>
  <path class="cls-45" d="m335.95,51.07c-1.51-5.75,1.6-9.2,5.98-12.01,1.92-.4,3.61.65,5.44.86,4.08,1.68,5.51,5.22,6.4,9.14-6.3-2.5-12.06-.26-17.83,2.01Z"/>
  <path class="cls-110" d="m443.14,97.12c-1.46-3.14.24-17.24,2.62-19.11,3.82-3.01,4.88.36,6.12,3.01-.08,6.91-3.37,12.07-8.74,16.11Z"/>
  <path class="cls-160" d="m433.02,24.03c-6.75-2.56-11.91,1.75-17.33,4.29-3.86,1.81-7.64,3.68-11.77,4.74-1.32-1.76.67-2.82.9-4.25,2.46-3.47,5.36-5.8,9.99-4.23,1.93.65,2.9-1.23,4.23-2.03,6.03-3.59,9.51-3.26,13.97,1.48Z"/>
  <path class="cls-7" d="m444.38,128.08c-3.35.61-4.24,5.17-8.43,5.09,0-5.14,1.02-10.07,1.73-15.04.54-3.81,1.88-3.04,3.88-1.03,1,1,1.31,2.79,3.15,2.89,1.53,2.76,1.38,5.46-.33,8.09Z"/>
  <path class="cls-172" d="m343.08,187.89c.18.02.36.05.53.1,1.81-1.42,3.85-1.13,5.89-.74,5.82,3.2,6.08,7.54.69,11.17-1.64.66-3.33.61-5.04.35-1.7-.52-3-1.51-3.77-3.15-.84-2.89-.63-5.55,1.7-7.74Z"/>
  <path class="cls-17" d="m465.06,48.5c-.19-1.24.15-2.32,1.09-3.14,7.39-6.47,10.05-15.82,14.61-24.01.54-.97,1.47-2.05.82-3.23-.84-1.53-2.04-.13-3.07-.11-6.36.11-12.29,2.25-18.29,3.98-1.16.33-2.17.72-3.29.09-.22-.18-.3-.36-.23-.54.07-.18.14-.27.22-.27,7.29-2.33,14.67-4.28,22.29-5.12,4.76-.52,5.53.38,3.46,4.43-5.03,9.82-8.38,20.73-17.61,27.92Z"/>
  <path class="cls-118" d="m347.38,39.92c-1.9.28-3.74.17-5.44-.86-1.48-7.06-5.88-8.88-12.03-6.18-4.68,2.05-7.85,4.96-10.06,9.33-.68,1.34-1.66,2.47-3.29,2.74,1.54-4.42,3.78-8.47,6.88-11.98,5.72-6.47,14.31-5.78,18.5,1.76,1.38,2.49,3.09,4.01,5.43,5.19Z"/>
  <path class="cls-44" d="m328.02,194.1c-.12,1.9.49,3.87-1.03,5.77.21-3.08-3.78-5.47-.95-8.97,1.14-3.65-.29-7.49.83-11.14,0-3.32,3.02-3.46,4.83-3.54,2.87-.13,5.49,1.3,6.34,4.57.51,6.31.84,12.62-.18,18.91l-.42.2-.43-.18c-.1-.13-.27-.26-.29-.4-.88-6.77-1.23-6.98-8.7-5.22Z"/>
  <path class="cls-115" d="m291.94,195.93c2.19,2.71,3.34,2.71,8.44.04-.37,2.65-1.11,3.36-4.24,4.25-4.12,1.17-6.3-1.47-8.42-4.24-1.53-2.04-1.85-4.08,0-6.12.89-1.56,1.77-3.3,3.62-3.75,3.3-.8,8.14-1.03,8.72,1.99.53,2.76-3.12,6.04-7.05,6.79-2.02-2.6,1.9-3.27,1.76-5.28-4.62.65-4.99,1.48-2.84,6.32Z"/>
  <path class="cls-162" d="m129.27,178.09c-2.3,4.65-1.94,5.33,4.42,6.53-8.12,1.35-5.9,7.03-5.46,11.08.58,5.35,6.16.2,8.66,3.44-3.22,1.63-6.58.9-9.76.62-1.75-.15-.82-2.17-1.15-3.34-.99-3.58,2.2-7.88-1.88-10.92,3.32-2.08.64-6.16,2.86-8.6.54.84,1.81.26,2.3,1.19Z"/>
  <path class="cls-11" d="m305.1,149.99c1.29.67,2.59,1.35,3.88,2.02-.61,1.4-1.35,2.69-2.74,3.47-6.82,4.14-10.11,11.09-13.93,17.61-.77.46-1.51.48-2.2-.14,1.9-6.8,5.79-12.31,11.05-16.9,1.91-1.67,3.23-3.65,3.95-6.05Z"/>
  <path class="cls-164" d="m295.84,80.26c5.28-1.02,9.42-5.33,15.1-5.23-1.84,3.82-4.25,7.14-8.4,8.68-1.73.64-2.31,2.31-3.59,3.31-1.05-.65.25-2.25-1.12-2.77-.66-1.33-1.32-2.66-1.99-3.99Z"/>
  <path class="cls-143" d="m46.28,193.1c-.86,2.13.35,4.59-1.16,6.92-2.18-1.68-1.09-3.93-1.18-5.78-.18-3.6-.04-7.22-.06-10.83-.01-2.02.43-4.04-2.07-5.38-1.24-.66.24-1.05.92-1.24,2.17-.51,4.35-.5,6.53,0,1.49-.3,2.57.55,3.68,1.31.2.83-.29,1.18-.96,1.42-.44.06-.89.05-1.33-.01-1.24-.17-2.58-.69-3.18,1.05-.16.83-.19,1.66-.19,2.5q-.07,6.28,6.17,6.42c.19.14.37.28.56.42.14,2.18-1.73,2.26-3.05,2.9-1.59-.42-3.18-.91-4.66.31Z"/>
  <path class="cls-47" d="m154.76,187.86c3.43-3,7.88-2.97,10.87.09,2.52,2.57,2.52,7.13.01,9.97-2.9,3.28-6.83,3.31-10.82.06.21-.76.7-1.25,1.45-1.49,2.68-.37,6.71,1.35,7.07-3.07.46-5.57-4.68-3.56-7.5-4.66-.45-.2-.8-.5-1.08-.9Z"/>
  <path class="cls-67" d="m285.52,199.82c-.85-1.33-1.99-1.29-3.24-.67-.84.35-1.32-.04-1.63-.79,2-3.61,2.04-7.23,0-10.84.3-.75.77-1.17,1.62-.78,3.02.02,1.47-2.28,1.62-3.51.25-2.08.06-4.22.06-6.33,1.07-.6,2.38-.3,2.31.76-.49,7.38,1.94,14.87-.73,22.16Z"/>
  <path class="cls-88" d="m349.95,197.98c4.02-4.33,4.02-5.73,0-10.1-.24-.26-.31-.52-.22-.77.09-.25.18-.37.26-.37,4.25-.47,5.48,1.48,5,5.55-.42,3.56.03,7.22-.28,10.8-.18,2.15-1.42,3.99-3.51,5.03-1.14.36-1.43-.16-1.25-1.19,2-1.49,2.9-3.4,2.96-5.97.06-2.6-1.54-1.88-2.9-1.88-.14-.18-.27-.35-.41-.53.12-.19.23-.38.35-.57Z"/>
  <path class="cls-48" d="m176.75,189.94c4.48-5.38,7.36-5.9,12.31-2.21.43.88-.1,1.32-.78,1.69-1.5.4-2.96-.18-4.45-.16-2.54.04-4.32,1.12-4.18,3.81.13,2.74,1.77,4.2,4.66,3.92,1.32-.13,2.6-.61,3.95-.44.7.32,1.29.69.81,1.6-5.68,3.49-7.93,3.08-12.31-2.23-.43-2-.43-3.99,0-5.99Z"/>
  <path class="cls-24" d="m297.04,90c2.35-1.01,2.29.62,2.32,2.13.04,2.07-.06,4.21,2.59,4.89,1.6,2.76.61,6.2,2.39,8.9.85,1.15,1.79,2.23,2.44,3.51.79,1.62.69,3.23-.03,4.84-.24.42-.58.74-1.03.93-6.41-7.19-5.7-16.82-8.68-25.19Z"/>
  <path class="cls-87" d="m420.91,209.03c-2.14-7.07-.6-14.31-.73-21.46-.02-1.24,3.41-.04,4.74-1.55.33.33.53.73.6,1.2-.02.47-.14.91-.33,1.34-2.28,2.92-2.26,5.83.02,8.74.2.42.31.87.33,1.34-.07.47-.28.87-.61,1.2-1-.31-2-.62-3.01-.92-1.41,3.26.39,6.84-1.01,10.1Z"/>
  <path class="cls-98" d="m460.91,199.89c-6.88-4.23-6.88-9.68,0-13.9.34.34.54.75.6,1.22-.02.46-.14.91-.33,1.33-.59,1.3-1.8,2.36-1.51,4.37,2.18,0,3.19-2.79,5.39-2.44.7.27,1.26.62.87,1.51-1.12,2.44-4.51,2.96-5,5.92.31.27.5.6.56,1-.07.4-.26.73-.58.99Z"/>
  <path class="cls-126" d="m173.4,199.73v-22.78l.94-.04v22.8l-.94.02Z"/>
  <path class="cls-127" d="m316.51,199.65v-22.55c1.98,7.47,1.3,15.03,1.56,22.56-.52,0-1.04,0-1.56,0Z"/>
  <path class="cls-1" d="m291.94,195.93c-2.91-.32-3.39-2.06-2.62-4.52,1.44-4.63,4.92-3.52,8.38-3.19-.42,3.27-4.63,3.5-4.68,6.67-.36.35-.72.69-1.08,1.04Z"/>
  <path class="cls-113" d="m71.99,185.99c3.94-1.01,7.24-.21,9.23,3.6,1.53,2.92,1.24,5.91-1.09,8.2-2.18,2.14-4.73,4.18-8.14,2.08-.24-.26-.33-.53-.26-.8.07-.28.14-.41.22-.41,1.28-1.05,3.1-.72,4.4-1.7,2.98-2.71,2.87-5.4-.02-8.08-1.3-.97-3.1-.64-4.37-1.68-.31-.42-.29-.82.04-1.21Z"/>
  <path class="cls-138" d="m453.9,177.2v22.33c-.32,0-.65,0-.97.01v-22.27c.32-.02.65-.05.97-.07Z"/>
  <path class="cls-116" d="m223.04,199.04c-3.44,3.07-6.22,1.02-8.45-1.5-2.49-2.81-2.48-6.22-.09-9.13,2.26-2.76,5.13-4.13,8.54-1.59-.13.18-.26.35-.39.53-1.28.87-3,.58-4.2,1.63-2.58,2.65-3.07,5.3-.03,7.95,1.24.99,2.95.73,4.23,1.58.13.18.26.36.39.54Z"/>
  <path class="cls-43" d="m227.9,206.91c.57.51,1.66,1.08,1.61,1.52-.1.86-1.16.93-1.98.94-.95.01-1.58-.41-1.59-1.43-.03-2.14-.21-4.31,0-6.43.25-2.47-1.05-2.69-2.9-2.46,0,0-.09-.16-.09-.16-.32-.37-.41-.8-.29-1.27,2.27-3.12,2.28-6.23,0-9.35-.13-.48-.01-.9.3-1.28,0,0,.1-.17.1-.17,1.3.13,2.6.25,3.9.38,1.12,4.74.18,9.56.51,14.33.12,1.8-.44,3.65.45,5.38Z"/>
  <path class="cls-154" d="m440.92,185.97c5.95-.69,9.51,1.4,10.01,5.87.43,3.88-3.13,8.19-7.34,9.01-1.16.23-1.83-.47-2.66-.94-.25-.26-.35-.52-.28-.8.06-.28.14-.42.21-.42,1.27-1.07,3.08-.74,4.39-1.69,3.07-2.73,2.96-5.44-.02-8.13-1.31-.94-3.1-.62-4.37-1.67-.29-.43-.28-.83.07-1.22Z"/>
  <path class="cls-113" d="m247.08,197.25c2.46,2.05,4.61.86,6.69-.69.7-.52,1.43-1.06,2.04-.08.53.86-.04,1.63-.75,2.08-2.92,1.82-6.22,2.96-9.15.72-3.46-2.65-4.35-6.34-1.96-10.37.87.45,1.32,1.24,1.67,2.09.5,1.49.1,3.35,1.8,4.36.1.68-.12,1.29-.35,1.9Z"/>
  <path class="cls-3" d="m257.67,106.94c-2.71,3.62-5.2,7.45-9.85,10.65,1.21-5.94,4.53-9.37,8.12-12.61.58.65,1.15,1.31,1.73,1.96Z"/>
  <path class="cls-151" d="m84.9,205.88c-2.9,4.59-4.62,4.96-8.91,1.65,2.27-1.13,5.77,1.5,6.77-1.85.68-2.3.29-4.9.51-7.35.37-4.03-.88-8.15.74-12.1,1.3,6.51-.4,13.15.89,19.66Z"/>
  <path class="cls-136" d="m424.92,199.85c.02-.32.03-.64.05-.96,1.15-1.24,2.94-1.03,4.25-1.88,3.35-2.73,3.26-5.45-.02-8.15-1.31-.84-3.08-.64-4.22-1.86-.02-.32-.04-.65-.06-.97,3.51-.94,6.63-.43,8.81,2.72,1.62,2.35,1.93,4.99.46,7.49-2.09,3.55-5.32,4.59-9.27,3.61Z"/>
  <path class="cls-41" d="m404.82,28.81c-.3,1.42-.6,2.84-.9,4.25-.67.34-1.33.69-2,1.03-.82.58-1.61.55-2.38-.1-1.16-3.25-2.62-6.48-.62-9.92,1.58-2.6-.41-4.7-1-6.99.35-.36.69-.71,1.04-1.07,1.46,1.35,1.71,3.22,2.13,5.02.68,2.74.12,5.53.33,8.29.06.85-.29,2.15,1.41,1.67.66-.72,1.33-1.45,1.99-2.17Z"/>
  <path class="cls-144" d="m357.71,201.23c-1.42-5.39-1.32-9.59-.55-13.39.37-1.85,3.88-2.76,7.54-1.39-9.01,1.77-4.38,8.9-6.98,14.77Z"/>
  <path class="cls-34" d="m386.89,199.14c-1.93-.02-3.37-.25-3.23-2.91.24-4.41.12-8.84.05-13.26-.02-1.41.35-2.85-.58-4.25-2.03-3.1.48-1.87,1.79-1.75,1.44,3.3-.53,6.97,1.12,10.24.45.17.84.44,1.14.82-.72,3.34-.97,6.66.37,9.92-.08.47-.31.87-.66,1.19Z"/>
  <path class="cls-18" d="m310.94,114c.84,3.9-1.65,6.37-3.85,8.96-.46-2.59-.92-5.18-1.37-7.77,0,0,.31-.32.31-.32.79-1.53,2.06-2.02,3.7-1.69.46.18.86.45,1.21.81Z"/>
  <path class="cls-42" d="m91.15,197.36c.28.21.56.42.84.63,1.44.94,3.09.17,4.6.54.16.16.32.32.47.49-3.1,2.84-5.91,1.23-8.08-1.04-2.99-3.12-3.06-6.7-.07-10.08.9-.45,1.29.11,1.6.82.15,2.44-.67,5.01.86,7.29,0,.46-.06.92-.21,1.35Z"/>
  <path class="cls-101" d="m232.13,196.65c2.71,3.28,4.91,1.87,6.98-.76,1.05-3.2-.43-6.62.85-9.8,2.92,5.49,1.59,12.67-2.7,13.87-2.36.66-4.93,1.03-6.16-2.08.24-.49.32-1.12,1.02-1.22Z"/>
  <path class="cls-171" d="m285.52,199.82c1-7.01.24-14.06.44-21.09.04-1.4-.44-2.22-2.02-1.83,2.65-1.83,2.82-.04,3.02,1.98.36,3.66-.93,7.43.77,10.99-1,2.04.06,4.08,0,6.12-1.39.9-.02,3.39-2.21,3.83Z"/>
  <path class="cls-99" d="m71.99,185.99c.02.33.04.67.06,1,.28.39.37.82.23,1.29-2.27,3.09-2.27,6.19,0,9.28.13.47.05.9-.24,1.29-.02.34-.04.68-.06,1.02-6.91-4.14-6.91-9.75,0-13.88Z"/>
  <path class="cls-71" d="m105.97,181.97c3.56,5.87-.16,11.74.01,17.6-1.57-3.72.82-7.9-1.36-11.55-.88-.24-2.33.23-2.41-1.12-.09-1.57,1.38-.91,2.23-1.09,2.04-.68.33-2.84,1.53-3.85Z"/>
  <path class="cls-86" d="m440.98,198.86c-.02.35-.04.69-.06,1.04-6.91-4.13-6.91-9.82,0-13.94.02.34.04.68.06,1.02.29.39.36.82.23,1.29-2.27,3.09-2.28,6.19,0,9.29.13.47.06.9-.23,1.29Z"/>
  <path class="cls-147" d="m139.12,189.99c3.55-5.41,7.59-6.06,12.01-1.11-4.88-2.11-8.92-2.01-11.04,3.25-.93-.44-.38-1.55-.97-2.14Z"/>
  <path class="cls-16" d="m305.9,127.97l2.4,1.16c.77,3.43.46,6.41-3.28,7.99-.61-1.2-1.72-1.12-2.81-1.12.98-2.79,1.9-5.61,3.69-8.03Z"/>
  <path class="cls-99" d="m274.6,199.12c-5.11-4.45-5.11-8,.02-12.37.84-.4,1.31,0,1.63.75-2.02,3.62-2,7.24,0,10.86-.32.75-.81,1.13-1.65.76Z"/>
  <path class="cls-13" d="m401.85,199.91c-.81-.04-1.76-.03-1.77-1.13-.05-3.9-.05-7.79,0-11.69.01-1.1.96-1.09,1.77-1.13,1.24,4.65,1.23,9.3,0,13.95Z"/>
  <path class="cls-147" d="m405.93,187.24c5.92-2.99,8.59-2.37,11.88,2.75-.37.76-.05,1.92-1.26,2.2-2.74-2.03-5.59-3.7-9.22-2.81-1.07-.32-1.5-1.06-1.39-2.14Z"/>
  <path class="cls-145" d="m417.8,195.88c-3.56,5.59-7.53,6.28-11.99,2.08.3-.36.67-.62,1.11-.77,3.8.45,6.77-1.4,9.64-3.52,1.2.29.88,1.44,1.25,2.2Z"/>
  <path class="cls-85" d="m244.94,187.94c2.74-3.26,6.01-3.05,9.33-1.21,2.64,1.46,2.13,2.98-.32,4.21-.68-.08-1.23-.44-1.72-.88-1.77-2-3.97-.56-5.97-.72-.71-.21-1.15-.68-1.32-1.4Z"/>
  <path class="cls-145" d="m386.87,186.77c5.71-2.28,7.83-1.65,10.95,3.21-.37.79-.04,2.04-1.4,2.2-2.58-2.63-6.34-2.59-9.39-4.17l-.19-.08c-.3-.26-.4-.52-.29-.78.11-.25.21-.38.31-.38Z"/>
  <path class="cls-50" d="m154.76,187.86c.46.05.92.09,1.38.14.79,3.05.52,6.08-.2,9.09-.37.3-.74.59-1.11.89-3.37-3.35-3.27-6.73-.06-10.12Z"/>
  <path class="cls-148" d="m386.89,199.14c.04-.46.09-.92.13-1.39,3.25-.66,6.43-1.56,9.37-3.17.81.06,1.2.6,1.43,1.3-3.13,4.96-5.67,5.72-10.93,3.25Z"/>
  <path class="cls-148" d="m366.03,189.97c3.39-5.23,6.72-5.91,10.95-2.24.25.24.35.51.32.79-.04.29-.09.44-.16.44-3.33.28-6.71.39-9.65,2.31-.83-.06-1.22-.6-1.46-1.3Z"/>
  <path class="cls-95" d="m205.76,199.21c-3.76.57-7.73,3.19-10.96-1.17.19-.78.69-1.27,1.44-1.52,2.65.13,5.3-.08,7.96,0,.99.63,2.61.89,1.57,2.69Z"/>
  <path class="cls-86" d="m193.32,205.03c4.59,2.06,7.9,2.26,11.47,1.24-3.8,4.77-6.74,4.7-11.47-1.24Z"/>
  <path class="cls-131" d="m232.13,196.65c-.34.41-.68.81-1.02,1.22-2.42-3.81-.66-7.81-.58-11.75,2.29,3.28.8,7.07,1.6,10.53Z"/>
  <path class="cls-66" d="m147.03,200.1c-3.85.86-6.38-.77-7.91-4.24.59-.59.04-1.7.97-2.13,1.47,3.53,4.01,5.11,7.86,4.36.54,1.06-.56,1.36-.92,2.01Z"/>
  <path class="cls-62" d="m117.95,39.15c-4.31,1.48-8.62,1.46-12.94.02,4.31-1.18,8.62-1.53,12.94-.02Z"/>
  <path class="cls-49" d="m194.81,187.86c3.42-3.64,6.93-3.06,10.48-.21-.1.8-.6,1.29-1.28,1.64-2.59.12-5.18-.07-7.78.07-.74-.25-1.23-.73-1.42-1.5Z"/>
  <path class="cls-65" d="m377.9,197.69c-4.81,4.14-8.41,3.59-11.87-1.81.24-.69.62-1.23,1.45-1.24,2.78,2.16,5.83,2.88,9.24,1.71.71.17,1.33.42,1.18,1.34Z"/>
  <path class="cls-140" d="m349.94,206.93c.42.4.83.79,1.25,1.19-3.5,2.43-6.54,1.95-9.97-1.86,3.51-.07,6.07,1.59,8.72.67Z"/>
  <path class="cls-152" d="m407.06,197.88c-.42.03-.83.06-1.25.09-1.62-.4-1.58-2.36-2.88-3.06-.74-1.31-.74-2.63,0-3.94.66-.7,1.31-1.4,1.97-2.09.97.52,1.46,1.39,1.83,2.37.36,2.2,1.5,4.36.33,6.64Z"/>
  <path class="cls-134" d="m84.9,205.88c-1.88-6.48-.34-13.11-.89-19.66,2.15.58,1.22,2.37,1.22,3.58,0,5.36-.2,10.72-.33,16.08Z"/>
  <path class="cls-40" d="m227.9,206.91c-2.15-6.48-.34-13.16-.95-19.72,2.24,3.94.55,8.2.98,12.29.26,2.45,0,4.95-.02,7.43Z"/>
  <path class="cls-142" d="m205.76,199.21c-.62-.79-1.23-1.59-1.85-2.38.06-1.91,1.05-2.56,2.85-2.1,1.21,2.48.78,5.02.3,7.56.12.96.37,2.17-.79,2.47-1.57.4-1.26-1-1.29-1.87-.04-1.28-.27-2.62.78-3.68Z"/>
  <path class="cls-48" d="m187.95,188.94c.37-.41.74-.81,1.11-1.22,3.21,3.48,3.19,6.95,0,10.43-.3-.41-.6-.81-.9-1.22-1-2.64-.78-5.31-.21-7.99Z"/>
  <path class="cls-82" d="m337.86,199.7c.06-6.3.12-12.61.18-18.91.93,6.31,1.33,12.62-.18,18.91Z"/>
  <path class="cls-130" d="m465.93,191.97c-.31-.34-.62-.68-.94-1.02-.91-.76.69-1.86-.39-2.59-1.24-.42-2.65-.34-3.61-1.4-.02-.33-.05-.66-.09-.99,1.13-.12,2.26-.37,3.38-.34,2.06.06,4.33.81,4.87,2.66.56,1.92-1.73,2.77-3.23,3.67Z"/>
  <path class="cls-105" d="m108.94,91.19c-3.3,1.32-6.61,1.34-9.91-.01,3.3-1.46,6.61-1.62,9.91.01Z"/>
  <path class="cls-125" d="m453.93,76.89c.58-.54,1.19-1.58,1.73-1.54,3.9.28,5.31-2.11,6.12-5.29.13,6.32-.58,6.94-7.86,6.83Z"/>
  <path class="cls-61" d="m69.1,40.09c1.4,3.65,1.47,7.3-.05,10.94-1.26-3.65-1.09-7.3.05-10.94Z"/>
  <path class="cls-19" d="m343.08,187.89c-.44,2.54-1.82,4.97-.94,7.68.5,1.08-.15,1.26-1.01,1.29-1.67-3.49-2.89-6.88,1.94-8.97Z"/>
  <path class="cls-89" d="m207.06,202.29c-.67-2.46,1.1-5.39-1.46-7.48-.33-1.2.05-2.39.07-3.58.04-1.5.33-2.93,1.29-4.14,1.12,5.06.87,10.13.1,15.21Z"/>
  <path class="cls-135" d="m56.08,181.9c1.34,3.19,2.22,6.27-2.09,7.98,0,0,.03.09.03.09-1.45-2.75-.45-5.33.58-7.9.44-.46.94-.51,1.48-.17Z"/>
  <path class="cls-102" d="m252.83,189.89c.38.35.75.69,1.13,1.04-2.29,2.1-4.58,4.21-6.88,6.31-.04-.78-.08-1.55-.13-2.33.81-3.02,2.84-4.62,5.88-5.03Z"/>
  <path class="cls-105" d="m128.84,57.01c-1.42-3.29-1.32-6.59-.07-9.9,1.63,3.29,1.43,6.59.07,9.9Z"/>
  <path class="cls-37" d="m274.6,199.12c.45-.38.89-.75,1.34-1.13,1.68-1.5,3.36-1.51,5.03.02.44.38.87.75,1.31,1.13-2.57,1.96-5.12,1.9-7.68-.03Z"/>
  <path class="cls-82" d="m328.02,194.1c6.7-3.32,8.96-1.91,8.99,5.62-.56-5.77-3.76-7.31-8.99-5.62Z"/>
  <path class="cls-62" d="m228.95,81.05c-2.96,1.61-5.95,1.44-8.95.12,2.97-1.1,5.94-1.59,8.95-.12Z"/>
  <path class="cls-86" d="m460.91,199.89c.04-.34.07-.67.11-1.01,1.49-1.07,3.4.21,4.88-.9,1.22-.47,1.66-2.6,3.57-1.73-2.05,3.99-2.22,4.06-8.56,3.64Z"/>
  <path class="cls-112" d="m377.9,197.69c-.34-.26-.68-.52-1.02-.77-.8-1.98-.15-3.87.39-5.76.37-.7.92-1.17,1.71-1.34,1.87,2.93,1.86,5.6-1.08,7.87Z"/>
  <path class="cls-139" d="m210.45,186.25c1.03,4.43,1.11,8.86,0,13.3-1.12-4.43-.98-8.86,0-13.3Z"/>
  <path class="cls-100" d="m60.96,187.88c-1.26,2.65-.23,5.47-.64,8.17-.18,1.22,1.01,3.06-1.31,3.52-.81-4.18-.79-8.36,0-12.55.68.31,1.37.62,2.05.94l-.09-.08Z"/>
  <path class="cls-64" d="m183.96,81.04c-2.67,1.51-5.34,1.54-8-.02,2.67-1.13,5.34-1.26,8,.02Z"/>
  <path class="cls-141" d="m341.14,196.86c.34-.43.67-.86,1.01-1.29.94.82,1.88,1.63,2.82,2.45,1.53,1.03,3.45-.19,4.98.85,0,0,.07.21.07.21-3.87,2.93-6.53.99-8.87-2.21Z"/>
  <path class="cls-4" d="m402.93,190.96c0,1.31,0,2.63,0,3.94-.27,1.69.72,3.65-1.08,5.01,0-4.65,0-9.3,0-13.95,1.81,1.35.81,3.32,1.09,5Z"/>
  <path class="cls-73" d="m402.83,30.98c-.36.5-.64,1.32-1.09,1.42-.86.19-.82-.64-.81-1.26.05-3.37.11-6.75.16-10.12,2.32,3.01-.37,6.9,1.74,9.95Z"/>
  <path class="cls-121" d="m275.94,187.88c-.44-.38-.88-.75-1.32-1.13,2.54-1.76,5.09-1.82,7.64-.02-.43.37-.86.75-1.3,1.12-1.67,1.52-3.34,1.51-5.02.02Z"/>
  <path class="cls-97" d="m91.15,197.36c-.11-.64-.22-1.28-.33-1.92.76-2.84,2.39-4.71,5.5-4.95.21.13.41.26.62.39-.63,3.31-3.94,4.24-5.79,6.48Z"/>
  <path class="cls-137" d="m59,187.02c0,4.18,0,8.37,0,12.55-1-4.18-1.03-8.36,0-12.55Z"/>
  <path class="cls-146" d="m349.98,186.74c-.01.38-.02.76-.04,1.15-2.11.04-4.22.07-6.33.11,1.48-3.65,3.84-2.89,6.37-1.26Z"/>
  <path class="cls-31" d="m194.81,187.86c.37.29.74.58,1.12.86.06,2.19-.61,4.18-1.59,6.1-.39.34-.82.39-1.27.11-2.13-3.02-.3-5.07,1.74-7.07Z"/>
  <path class="cls-96" d="m96.92,186.11c1.54.51,3.33,1.03,3.03,3.03-.2,1.34-1.57,1.91-3.02,1.74,0,0,.08.09.08.09-.49-1.39-1.56-2.43-2.28-3.68.33-1.14,1.54-.63,2.19-1.18Z"/>
  <path class="cls-124" d="m386.87,186.77c0,.38-.02.77-.03,1.15-3.26-.73-1.69-3.35-1.91-5.17-.23-1.91-.03-3.87-.01-5.81,2.59,2.89-.9,6.98,1.95,9.82Z"/>
  <path class="cls-133" d="m104.63,188.03c2.89,3.56.59,7.73,1.36,11.55-2.9-3.56-.39-7.76-1.36-11.55Z"/>
  <path class="cls-142" d="m206.96,187.08c.01,1.43.02,2.86.04,4.29-.24,1.07-.99,1.18-1.77.75-1.27-.69-1.74-1.79-1.25-3.21.44-.42.88-.84,1.31-1.26.54-.26.85-1.15,1.67-.57Z"/>
  <path class="cls-168" d="m86.94,136.96c-.73,2.08-2.56,2.42-4.64,3.12.33-1.96,1.26-3.13,2.26-4.26.79.38,1.59.76,2.38,1.14Z"/>
  <path class="cls-63" d="m116.96,143.01c1.95-1.58,3.95-1.47,5.98-.15-1.97.93-3.94,1.74-5.98.15Z"/>
  <path class="cls-94" d="m61.05,187.96c.16-4.26,2.86-1.45,4.27-2.21-.85,2.47-2.69,2.06-4.37,2.13,0,0,.09.08.09.08Z"/>
  <path class="cls-10" d="m456.92,21.27c0,.27,0,.54,0,.81-1.34.67-2.67,1.33-4.01,2-1.25.46-2.61,1.3-2.99-.96.42-.07.83-.13,1.25-.2,1.91-.55,3.83-1.1,5.74-1.65Z"/>
  <path class="cls-103" d="m326.87,179.76c-.35,3.71,1.08,7.55-.83,11.14.31-3.71-1-7.55.83-11.14Z"/>
  <path class="cls-108" d="m260,141.78c2-1.21,3.98-1.34,5.93.12-2,1.2-3.99,1.66-5.93-.12Z"/>
  <path class="cls-22" d="m420.91,209.03c.49-3.35-1.01-6.9,1.01-10.1-.51,3.35,1.33,6.94-1.01,10.1Z"/>
  <path class="cls-34" d="m367.14,194.63c-.37.42-.73.83-1.1,1.25-1.17-1.97-1.15-3.94,0-5.91.37.42.74.85,1.11,1.27.85,1.13.85,2.26,0,3.39Z"/>
  <path class="cls-31" d="m397.82,195.88c-.38-.43-.75-.87-1.13-1.3-.59-.89-.58-1.74.17-2.54.32-.69.64-1.38.96-2.06,1.13,1.97,1.13,3.93,0,5.9Z"/>
  <path class="cls-32" d="m417.8,195.88c-.31-.68-.63-1.37-.94-2.05-.54-.6-.54-1.19,0-1.79.31-.68.63-1.37.94-2.05,1.1,1.96,1.1,3.93,0,5.89Z"/>
  <path class="cls-123" d="m239.97,186.09c-.39,3.26.87,6.66-.85,9.8.34-3.26-1.02-6.67.85-9.8Z"/>
  <path class="cls-64" d="m293.21,82.8c-2.12.03-4.36,1.01-6.26-.77,2.26-1.17,4.4-1.37,6.26.77Z"/>
  <path class="cls-138" d="m129.27,178.09c-.9-.15-1.82-.25-2.3-1.19,2.96-.49,5.88-.43,8.77.39-2.08,1.47-4.28,1.08-6.47.8Z"/>
  <path class="cls-46" d="m56.08,181.9c-.46.04-.91.07-1.37.11-1.95-.02-2.95-.98-2.91-2.96.38-.32.76-.64,1.13-.96,2,.49,2.98,1.81,3.15,3.81Z"/>
  <path class="cls-153" d="m290.1,172.94c.73.05,1.47.1,2.2.14-.49,1.94-.98,3.87-1.47,5.81-2.35-.41-1.14-1.94-.98-3.13.08-.94.16-1.88.25-2.82Z"/>
  <path class="cls-114" d="m289.85,175.76c.28,1.06-.17,2.34.98,3.13.03.79.28,1.79-.61,2.14-.55.22-1.22-.31-1.24-1.08-.04-1.46-.06-2.93.87-4.19Z"/>
  <path class="cls-25" d="m93.01,80.92c2.67-1.34,5.32-1.45,7.96.08-2.66.68-5.31.59-7.96-.08Z"/>
  <path class="cls-28" d="m140.09,193.73c-.32.71-.65,1.42-.97,2.13-1-1.96-.99-3.92,0-5.87.32.71.65,1.43.97,2.14,0,.53,0,1.07,0,1.6Z"/>
  <path class="cls-54" d="m131.91,171.81c.84-.93,1.63-2,3.13-1.41.22.09.5.61.43.79-.63,1.52-2.06,1.71-3.45,1.93-.44-.4-.48-.84-.1-1.3Z"/>
  <path class="cls-16" d="m302.19,139.96c1.94.53,3.94.97,4.68,3.23-1.69-.89-3.77-1.21-4.68-3.23Z"/>
  <path class="cls-84" d="m90.04,189.07c-.38-.39-.75-.79-1.13-1.18.82-.99,1.73-1.82,3.12-1.86.62.64,1.95.11,2.23,1.33-.89,1.83-2.4,2.15-4.21,1.7Z"/>
  <path class="cls-8" d="m40.09,121.02c1.38,2.31,1.37,4.62.01,6.94-.4-2.31-.41-4.63-.01-6.94Z"/>
  <path class="cls-104" d="m147.03,200.1c.31-.67.61-1.34.92-2.01.91-.43,2.38-2.05,2.68-.62.41,2.01-1.98,2.24-3.59,2.63Z"/>
  <path class="cls-60" d="m137.67,86.82c.86,2.01-1.1,1.25-1.41,1.12-.67-.29-2.58,1.29-1.98-1.12,1.13,0,2.26,0,3.39,0Z"/>
  <path class="cls-30" d="m96.99,197.96c.99-.7,1.63-2,3.52-2.05-.31,2.31-1.33,3.28-3.44,3.1l-.11-.11c-.31-.22-.41-.43-.3-.64.11-.2.22-.3.33-.3Z"/>
  <path class="cls-60" d="m293.92,87.01c-1.47-1.2-.89-2.77-.75-4.26,1.61,1.18,1.67,2.63.75,4.26Z"/>
  <path class="cls-39" d="m405.76,190.9c-.29-.68-.58-1.36-.86-2.04.3-.57-.12-1.6,1.03-1.63.33.57.67,1.15,1,1.72.42,1.13-.15,1.67-1.16,1.95Z"/>
  <path class="cls-169" d="m176.75,189.94c0,2,0,3.99,0,5.99-1.3-2-1.3-3.99,0-5.99Z"/>
  <path class="cls-31" d="m46.28,193.1c1.4-2.38,3.05-1.04,4.66-.31-1.55.1-3.11.21-4.66.31Z"/>
  <path class="cls-27" d="m65.01,166.96c1.37,1.34,1.38,2.67-.02,3.99-1.1-1.34-.42-2.66.02-3.99Z"/>
  <path class="cls-92" d="m131.91,171.81c.03.43.07.87.1,1.3-.71,1.03-1.68,1.38-3.19,1.17.29-1.9,1.79-2.08,3.09-2.47Z"/>
  <path class="cls-34" d="m193.06,194.93c.33-.01.67-.02,1-.03,1.67-.13,1.79,1.02,1.84,2.23-.37.3-.74.61-1.12.91-1.09-.75-2.18-1.5-1.73-3.11Z"/>
  <path class="cls-58" d="m49.26,176.78c-2.17,0-4.35,0-6.52,0,2.17-.9,4.35-.86,6.52,0Z"/>
  <path class="cls-9" d="m297.83,84.25c.09-.31.1-.69.29-.91.42-.49.77-.29.79.29.05,1.13.03,2.26.04,3.39-.66.88-.91.21-1.2-.31.03-.82.05-1.64.08-2.45Z"/>
  <path class="cls-39" d="m378.98,189.82c-.31.36-.61.73-.92,1.09-.97-.25-1.46-.81-1.19-1.85.04-.44.07-.88.11-1.32,1.16.22,2.03.71,2,2.08Z"/>
  <path class="cls-38" d="m244.94,187.94c.34.34.68.68,1.02,1.02.42,1.13-.15,1.67-1.16,1.95-.28-.67-.57-1.34-.85-2.01.33-.32.66-.64.99-.96Z"/>
  <path class="cls-157" d="m166.32,144.15c-.77-.13-1.53-.26-3.11-.53,2.16-.74,3.47-1.08,4.71.22-.54.1-1.07.21-1.61.31Z"/>
  <path class="cls-157" d="m211.3,144.14c-.76-.13-1.53-.25-3.14-.51,2.2-.75,3.51-1.08,4.76.2-.54.1-1.08.21-1.62.31Z"/>
  <path class="cls-55" d="m54.01,147.91c1.63-1.41,3.28-1.36,4.95-.07-1.64.51-3.29.58-4.95.07Z"/>
  <path class="cls-93" d="m105.97,181.97c-.2,1.41.62,3.22-1.53,3.85,1-1.09-1.12-3.41,1.53-3.85Z"/>
  <path class="cls-107" d="m156.9,121.97c-1.09-.79-.94-1.95-.9-3.06.01-.36-.09-1.08.59-.81.3.12.38.8.56,1.23-.08.88-.16,1.77-.24,2.65Z"/>
  <path class="cls-62" d="m201.91,120.98c-1.29-1.1-1.05-2.47-.52-4.69.34,1.47.52,2.21.69,2.96-.06.58-.12,1.16-.18,1.73Z"/>
  <path class="cls-35" d="m94.19,187.08c-.72-.35-1.44-.7-2.16-1.04,1.64-.58,3.27-.55,4.9.08-.72.32-1.44.63-2.15.95-.19,0-.39.01-.58.02Z"/>
  <path class="cls-55" d="m193.85,95.98c-1.31-1.65-1.33-3.3.02-4.93.56,1.65.52,3.29-.02,4.93Z"/>
  <path class="cls-107" d="m208.98,113.94c1.66-1.4,3.31-1.41,4.97,0-1.66,0-3.31,0-4.97,0Z"/>
  <path class="cls-120" d="m96.99,197.96c-.02.31-.03.63-.03.94-1.69-.14-3.56.75-4.96-.91,1.66,0,3.33-.02,4.99-.03Z"/>
  <path class="cls-63" d="m163.99,113.94c1.66-1.39,3.31-1.4,4.97.01-1.66,0-3.31,0-4.97-.01Z"/>
  <path class="cls-36" d="m465.9,197.98c-1.39,1.58-3.22.77-4.88.9-.05-.33-.08-.65-.09-.98,1.66.03,3.31.06,4.97.08Z"/>
  <path class="cls-62" d="m41.05,113.02c1.27,1.12,1.07,2.48.64,3.99-1.12-.55-.49-1.64-.87-2.34.08-.55.15-1.11.23-1.66Z"/>
  <path class="cls-91" d="m211.62,181.37c-.45.38-.81.93-1.14.91-.34-.02-.91-.59-.9-.91,0-.35.55-.92.89-.94.33-.02.69.54,1.14.94Z"/>
  <path class="cls-150" d="m95.39,73.13c-3.76-.31-8.55-2.4-12.11-7.04-1.1-1.43-1.44-2.38.24-3.64,5.61-4.23,11.35-8.23,18.29-9.92,4.46-1.08,8.77-.67,11.54,3.61,2.17,3.36.65,8.27-3.38,11.98-3.56,3.28-7.7,5.19-14.57,5.01Z"/>
  <path class="cls-174" d="m162.87,108.43c-2.07.36-2.31-1.21-.73-4.06,2.91-5.22,6.63-9.6,12.36-11.83,2.65-1.03,5.31-1.16,7.18,1.49,1.88,2.67.83,5.18-1.07,7.25-4.29,4.67-9.86,6.57-17.74,7.15Z"/>
  <path class="cls-174" d="m205.61,107.97c2.89-7.35,7-12.53,13.66-15.36,2.6-1.11,5.32-1.32,7.23,1.27,2.07,2.81.97,5.5-1.18,7.62-5.28,5.2-11.67,7.34-19.71,6.47Z"/>
  <path class="cls-62" d="m162.13,109.64c1.33-.67,2.58-.83,3.92-.23-1.36,1.18-2.71.23-3.92.23Z"/>
  <path class="cls-62" d="m206.77,109.46c1.54-.58,2.88-.7,4.39.11-1.55.59-2.88.71-4.39-.11Z"/>
  <path class="cls-157" d="m95.47,74.67c1.51-.79,2.52-.79,3.61-.22-.94.94-1.95.57-3.61.22Z"/>
  <path class="cls-17" d="m449.93,23.12c.74,1.13,1.9.92,2.99.96-13.92,6.6-27.82,13.22-41.78,19.74-1.55.72-3.46.78-2.21,3.23-2.74-.24-5.39.2-8,1-1.64,1.39-3.72,1.68-4.76-.1-1.03-1.78,1.05-2.92,2.42-3.73,4.44-2.62,9.4-4.17,14.02-6.43,11.03-5.4,22.4-10.06,33.39-15.53.6-.3,1.25-.42,1.92-.18.43.81,1.2.98,2.01,1.04Z"/>
  <path class="cls-70" d="m461.9,29.02c1.53-2.05,3.57-3.31,6.01-3.96.29.23.38.45.28.68-.1.22-.19.34-.29.34-2,1.33-4,2.66-6,3.98-.35-.23-.46-.46-.35-.69.11-.23.23-.35.34-.35Z"/>
  <path class="cls-21" d="m467.91,26.07c0-.34,0-.68,0-1.02.83-1.79,2.42-2.29,4.48-2.09-1.5,1.04-2.99,2.07-4.49,3.11Z"/>
  <path class="cls-51" d="m461.9,29.02c0,.35,0,.69,0,1.04-1.01.02-1.91,2.21-2.52.91-.6-1.27,1.27-1.74,2.51-1.95Z"/>
  <path class="cls-168" d="m403.04,100.98c-.02,1.01-.03,2.03-.05,3.04.48,3.57,1.01,7.14-.23,10.68-1,4.93-.56,9.92-.43,14.87.09,3.38-.64,5.13-4.35,5.67-4.75.68-9.39,2.08-14.07,3.18q-6.1,1.44-6.04-4.46c-.46-.64-.56-1.24.17-1.77,1.02-1.97.82-4.13.91-6.24-4.36-2.88-9.4-1.67-10.48,3.43-1.22,5.76-4.8,6.92-9.53,7.31-.66.06-1.33.08-1.99.12-2.17.12-4.67,1.92-6.34-.85-1.52-2.53-.82-5.13.37-7.62,2.93-6.15,4.54-12.8,7.08-19.1,1.04-2.59,1.93-5.76-.56-8.4-.13-1.12.02-2.03,1.43-2.1,5.21-12.23,8.36-25.11,11.82-37.88,1.04-3.83,2.71-5.4,6.53-5.87,5.59-.69,11.11-1.97,16.67-2.99.68-.59,1.25-1.32,2.14-1.63,1.07-.38,2.18-.44,3.3-.46.88-.05,1.73.17,2.6.27,1.91.97,4.27-1.07,6.02.9.44.63.6,1.22-.23,1.68-1.06,1.89-.93,3.96-.93,6.02-.76,2.01-.49,4.03-.07,6.05.1.77.09,1.55-.03,2.32-.49,1.98-1.18,3.91-1.72,5.87-.06,1.17-.12,2.33-.18,3.5-1,2.42.14,5.07-.8,7.49-.07,1.53-.14,3.07-.21,4.6-1.12,4.07.26,8.3-.78,12.38Z"/>
  <path class="cls-168" d="m358.2,101.01c.63.9,2.64-.21,2.2,2.62-1.39,8.92-5.24,16.91-8.42,25.16-.75,1.93-1.26,3.78-.93,5.79.21,1.24.99,2.56,2.29,1.93,3.59-1.74,7.46-1.29,11.19-1.89,2.02-.33,1.49-2.07,1.63-3.15.65-4.72,3.36-7.2,7.8-8.58,3.24-1.01,4.83-.42,4.98,3.07-7.28-.12-7.45-.05-8.98,6.73-.57,2.52-1.12,4.84-4.24,5.18-.51.74-1.11.63-1.76.21-1.51-.12-3.01-.17-4.36.72-.44.88-1.03.67-1.66.22-1.81-.08-3.62-.15-5.26.83-.49.77-1.09.64-1.73.21-.5-.02-1.02-.14-1.49-.04-4.97,1.15-4.74-1-3.28-4.65,1.94-4.85,4.38-9.59,4.47-15.28-8.43,10.11-17.97,18.44-30.99,21.74-1.82.98-3.65.95-5.47.02-2.96-1.76-7.39-.68-9.18-4.73,1.68-2.42,2.89-5.04,3.28-7.99.5-.81,1.1-1.58,1.49-2.44,2.2-4.86,3.33-10.05,11.36-7,4.88,1.85,10.35-1.32,14.52-4.77,2.25-1.86,4.21-4.52-.74-5.88-1.65.7-3.31.66-4.97.03-6.71.28-13.18,2.93-20.02,2.01-1.81,1.19-2.79-.33-3.95-1.22-.69-.95-1.39-1.91-2.08-2.86-1.19-2.46-2.28-4.92-.79-7.65,4.98-18.04,16.72-31.16,30.98-42.43,3.58-2.83,7.77-4.4,12.07-5.73,1.18-.91,2.35-.96,3.51.03,5.72,1.91,7.5,6.54,8.12,11.9,1.49,12.94,1.2,13.39-11.12,18.15-1.23.48-2.47.95-3.67,1.51-1.89.88-3.4,1.17-3.73-1.62-.12-.98-.59-2.05-1.68-2.28-4.41-.94-7.34,1.68-9.65,4.73-1.8,2.37-4.82,5.09-1,8.34,2.32.39,4.65-.57,6.97.05,4.31-.13,8.52-1.5,12.89-.96,4.4.54,8.12,1.97,9.28,6.86,1.43,2.82.86,5.73.38,8.63.02,1.08-.56,2.02-.83,2.5,0-.2.61-.68.77-1.35.03-1.42.64-2.76.54-4.19.07-.99.14-1.99,1.23-2.47Z"/>
  <path class="cls-168" d="m453.51,73.92c-10.57-.14-10.61-.15-12.93,10.24-1.51,6.77-3.32,13.49-3.82,20.46-.34,1.38.22,2.83-.34,4.2-.06.68.14,1.45-.69,1.84-.9,1.35-.85,2.85-.74,4.37.43.63.57,1.23-.21,1.71-.96,1.66-.9,3.47-.79,5.28.44.64.54,1.25-.19,1.76-.15.29-.34.57-.44.89-.95,3.13.85,7.98-1.92,9.32-5.26,2.53-11.3,3.53-17.08,4.87-2.41.56-1.51-1.61-1.38-2.66.52-4.09,1.2-8.16,1.81-12.23-.4-.64-.53-1.24.23-1.73,1.79-6.99,2.9-14.1,3.75-21.26-.39-.65-.5-1.26.23-1.76.89-1.29.91-2.75.79-4.23-.4-.64-.54-1.24.24-1.71,1.11-3.33,1.67-6.76,1.81-10.27-.11-2.59.07-5.41-3.92-4.9-1.43-.11-2.83-.11-4.05.81-.67.09-1.33.17-2,.26-2.54-.22-.87-2.61-1.87-3.63-.07-2.18-.15-4.35-.22-6.53-.98-3.07.26-6.32-.75-9.38.13-4.48,4.39-1.74,6.1-3.48.52-.75,1.12-.64,1.76-.17,2.15.09,4.31.21,6.34-.77.79-1.05,1.72-.71,2.65-.26l2.04-.16c2.26-.77,4.5-1.68,6.95-.86,2.13.11,4.25.18,6.24-.79.53-.73,1.13-.63,1.77-.16,3.75.24,7.38-.62,11.03-1.19,1.58-.75,3.19-1.24,4.92-.45l-.25-.16c1.52,2.54.79,5.2.43,7.85,0,1.01-.01,2.01-.02,3.02.79,2.79.25,5.63.36,8.44-.5,3.62-3.64,2.74-5.86,3.43Z"/>
  <path class="cls-106" d="m412.92,118.99c-6.26,2.1-6.99,1.62-7-4.63,0-5.12,0-10.23,0-15.35-.58-.67-.56-1.33,0-2,2.19-4.87.43-10.01,1-14.99h0c3.32-.45,6.84,1.04,10-1,2.92.61,1.72,2.49,1.43,4.26-1.86,11.23-3.63,22.47-5.43,33.7Z"/>
  <path class="cls-60" d="m402.77,114.7c.08-3.56.15-7.12.23-10.68.77.45.91,1.18.93,1.98,0,8.96,0,17.91,0,26.87-.39,0-.77,0-1.16,0v-18.17Z"/>
  <path class="cls-64" d="m417.94,78.11q5.66-1.47,3.92,4.9c-.95-1.91-1.54-4.12-3.92-4.9Z"/>
  <path class="cls-61" d="m314.19,141.84c1.82,0,3.65-.01,5.47-.02.26.35,2.08.53.59.97-2.06.6-4.55.6-6.62,0-1.53-.44.29-.63.55-.97Z"/>
  <path class="cls-57" d="m433.81,123.78c.06-.59.12-1.18.19-1.76,1.6,1.54.67,3.3.2,5.02-.13-1.09-.26-2.17-.38-3.26Z"/>
  <path class="cls-62" d="m378.03,132.19c-.06.59-.11,1.18-.17,1.77-1.45-1.55-1.04-3.26-.34-5.98.24,2.03.37,3.12.5,4.21Z"/>
  <path class="cls-76" d="m405.99,121.01c1.93,0,3.86.02,5.79.03-1.94,1.59-3.87,1.64-5.79-.03Z"/>
  <path class="cls-63" d="m363.96,138.08c.59-.07,1.17-.14,1.76-.21.75.11,1.5.21,3.19.45-2.37.81-3.71,1.03-4.95-.25Z"/>
  <path class="cls-63" d="m357.94,139.02c.55-.07,1.1-.15,1.66-.22.77.14,1.53.28,3.13.58-2.23.68-3.58,1.06-4.79-.36Z"/>
  <path class="cls-57" d="m350.96,140.06c.58-.07,1.15-.14,1.73-.21.75.12,1.51.24,3.12.5-2.28.77-3.62,1.01-4.85-.29Z"/>
  <path class="cls-107" d="m415.04,122.23c-.08.58-.15,1.15-.23,1.73-1.34-1.11-.76-2.51-.28-3.96.17.74.34,1.49.51,2.23Z"/>
  <path class="cls-63" d="m419.02,99.22c-.08.59-.15,1.17-.23,1.76-1.19-1.26-1.1-2.63-.2-4.69.2,1.37.31,2.15.43,2.94Z"/>
  <path class="cls-108" d="m434.79,116.73c.07-.57.14-1.14.21-1.71,1.25,1.12,1.04,2.47.47,4.68-.34-1.46-.51-2.21-.68-2.97Z"/>
  <path class="cls-108" d="m435.73,110.65c.08-.55.16-1.1.24-1.65.31-.47.63-.47.95,0,0,1.66,0,3.33,0,4.99-1.23-.82-.87-2.2-1.18-3.34Z"/>
  <path class="cls-107" d="m420.05,93.27c-.08.57-.16,1.14-.24,1.71-1.21-1.13-1.01-2.48-.43-4.67.33,1.45.5,2.21.67,2.96Z"/>
  <path class="cls-10" d="m401.97,50.17c-.36,1.07-1.19.98-2.05.82-1.37-1.09-2.71-1.52-3.95.17-.36,1.07-1.19.99-2.05.83-.16-.45-.26-1.26-.5-1.31-4.49-.85-3.61-3.06-1.5-5.63h0c3.74-1.5,7.34-3.32,11-5h0c3.8-1.37,7.24-3.53,11-5,9.66-5.58,19.67-10.4,30.38-13.65,1.33-.4,2.61-.65,3.61.66-4.67,3.51-10.11,5.55-15.35,7.94-10.83,4.93-21.73,9.7-32.53,14.7-1.19.55-2.8,1.11-3.36,2.76,1.34,1.1,2.87.35,4.26.58.35.71.7,1.41,1.05,2.12Z"/>
  <path class="cls-109" d="m341.69,86.75c4.92-1.84,9.84-3.7,14.78-5.5,3.13-1.14,5.14-2.95,4.47-6.64-.57-3.2,1.04-6.17,1.02-9.32-.02-2.36,1.96-2.82,3.44-2.53,2.11.42.71,2.32.44,3.29-2.17,7.79-4.54,15.52-6.86,23.27-.33,1.09-.84,2.87-2.13,1.83-4.5-3.64-9.84-3.09-15.1-3.19-.02-.4-.04-.81-.06-1.21Z"/>
  <path class="cls-128" d="m384.92,48.06c-5.88,0-10.09,4.44-15.48,5.81-2.21.56-4.26,1.74-6.38,2.62-2.45,1.02-3.8.15-4.13-2.44,1.47-2.84,4.61-3.05,7.03-4.35,4.97-2.68,10.35-4.52,15.34-7.18,1.41-.75,2.95-1.75,4.63-.46h0c1.52,2.31.72,4.23-1,6Z"/>
  <path class="cls-159" d="m385.93,42.06c-9,4-18,7.99-26.99,11.99-.67-1-1.33-2-2-3,10.11-3.33,19.74-7.73,28.99-12.98,0,1.33,0,2.66,0,3.99Z"/>
  <path class="cls-109" d="m333.71,84.12c4.29-2.52,2.2,3.3,5.58,2.82-4.02,2.28-4.05-.74-5.2-1.92-.38-.19-.52-.49-.37-.9Z"/>
  <path class="cls-117" d="m357.79,103.86c-.36,1.35-.73,2.69-1.09,4.04-.17.46-.4.49-.69.1.03-3.37.06-6.74.09-10.11.26.07.52.14.77.2,1.38,1.75-.16,3.96.92,5.76Z"/>
  <path class="cls-55" d="m303.12,99.34c.26,2.55.52,5.1.79,7.65-3.74-2.72-1.25-6.66-1.96-9.98.9.52.96,1.46,1.17,2.33Z"/>
  <path class="cls-80" d="m333.96,52.19c-1.65-1.67-1.15-3.53-.56-5.57,2.35,1.43,1.28,3.59,1.51,5.41-.32.02-.64.08-.95.16Z"/>
  <path class="cls-25" d="m333.93,91.99c-2.33.7-4.65,1.31-6.97-.05,2.33-1.42,4.66-1.49,6.97.05Z"/>
  <path class="cls-41" d="m389.93,41.06c-.33,1-.67,2-1,3-.27,0-.54,0-.81.01-.7-.62-.79-1.29-.18-2.03,0-.37.02-.74.02-1.12.37-1.41-.22-2.83.03-4.25.23-.93.25-1.95,1.11-2.61.27,0,.55,0,.82,0,.7.56.99,1.34,1.12,2.2.09,1.71-.45,3.27-1.12,4.8Z"/>
  <path class="cls-159" d="m384.92,48.06c.33-2,.67-4,1-6,.37.01.75.03,1.12.04.69,1.43.25,2.94.34,4.42-.35,1.17-.48,2.43-1.27,3.45-.94-.3-1.15-1.05-1.19-1.91Z"/>
  <path class="cls-74" d="m333.71,84.12c.06.32.19.62.37.9-.36,1.27.52,2.95-2.25,4.28.69-2.21-1.35-4.2,1.88-5.18Z"/>
  <path class="cls-56" d="m357.79,103.86c-1.47-1.74-.52-3.86-.92-5.76,1.24-1.56,1.73-.72,2.03.65-.72.6-1.11,1.31-.71,2.27-.13.95-.27,1.9-.4,2.85Z"/>
  <path class="cls-15" d="m359.3,70.85c-.26-2.09-.77-3.99.21-6.14.58,2.34.7,4.34-.21,6.14Z"/>
  <path class="cls-60" d="m349.69,51.21c-1.17,0-2.34-.02-3.51-.03-.39-.28-1.6-.68-1-.84,1.48-.4,3.17-.04,4.77.03.02,0,.08.31.04.44-.05.15-.19.26-.3.39Z"/>
  <path class="cls-77" d="m386.12,49.97c-.11-1.07-.16-2.12.76-2.93.3-.48.61-.46.92,0,.2,1.41.35,2.79-1.68,2.93Z"/>
  <path class="cls-79" d="m387.79,47.03h-.46s-.46,0-.46,0c.06-1.65.12-3.29.17-4.94.3-.01.59-.03.89-.07.06.68.12,1.35.18,2.03-.11.99-.22,1.98-.32,2.96Z"/>
  <path class="cls-156" d="m329.74,88.98c-.2-.67-.49-1.13-.38-1.41.14-.35.62-.57.96-.84.15.38.47.79.4,1.13-.06.34-.51.61-.99,1.13Z"/>
  <path class="cls-69" d="m389.93,36.07c0-.67,0-1.33,0-2,0-7.29,1.22-8.64,9-9.99-.15,3.38,1.6,6.57,1,9.99-3.36.51-6,4.62-9.99,2.01Z"/>
  <path class="cls-111" d="m388.81,37c0,1.37.55,2.86-.85,3.92-1.29-1.98-1.5-3.99-.13-6.03.86.45.37,1.53.98,2.11Z"/>
  <path class="cls-72" d="m388.81,37c-.33-.7-.65-1.4-.98-2.1,0-.96,0-1.92,0-3,1.64.32.86,1.53,1.28,2.17-.1.98-.2,1.96-.3,2.94Z"/>
  <path class="cls-13" d="m405.98,65.06c-.12-2.15-.13-4.28.86-6.28-.67,4.09,2.87,8.15.08,12.26-2-1.73.3-4.13-.94-5.98Z"/>
  <path class="cls-13" d="m405.93,97.01c0,.67,0,1.33,0,2-2.08-3.51-.55-7.22,0-10.86v8.86Z"/>
  <path class="cls-13" d="m403.04,100.98c-.07-4.15-.35-8.31.78-12.38-.28,4.12,1.07,8.35-.78,12.38Z"/>
  <path class="cls-63" d="m458.78,70.73c.07-2.89.15-5.79.22-8.68.3,0,.6,0,.9,0-.46,3.62,1.02,7.39-.86,10.9-.78-.66-.6-1.43-.27-2.21Z"/>
  <path class="cls-62" d="m434.89,53.94c-2.32.29-4.63.58-6.95.86,1.98-2.96,4.46-2.01,6.95-.86Z"/>
  <path class="cls-60" d="m458.85,51.34c-1.64.15-3.28.3-4.92.45,1.41-2.64,3.08-2.47,4.92-.45Z"/>
  <path class="cls-163" d="m409.05,59.64c1.07,3.06.81,6.23.75,9.38-1.7-3.01-.66-6.24-.75-9.38Z"/>
  <path class="cls-125" d="m459.03,59.03c-.14-2.62-.28-5.23-.42-7.85,2.24,2.5,1.56,5.16.42,7.85Z"/>
  <path class="cls-13" d="m404.04,84c-.06-2.53-.32-5.08.8-7.49-.24,2.5.95,5.15-.8,7.49Z"/>
  <path class="cls-13" d="m406.93,82.03c-1.88-1.79-.58-3.9,0-5.9,0,1.97,0,3.93,0,5.9h0Z"/>
  <path class="cls-60" d="m405.98,65.06c1.72,1.77.63,3.98.94,5.98-.32,0-.64-.02-.95-.05-.86-1.38-.62-2.79-.15-4.21.05-.57.11-1.14.16-1.72Z"/>
  <path class="cls-13" d="m405.82,66.77c.05,1.41.1,2.81.15,4.21-.31.68-.63,1.35-.94,2.03-.07-2.12-.21-4.26.8-6.24Z"/>
  <path class="cls-13" d="m408.73,74.07v4.05c-1.37-1.37-.65-2.67,0-4.05Z"/>
  <path class="cls-63" d="m416.91,55.99c-.59.06-1.17.11-1.76.17-1.09-.13-2.19-.26-4.2-.5,2.69-.72,4.41-1.13,5.96.33Z"/>
  <path class="cls-62" d="m425.9,54.97c-.88.09-1.77.17-2.65.26-.76-.14-1.51-.28-3.26-.6,2.71-.7,4.36-1.02,5.91.35Z"/>
  <path class="cls-63" d="m442.9,52.99c-.59.05-1.18.11-1.77.16-1.09-.13-2.17-.27-4.18-.51,2.69-.7,4.41-1.11,5.96.35Z"/>
  <path class="cls-61" d="m407.77,52.75c.08-.56.15-1.12.23-1.68,1.26,1.12,1.05,2.47.64,3.99-1.13-.54-.49-1.62-.86-2.31Z"/>
  <path class="cls-13" d="m410.02,75.55c.93,1.05,0,3.06,1.87,3.63-3.6.32-1.24-2.42-1.87-3.63Z"/>
  <path class="cls-158" d="m389.93,36.07c3.69,1.13,6.25-3.38,9.99-2.01.67.01,1.33.02,2,.03-3.9,2.49-8.77,3.32-12,6.97,0-1.66,0-3.33,0-4.99Z"/>
  <path class="cls-14" d="m402.92,40.06c-3.11,2.88-6.91,4.26-11,5,3.35-2.35,6.78-4.55,11-5Z"/>
  <path class="cls-14" d="m413.92,35.06c-3.35,2.36-6.78,4.55-11,5,3.35-2.36,6.78-4.55,11-5Z"/>
  <path class="cls-155" d="m328.75,114c-3.4,3.7-7.18,3.71-12.07.88,4.46-1.16,8.07-2.67,12.12-1.88.27.23.36.46.25.68-.1.21-.2.32-.3.32Z"/>
  <path class="cls-14" d="m305.99,109.85c1.32.41,2.64.82,3.95,1.22,0,.31,0,.61,0,.92.6.67.58,1.33,0,2-1.3.29-2.61.59-3.91.88-.39-1.67.96-3.36-.04-5.03Z"/>
  <path class="cls-23" d="m309.94,114v-2c2.26,0,4.52,0,7.43,0-2.27,1.89-4.95-.04-6.43,2-.33,0-.67,0-1,0Z"/>
  <path class="cls-61" d="m329.96,109.07c1.65-.43,3.31-.57,4.97-.03-1.65,1.44-3.3,1.41-4.97.03Z"/>
  <path class="cls-75" d="m328.75,114c.02-.33.03-.66.05-1,.6-.4,1.14-1.34,1.93-.41.21.25.17.99-.05,1.29-.52.69-1.23.98-1.93.12Z"/>
  <path class="cls-125" d="m458.78,70.73c.09.74.18,1.48.27,2.22-1.59,1.78-3.64.91-5.53.97,1.76-1.05,4.92.2,5.27-3.18Z"/>
  <path class="cls-13" d="m436.92,109c-.32,0-.63,0-.95,0-.1-1.53-.11-3.04.79-4.39.81,1.43,1.26,2.88.16,4.38Z"/>
  <path class="cls-36" d="m349.94,198.87c-1.69-.13-3.53.7-4.98-.85,1.66-.01,3.32-.02,4.99-.04-.02.3-.02.59-.01.89Z"/>
  <path class="cls-173" d="m328.02,190.76c.01-2.31.1-4.62,0-6.93-.08-2.24.02-4.33,2.43-5.4,2.8-1.24,4.26.63,5.71,2.5.39,1.12.25,2.29.26,3.44.07,7.95-.3,8.22-8.4,6.39Z"/>
  <path class="cls-82" d="m328.02,190.76c.8.12,1.59.25,2.39.37,4.11.59,6.58-.5,5.76-5.34-.27-1.58-.03-3.24-.02-4.86,1.7,2.94,1.65,6.65.51,9.06-1.76,3.72-5.55,2.41-8.65.77Z"/>
  <path class="cls-5" d="m51.8,179.05c.97.99,1.94,1.97,2.91,2.96.9,2.75-.41,5.32-.69,7.97-.92.27-1.85.53-2.77.83-3.8,1.23-5.91.48-5.39-4.12.29-2.57.1-5.2.12-7.8,1.66-.68,3.33-.6,5.01-.05.25.16.51.23.81.22Z"/>
  <path class="cls-58" d="m50.99,178.83c-1.67.02-3.34.04-5.01.05,1.65-1.61,3.33-1.37,5.01-.05Z"/>
  <path class="cls-149" d="m155.94,197.1c-1.91-3.08-1.18-6.09.2-9.09.99,0,1.99.06,2.98-.02,2.48-.18,4.7.23,5.75,2.79.79,1.94.66,3.93-.75,5.61-1.73,2.04-3.96,2.16-6.34,1.44-.63-.19-1.22-.48-1.83-.73Z"/>
  <path class="cls-174" d="m275.94,187.88c1.67,0,3.35-.02,5.02-.02,4.13,4.27,4.13,5.93,0,10.16-1.68,0-3.35-.02-5.03-.02-4.06-4.23-4.06-5.85,0-10.12Z"/>
  <path class="cls-149" d="m187.95,188.94c1.74,2.62,1.48,5.29.21,7.99-3.57,1.46-7.29,3.6-9.36-1.97-.87-2.35-.62-4.91,1.29-6.3,2.38-1.74,5.28-1.28,7.86.27Z"/>
  <path class="cls-172" d="m429.91,187.84c4.21,4.12,4.21,6.1,0,10.2-1.67.53-3.33.62-4.99-.05-4.03-4.34-4.03-5.77,0-10.11,1.66-.7,3.33-.62,5-.04Z"/>
  <path class="cls-119" d="m429.91,187.84c-1.67.01-3.33.03-5,.04.01-.3.04-.6.07-.89,1.68.09,3.51-.71,4.93.85Z"/>
  <path class="cls-124" d="m424.91,198c1.66.02,3.33.03,4.99.05-1.43,1.53-3.26.73-4.94.84-.03-.3-.04-.59-.05-.89Z"/>
  <path class="cls-6" d="m465.9,187.87c1.54,1.57-.95,1.96-.9,3.09-.8.57-1.54,1.26-2.41,1.69-1.43.69-2.31,3.76-4.13,1.97-1.44-1.42-.39-3.78.96-5.41.42-.5.99-.89,1.49-1.32,1.66-.66,3.33-.64,4.99,0Z"/>
  <path class="cls-119" d="m465.9,187.87c-1.66,0-3.33,0-4.99,0,.02-.3.05-.6.09-.9,1.66.14,3.5-.67,4.9.9Z"/>
  <path class="cls-174" d="m71.98,197.99c-4.06-4.22-4.06-5.86,0-10.11,1.66-.68,3.33-.66,4.99,0,4.12,4.24,4.12,5.91,0,10.12-1.67.63-3.33.65-5,0Z"/>
  <path class="cls-165" d="m76.97,187.88c-1.66,0-3.33,0-4.99,0,.01-.3.03-.59.06-.89,1.68.09,3.52-.71,4.93.88Z"/>
  <path class="cls-33" d="m71.98,197.99c1.67,0,3.33,0,5,0-1.42,1.58-3.25.8-4.93.87-.03-.29-.05-.58-.06-.87Z"/>
  <path class="cls-172" d="m222.97,187.88c4.06,4.32,4.06,5.81,0,10.11-1.66.66-3.33.62-5,.02-4.16-4.1-4.16-5.95,0-10.15,1.67-.62,3.33-.66,5,.02Z"/>
  <path class="cls-122" d="m222.97,187.88c-1.67,0-3.33-.01-5-.02,1.43-1.58,3.29-.75,4.97-.88,0,.3,0,.6.02.9Z"/>
  <path class="cls-36" d="m217.97,198.01c1.67,0,3.33-.01,5-.02-.01.3-.02.59-.02.89-1.69-.13-3.54.71-4.97-.87Z"/>
  <path class="cls-167" d="m440.92,197.97c-4.01-4.25-4-5.78,0-10.06,1.66-.73,3.32-.67,4.99-.03,4.09,4.16,4.09,5.6,0,10.12-1.67.62-3.33.68-4.99-.03Z"/>
  <path class="cls-122" d="m445.9,187.88c-1.66.01-3.32.02-4.99.03,0-.31.03-.62.06-.92,1.67.12,3.51-.69,4.92.89Z"/>
  <path class="cls-33" d="m440.92,197.97c1.66.01,3.32.02,4.99.03-1.42,1.57-3.25.77-4.92.86-.03-.3-.06-.6-.07-.89Z"/>
  <path class="cls-166" d="m244.8,190.9c.39-.65.77-1.3,1.16-1.95,4.9-2.17,5.26-2.12,6.87.94-1.96,1.68-3.92,3.35-5.88,5.03-4.03.44-1.39-2.7-2.15-4.02Z"/>
  <path class="cls-174" d="m396.86,192.05c-.06.85-.11,1.69-.17,2.54-2.28,3.93-5.87,3.87-9.67,3.17-2.76-3.25-2.45-6.5.01-9.74,3.82.01,8.06-.96,9.83,4.03Z"/>
  <path class="cls-170" d="m94.19,187.08c.2.11.39.1.58-.02,1.88.65,3.23,1.61,2.25,3.9-2.97.23-4.35,2.67-6.2,4.47-3.8-1.69-1.46-4.13-.78-6.37,1.38-.66,2.77-1.33,4.15-1.99Z"/>
  <path class="cls-2" d="m405.76,190.9c.39-.65.77-1.3,1.16-1.95,4.42-2.55,7.72-1.46,9.94,3.08,0,.6,0,1.19,0,1.79-1.92,4.6-5.7,4.71-9.8,4.05-.79-2.26-1.66-4.5-1.3-6.97Z"/>
  <path class="cls-1" d="m376.87,189.06c.4.62.79,1.23,1.19,1.85.12,2.1.04,4.17-1.17,6.01-3.98,2.37-7.32,1.95-9.75-2.28,0-1.13,0-2.26,0-3.39,2.51-4.01,5.89-4.11,9.73-2.19Z"/>
  <path class="cls-174" d="m195.91,197.13c-.61-.74-1.23-1.49-1.84-2.23-.46-2.38.17-4.44,1.86-6.18,2.71-1.23,5.4-1.52,8.05.19,1.2.59.39,3.64,3.02,2.46.03,1.35-.3,2.55-1.4,3.44-.57.67-1.13,1.35-1.7,2.02-2.59,1.98-5.28,1.43-8,.3Z"/>
  <path class="cls-24" d="m381.84,100.98c-.01.35-.03.7-.04,1.05-.88,1.68.06,3.62-.76,5.31.32,3.32-2.4,2.86-4.02,2.7-2.65-.25-.91-2.34-.69-3.4.81-3.9,2.72-7.55,2.75-11.65,2.21-.95,2.52.57,2.71,2.14.15,1.27-.86,2.57.05,3.84Z"/>
  <path class="cls-26" d="m380.06,92c1.02-4.29,2.04-8.58,3.06-12.88,2.3.45.98,2.03,1,3.2-.43,3.56-.85,7.11-1.28,10.67-1.29.7-2.02-.18-2.78-.99Z"/>
  <path class="cls-52" d="m384.11,82.32c-.42-1.04.03-2.35-1-3.2.32-1.67.65-3.34.97-5.01.97-.17,1.42.13,1.06,1.17-.21,2.37.13,4.81-1.03,7.04Z"/>
  <path class="cls-59" d="m381.84,100.98c-2.21-1.4.79-5.2-2.76-5.98.28-.66.56-1.33.84-1.99,4.18.89,2.14,3.89,2.11,6.2l-.18,1.77Z"/>
  <path class="cls-14" d="m395.98,51.17c-.18-.84-1.03-1.96.72-2.07,1.46-.1,3.03-.22,3.23,1.9-1.29.72-2.63.27-3.95.17Z"/>
  <path class="cls-161" d="m382.02,99.21c-.55-2.12.82-4.89-2.11-6.2.05-.34.09-.68.14-1.02.93.33,1.85.66,2.78.99.14,2.13.19,4.25-.81,6.23Z"/>
  <path class="cls-81" d="m385.15,75.28c-.35-.39-.71-.78-1.06-1.17.31-1.64.63-3.28.94-4.92.91-.39,1.27-.12,1.01.86-.22,1.75.26,3.63-.89,5.22Z"/>
  <path class="cls-78" d="m386.04,70.05c-.34-.29-.67-.58-1.01-.86-.21-1.42.44-2.44,1.5-3.54.57,1.76.72,3.17-.5,4.4Z"/>
  <path class="cls-161" d="m381.05,107.34c.02-1.8-.74-3.72.76-5.31.12,1.82.15,3.63-.76,5.31Z"/>
  <path class="cls-83" d="m356.01,108c.23-.04.46-.08.69-.1-.51,1.5-1.02,2.99-1.53,4.49-.54-1.72-.65-3.28.84-4.39Z"/>
</svg>