<?xml version="1.0" encoding="UTF-8"?>
<svg id="Calque_1" data-name="Calque 1" xmlns="http://www.w3.org/2000/svg" viewBox="0 0 512 512">
  <defs>
    <style>
      .cls-1 {
        fill: #f3ede7;
      }

      .cls-1, .cls-2, .cls-3, .cls-4, .cls-5, .cls-6, .cls-7, .cls-8, .cls-9, .cls-10, .cls-11, .cls-12, .cls-13, .cls-14, .cls-15, .cls-16, .cls-17, .cls-18, .cls-19, .cls-20, .cls-21, .cls-22, .cls-23, .cls-24, .cls-25, .cls-26, .cls-27, .cls-28, .cls-29, .cls-30, .cls-31, .cls-32, .cls-33, .cls-34, .cls-35, .cls-36, .cls-37, .cls-38, .cls-39, .cls-40, .cls-41, .cls-42, .cls-43, .cls-44, .cls-45, .cls-46, .cls-47, .cls-48, .cls-49, .cls-50, .cls-51, .cls-52, .cls-53, .cls-54, .cls-55, .cls-56, .cls-57, .cls-58, .cls-59, .cls-60, .cls-61, .cls-62, .cls-63, .cls-64, .cls-65, .cls-66, .cls-67, .cls-68, .cls-69, .cls-70, .cls-71, .cls-72, .cls-73, .cls-74, .cls-75, .cls-76, .cls-77, .cls-78, .cls-79, .cls-80, .cls-81, .cls-82, .cls-83, .cls-84, .cls-85, .cls-86, .cls-87, .cls-88, .cls-89, .cls-90, .cls-91, .cls-92, .cls-93, .cls-94, .cls-95, .cls-96, .cls-97, .cls-98, .cls-99, .cls-100, .cls-101, .cls-102, .cls-103, .cls-104, .cls-105, .cls-106, .cls-107, .cls-108, .cls-109, .cls-110, .cls-111, .cls-112, .cls-113, .cls-114, .cls-115, .cls-116, .cls-117, .cls-118, .cls-119, .cls-120, .cls-121, .cls-122, .cls-123, .cls-124, .cls-125, .cls-126, .cls-127, .cls-128, .cls-129, .cls-130, .cls-131, .cls-132, .cls-133, .cls-134, .cls-135, .cls-136, .cls-137, .cls-138, .cls-139, .cls-140, .cls-141, .cls-142, .cls-143, .cls-144, .cls-145, .cls-146, .cls-147, .cls-148, .cls-149, .cls-150, .cls-151, .cls-152, .cls-153, .cls-154, .cls-155, .cls-156, .cls-157, .cls-158, .cls-159, .cls-160, .cls-161, .cls-162, .cls-163, .cls-164, .cls-165, .cls-166, .cls-167, .cls-168, .cls-169, .cls-170, .cls-171, .cls-172, .cls-173, .cls-174, .cls-175, .cls-176, .cls-177, .cls-178, .cls-179, .cls-180, .cls-181, .cls-182, .cls-183, .cls-184, .cls-185, .cls-186, .cls-187, .cls-188, .cls-189, .cls-190, .cls-191, .cls-192, .cls-193, .cls-194, .cls-195, .cls-196, .cls-197, .cls-198, .cls-199, .cls-200, .cls-201, .cls-202, .cls-203, .cls-204, .cls-205, .cls-206, .cls-207, .cls-208, .cls-209, .cls-210, .cls-211, .cls-212, .cls-213, .cls-214, .cls-215, .cls-216, .cls-217, .cls-218, .cls-219, .cls-220, .cls-221, .cls-222, .cls-223, .cls-224, .cls-225, .cls-226, .cls-227, .cls-228, .cls-229, .cls-230, .cls-231, .cls-232, .cls-233, .cls-234, .cls-235, .cls-236, .cls-237, .cls-238, .cls-239, .cls-240, .cls-241, .cls-242, .cls-243, .cls-244, .cls-245, .cls-246, .cls-247, .cls-248, .cls-249, .cls-250, .cls-251, .cls-252, .cls-253, .cls-254, .cls-255, .cls-256, .cls-257, .cls-258, .cls-259, .cls-260, .cls-261, .cls-262, .cls-263, .cls-264, .cls-265, .cls-266, .cls-267, .cls-268, .cls-269, .cls-270, .cls-271, .cls-272, .cls-273, .cls-274, .cls-275, .cls-276, .cls-277, .cls-278, .cls-279, .cls-280, .cls-281, .cls-282, .cls-283, .cls-284, .cls-285, .cls-286, .cls-287, .cls-288, .cls-289, .cls-290, .cls-291, .cls-292, .cls-293, .cls-294, .cls-295, .cls-296, .cls-297, .cls-298, .cls-299, .cls-300, .cls-301, .cls-302, .cls-303, .cls-304, .cls-305, .cls-306, .cls-307, .cls-308, .cls-309, .cls-310, .cls-311, .cls-312, .cls-313, .cls-314, .cls-315, .cls-316, .cls-317, .cls-318, .cls-319, .cls-320, .cls-321, .cls-322, .cls-323, .cls-324, .cls-325, .cls-326, .cls-327, .cls-328, .cls-329, .cls-330, .cls-331, .cls-332, .cls-333, .cls-334, .cls-335, .cls-336, .cls-337, .cls-338, .cls-339, .cls-340, .cls-341, .cls-342, .cls-343, .cls-344, .cls-345, .cls-346, .cls-347, .cls-348, .cls-349, .cls-350, .cls-351, .cls-352, .cls-353, .cls-354, .cls-355, .cls-356, .cls-357, .cls-358, .cls-359, .cls-360, .cls-361, .cls-362, .cls-363, .cls-364, .cls-365, .cls-366, .cls-367, .cls-368, .cls-369, .cls-370 {
        stroke-width: 0px;
      }

      .cls-2 {
        fill: #f7f6ef;
      }

      .cls-3 {
        fill: #f2ede8;
      }

      .cls-4 {
        fill: #f2e1da;
      }

      .cls-5 {
        fill: #f2dfd8;
      }

      .cls-6 {
        fill: #f6e6dd;
      }

      .cls-7 {
        fill: #f9f9f9;
      }

      .cls-8 {
        fill: #f8f8f7;
      }

      .cls-9 {
        fill: #4c6745;
      }

      .cls-10 {
        fill: #4b894c;
      }

      .cls-11 {
        fill: #60a115;
      }

      .cls-12 {
        fill: #7279b6;
      }

      .cls-13 {
        fill: #529a00;
      }

      .cls-14 {
        fill: #5ca00f;
      }

      .cls-15 {
        fill: #5f975e;
      }

      .cls-16 {
        fill: #605ea8;
      }

      .cls-17 {
        fill: #5da213;
      }

      .cls-18 {
        fill: #5ea010;
      }

      .cls-19 {
        fill: #7a4b24;
      }

      .cls-20 {
        fill: #5456a3;
      }

      .cls-21 {
        fill: #74a375;
      }

      .cls-22 {
        fill: #4a8d4a;
      }

      .cls-23 {
        fill: #5d9b5f;
      }

      .cls-24 {
        fill: #784a24;
      }

      .cls-25 {
        fill: #784923;
      }

      .cls-26 {
        fill: #784922;
      }

      .cls-27 {
        fill: #5c9f12;
      }

      .cls-28 {
        fill: #7a4d28;
      }

      .cls-29 {
        fill: #533061;
      }

      .cls-30 {
        fill: #70aa31;
      }

      .cls-31 {
        fill: #533160;
      }

      .cls-32 {
        fill: #764822;
      }

      .cls-33 {
        fill: #835834;
      }

      .cls-34 {
        fill: #835833;
      }

      .cls-35 {
        fill: #4c9605;
      }

      .cls-36 {
        fill: #845a37;
      }

      .cls-37 {
        fill: #4f5da5;
      }

      .cls-38 {
        fill: #26540f;
      }

      .cls-39 {
        fill: #522f60;
      }

      .cls-40 {
        fill: #28264d;
      }

      .cls-41 {
        fill: #28254d;
      }

      .cls-42 {
        fill: #257a23;
      }

      .cls-43 {
        fill: #5c3a69;
      }

      .cls-44 {
        fill: #2c3d89;
      }

      .cls-45 {
        fill: #478d4d;
      }

      .cls-46 {
        fill: #484999;
      }

      .cls-47 {
        fill: #2a274e;
      }

      .cls-48 {
        fill: #4a4d99;
      }

      .cls-49 {
        fill: #64436f;
      }

      .cls-50 {
        fill: #2d3483;
      }

      .cls-51 {
        fill: #55847c;
      }

      .cls-52 {
        fill: #573464;
      }

      .cls-53 {
        fill: #2a7f29;
      }

      .cls-54 {
        fill: #2a7d26;
      }

      .cls-55 {
        fill: #297c25;
      }

      .cls-56 {
        fill: #586e52;
      }

      .cls-57 {
        fill: #589d05;
      }

      .cls-58 {
        fill: #275610;
      }

      .cls-59 {
        fill: #277b24;
      }

      .cls-60 {
        fill: #5d3b69;
      }

      .cls-61 {
        fill: #5a867d;
      }

      .cls-62 {
        fill: #5a877f;
      }

      .cls-63 {
        fill: #5a877e;
      }

      .cls-64 {
        fill: #5c56a4;
      }

      .cls-65 {
        fill: #5b6d56;
      }

      .cls-66 {
        fill: #6265ad;
      }

      .cls-67 {
        fill: #5a3867;
      }

      .cls-68 {
        fill: #6fa26f;
      }

      .cls-69 {
        fill: #896240;
      }

      .cls-70 {
        fill: #5358a7;
      }

      .cls-71 {
        fill: #885e3a;
      }

      .cls-72 {
        fill: #885e3c;
      }

      .cls-73 {
        fill: #54837a;
      }

      .cls-74 {
        fill: #88b58c;
      }

      .cls-75 {
        fill: #8a6240;
      }

      .cls-76 {
        fill: #a33723;
      }

      .cls-77 {
        fill: #70806c;
      }

      .cls-78 {
        fill: #96200f;
      }

      .cls-79 {
        fill: #8b0802;
      }

      .cls-80 {
        fill: #2f6315;
      }

      .cls-81 {
        fill: #308132;
      }

      .cls-82 {
        fill: #38365b;
      }

      .cls-83 {
        fill: #38365a;
      }

      .cls-84 {
        fill: #378634;
      }

      .cls-85 {
        fill: #3b385d;
      }

      .cls-86 {
        fill: #3b385c;
      }

      .cls-87 {
        fill: #3a6528;
      }

      .cls-88 {
        fill: #353258;
      }

      .cls-89 {
        fill: #353b8f;
      }

      .cls-90 {
        fill: #267b25;
      }

      .cls-91 {
        fill: #267e25;
      }

      .cls-92 {
        fill: #38873b;
      }

      .cls-93 {
        fill: #38883b;
      }

      .cls-94 {
        fill: #386526;
      }

      .cls-95 {
        fill: #385e28;
      }

      .cls-96 {
        fill: #58867d;
      }

      .cls-97 {
        fill: #58867c;
      }

      .cls-98 {
        fill: #58857d;
      }

      .cls-99 {
        fill: #599d06;
      }

      .cls-100 {
        fill: #5b3968;
      }

      .cls-101 {
        fill: #59867e;
      }

      .cls-102 {
        fill: #575da8;
      }

      .cls-103 {
        fill: #569e03;
      }

      .cls-104 {
        fill: #583464;
      }

      .cls-105 {
        fill: #569d03;
      }

      .cls-106 {
        fill: #579c10;
      }

      .cls-107 {
        fill: #57857d;
      }

      .cls-108 {
        fill: #57857c;
      }

      .cls-109 {
        fill: #845936;
      }

      .cls-110 {
        fill: #83af86;
      }

      .cls-111 {
        fill: #3c385d;
      }

      .cls-112 {
        fill: #1a7415;
      }

      .cls-113 {
        fill: #1a7313;
      }

      .cls-114 {
        fill: #1b7416;
      }

      .cls-115 {
        fill: #1b7313;
      }

      .cls-116 {
        fill: #1b1a43;
      }

      .cls-117 {
        fill: #0c3800;
      }

      .cls-118 {
        fill: #3e8640;
      }

      .cls-119 {
        fill: #3e863c;
      }

      .cls-120 {
        fill: #363358;
      }

      .cls-121 {
        fill: #36621f;
      }

      .cls-122 {
        fill: #45479c;
      }

      .cls-123 {
        fill: #368536;
      }

      .cls-124 {
        fill: #1c7515;
      }

      .cls-125 {
        fill: #404a84;
      }

      .cls-126 {
        fill: #424a9e;
      }

      .cls-127 {
        fill: #434b9f;
      }

      .cls-128 {
        fill: #214d0a;
      }

      .cls-129 {
        fill: #22791f;
      }

      .cls-130 {
        fill: #22791c;
      }

      .cls-131 {
        fill: #22781c;
      }

      .cls-132 {
        fill: #201e47;
      }

      .cls-133 {
        fill: #21791d;
      }

      .cls-134 {
        fill: #214c0a;
      }

      .cls-135 {
        fill: #214c0c;
      }

      .cls-136 {
        fill: #225512;
      }

      .cls-137 {
        fill: #231f48;
      }

      .cls-138 {
        fill: #222048;
      }

      .cls-139 {
        fill: #215b07;
      }

      .cls-140 {
        fill: #ac4f3f;
      }

      .cls-141 {
        fill: #1e2a86;
      }

      .cls-142 {
        fill: #1e1c45;
      }

      .cls-143 {
        fill: #1e4908;
      }

      .cls-144 {
        fill: #1e751b;
      }

      .cls-145 {
        fill: #1e4c06;
      }

      .cls-146 {
        fill: #1e771c;
      }

      .cls-147 {
        fill: #1e4b06;
      }

      .cls-148 {
        fill: #1d7618;
      }

      .cls-149 {
        fill: #1d7718;
      }

      .cls-150 {
        fill: #1d7518;
      }

      .cls-151 {
        fill: #171640;
      }

      .cls-152 {
        fill: #20771c;
      }

      .cls-153 {
        fill: #24224a;
      }

      .cls-154 {
        fill: #247820;
      }

      .cls-155 {
        fill: #c4c4c4;
      }

      .cls-156 {
        fill: #d085b3;
      }

      .cls-157 {
        fill: #d086b3;
      }

      .cls-158 {
        fill: #d28ab6;
      }

      .cls-159 {
        fill: #d1d1d1;
      }

      .cls-160 {
        fill: #d2d3d3;
      }

      .cls-161 {
        fill: #d39f91;
      }

      .cls-162 {
        fill: #d2d2d2;
      }

      .cls-163 {
        fill: #d2dcd9;
      }

      .cls-164 {
        fill: #cc7cad;
      }

      .cls-165 {
        fill: #cc7bad;
      }

      .cls-166 {
        fill: #dce3e1;
      }

      .cls-167 {
        fill: #c88679;
      }

      .cls-168 {
        fill: #c7c7c7;
      }

      .cls-169 {
        fill: #dedede;
      }

      .cls-170 {
        fill: #cfcfcf;
      }

      .cls-171 {
        fill: #d087b4;
      }

      .cls-172 {
        fill: #d18ab6;
      }

      .cls-173 {
        fill: #d18ab5;
      }

      .cls-174 {
        fill: #d0d0d0;
      }

      .cls-175 {
        fill: #c9af98;
      }

      .cls-176 {
        fill: #ca7aac;
      }

      .cls-177 {
        fill: #ca7aab;
      }

      .cls-178 {
        fill: #ca8778;
      }

      .cls-179 {
        fill: #c9c9c9;
      }

      .cls-180 {
        fill: #cb8a7b;
      }

      .cls-181 {
        fill: #cb7aac;
      }

      .cls-182 {
        fill: #cd7eaf;
      }

      .cls-183 {
        fill: #cd80b0;
      }

      .cls-184 {
        fill: #ccc;
      }

      .cls-185 {
        fill: #d9aca3;
      }

      .cls-186 {
        fill: #e0b6aa;
      }

      .cls-187 {
        fill: #e0b8ac;
      }

      .cls-188 {
        fill: #da4843;
      }

      .cls-189 {
        fill: #da443f;
      }

      .cls-190 {
        fill: #da4540;
      }

      .cls-191 {
        fill: #b05342;
      }

      .cls-192 {
        fill: #c6c6c6;
      }

      .cls-193 {
        fill: #dae8d4;
      }

      .cls-194 {
        fill: #e1e1e1;
      }

      .cls-195 {
        fill: #c8c8c8;
      }

      .cls-196 {
        fill: #c8ccc7;
      }

      .cls-197 {
        fill: #dfdfdf;
      }

      .cls-198 {
        fill: #d5d5d5;
      }

      .cls-199 {
        fill: #d5dfdc;
      }

      .cls-200 {
        fill: #d83e39;
      }

      .cls-201 {
        fill: #d7342d;
      }

      .cls-202 {
        fill: #d7352f;
      }

      .cls-203 {
        fill: #deead9;
      }

      .cls-204 {
        fill: #d83731;
      }

      .cls-205 {
        fill: #d83d39;
      }

      .cls-206 {
        fill: #d52c26;
      }

      .cls-207 {
        fill: #d6d6d6;
      }

      .cls-208 {
        fill: #dca3c5;
      }

      .cls-209 {
        fill: #dcdcdc;
      }

      .cls-210 {
        fill: #d3d3d3;
      }

      .cls-211 {
        fill: #db4c47;
      }

      .cls-212 {
        fill: #db4c46;
      }

      .cls-213 {
        fill: #db4e49;
      }

      .cls-214 {
        fill: #d3d2d2;
      }

      .cls-215 {
        fill: #d5312d;
      }

      .cls-216 {
        fill: #d5312c;
      }

      .cls-217 {
        fill: #d5302b;
      }

      .cls-218 {
        fill: #d52e2a;
      }

      .cls-219 {
        fill: #dadada;
      }

      .cls-220 {
        fill: #dba0c3;
      }

      .cls-221 {
        fill: #d4d5d5;
      }

      .cls-222 {
        fill: #d4d4d4;
      }

      .cls-223 {
        fill: #d9413b;
      }

      .cls-224 {
        fill: #d9403a;
      }

      .cls-225 {
        fill: #bebebe;
      }

      .cls-226 {
        fill: #a74130;
      }

      .cls-227 {
        fill: #a53e2d;
      }

      .cls-228 {
        fill: #a53e2e;
      }

      .cls-229 {
        fill: #a53b29;
      }

      .cls-230 {
        fill: silver;
      }

      .cls-231 {
        fill: #bdbebe;
      }

      .cls-232 {
        fill: #bfd5c0;
      }

      .cls-233 {
        fill: #d7e3d1;
      }

      .cls-234 {
        fill: #da423c;
      }

      .cls-235 {
        fill: #da3b33;
      }

      .cls-236 {
        fill: #a6402f;
      }

      .cls-237 {
        fill: #d8d8d8;
      }

      .cls-238 {
        fill: #b1594b;
      }

      .cls-239 {
        fill: #da4641;
      }

      .cls-240 {
        fill: #a64132;
      }

      .cls-241 {
        fill: #bca693;
      }

      .cls-242 {
        fill: #a9aaaa;
      }

      .cls-243 {
        fill: #a8412e;
      }

      .cls-244 {
        fill: #aa4533;
      }

      .cls-245 {
        fill: #aa4634;
      }

      .cls-246 {
        fill: #d11b18;
      }

      .cls-247 {
        fill: #cecece;
      }

      .cls-248 {
        fill: #cf84b2;
      }

      .cls-249 {
        fill: #cf83b1;
      }

      .cls-250 {
        fill: #ce82b0;
      }

      .cls-251 {
        fill: #865c39;
      }

      .cls-252 {
        fill: #b4b5b5;
      }

      .cls-253 {
        fill: #b8b8b8;
      }

      .cls-254 {
        fill: #b5b5b5;
      }

      .cls-255 {
        fill: #9f3322;
      }

      .cls-256 {
        fill: #8c6341;
      }

      .cls-257 {
        fill: #c37a6b;
      }

      .cls-258 {
        fill: #906747;
      }

      .cls-259 {
        fill: #c2796a;
      }

      .cls-260 {
        fill: #c1c1c1;
      }

      .cls-261 {
        fill: #73567e;
      }

      .cls-262 {
        fill: #303790;
      }

      .cls-263 {
        fill: #33418d;
      }

      .cls-264 {
        fill: #6c4d78;
      }

      .cls-265 {
        fill: #7d4f27;
      }

      .cls-266 {
        fill: #7fad82;
      }

      .cls-267 {
        fill: #7fae81;
      }

      .cls-268 {
        fill: #80532e;
      }

      .cls-269 {
        fill: #80542e;
      }

      .cls-270 {
        fill: #6ba723;
      }

      .cls-271 {
        fill: #6a9288;
      }

      .cls-272 {
        fill: #7cad7f;
      }

      .cls-273 {
        fill: #9c9bae;
      }

      .cls-274 {
        fill: #a23623;
      }

      .cls-275 {
        fill: #a23825;
      }

      .cls-276 {
        fill: #a23724;
      }

      .cls-277 {
        fill: #a03321;
      }

      .cls-278 {
        fill: #a03523;
      }

      .cls-279 {
        fill: #a03524;
      }

      .cls-280 {
        fill: #a03220;
      }

      .cls-281 {
        fill: #951e0d;
      }

      .cls-282 {
        fill: #fcf3f0;
      }

      .cls-283 {
        fill: #fdfdfb;
      }

      .cls-284 {
        fill: #fdfafa;
      }

      .cls-285 {
        fill: #fdfbf2;
      }

      .cls-286 {
        fill: #fdfbf4;
      }

      .cls-287 {
        fill: #fdfbf9;
      }

      .cls-288 {
        fill: #fdfdfc;
      }

      .cls-289 {
        fill: #fdfaf0;
      }

      .cls-290 {
        fill: #fcf5da;
      }

      .cls-291 {
        fill: #fcf4f2;
      }

      .cls-292 {
        fill: #fdf9f2;
      }

      .cls-293 {
        fill: #fdf8f2;
      }

      .cls-294 {
        fill: #fdf8f7;
      }

      .cls-295 {
        fill: #fdf3ea;
      }

      .cls-296 {
        fill: #fdfcfb;
      }

      .cls-297 {
        fill: #7e512c;
      }

      .cls-298 {
        fill: #7e522c;
      }

      .cls-299 {
        fill: #7f532e;
      }

      .cls-300 {
        fill: #73a575;
      }

      .cls-301 {
        fill: #7d86c0;
      }

      .cls-302 {
        fill: #825632;
      }

      .cls-303 {
        fill: #825530;
      }

      .cls-304 {
        fill: #7e7bb8;
      }

      .cls-305 {
        fill: #73a175;
      }

      .cls-306 {
        fill: #64a41d;
      }

      .cls-307 {
        fill: #64a41a;
      }

      .cls-308 {
        fill: #edd8d0;
      }

      .cls-309 {
        fill: #edd3c9;
      }

      .cls-310 {
        fill: #ebc10b;
      }

      .cls-311 {
        fill: #ebc10a;
      }

      .cls-312 {
        fill: #edeeed;
      }

      .cls-313 {
        fill: #eed1c7;
      }

      .cls-314 {
        fill: #eac00c;
      }

      .cls-315 {
        fill: #f4e4df;
      }

      .cls-316 {
        fill: #eed9d1;
      }

      .cls-317 {
        fill: #e9c002;
      }

      .cls-318 {
        fill: #e9cac0;
      }

      .cls-319 {
        fill: #e9c000;
      }

      .cls-320 {
        fill: #ebc7bc;
      }

      .cls-321 {
        fill: #e9be00;
      }

      .cls-322 {
        fill: #e9bf00;
      }

      .cls-323 {
        fill: #e4bfb2;
      }

      .cls-324 {
        fill: #e2eade;
      }

      .cls-325 {
        fill: #ebc310;
      }

      .cls-326 {
        fill: #ebc314;
      }

      .cls-327 {
        fill: #ebc413;
      }

      .cls-328 {
        fill: #ebc414;
      }

      .cls-329 {
        fill: #ebc313;
      }

      .cls-330 {
        fill: #faf8f6;
      }

      .cls-331 {
        fill: #faf0e8;
      }

      .cls-332 {
        fill: #ebcfc5;
      }

      .cls-333 {
        fill: #e3bdb3;
      }

      .cls-334 {
        fill: #fcf7f2;
      }

      .cls-335 {
        fill: #fcfbfa;
      }

      .cls-336 {
        fill: #fef8f8;
      }

      .cls-337 {
        fill: #fefdfa;
      }

      .cls-338 {
        fill: #fbfaf9;
      }

      .cls-339 {
        fill: #fafaf9;
      }

      .cls-340 {
        fill: #e5c0b3;
      }

      .cls-341 {
        fill: #faeae1;
      }

      .cls-342 {
        fill: #fbfbfa;
      }

      .cls-343 {
        fill: #e5c7c1;
      }

      .cls-344 {
        fill: #fefefc;
      }

      .cls-345 {
        fill: #fefef8;
      }

      .cls-346 {
        fill: #fefefe;
      }

      .cls-347 {
        fill: #fefcf7;
      }

      .cls-348 {
        fill: #fefcfb;
      }

      .cls-349 {
        fill: #fefcf8;
      }

      .cls-350 {
        fill: #ecd1c8;
      }

      .cls-351 {
        fill: #ecc626;
      }

      .cls-352 {
        fill: #f1aca4;
      }

      .cls-353 {
        fill: #fafbfa;
      }

      .cls-354 {
        fill: #e8c7bd;
      }

      .cls-355 {
        fill: #eac109;
      }

      .cls-356 {
        fill: #eac10d;
      }

      .cls-357 {
        fill: #eac008;
      }

      .cls-358 {
        fill: #eac003;
      }

      .cls-359 {
        fill: #eac005;
      }

      .cls-360 {
        fill: #eac004;
      }

      .cls-361 {
        fill: #eac009;
      }

      .cls-362 {
        fill: #eac001;
      }

      .cls-363 {
        fill: #eabf00;
      }

      .cls-364 {
        fill: #eabf01;
      }

      .cls-365 {
        fill: #033200;
      }

      .cls-366 {
        fill: #668f86;
      }

      .cls-367 {
        fill: #69918a;
      }

      .cls-368 {
        fill: #6a4a75;
      }

      .cls-369 {
        fill: #6a4b76;
      }

      .cls-370 {
        fill: #68a626;
      }
    </style>
  </defs>
  <path class="cls-346" d="m511.9,236.96v31.98c-1.78.22-2.18-1.29-2.79-2.37-2.6-4.55-6.62-6.26-11.67-6.26-38.14,0-76.29-.04-114.43.03-11.44.02-20.9,7.58-24.12,18.92-3.2,11.29,1.15,23.11,11.17,28.95,17.99,10.48,36,20.91,54.06,31.25,14.02,8.03,28.05,16.04,41.97,24.23,11.18,6.58,17.93,4.23,23.2-7.8,9.33-21.33,15.87-43.44,19.36-66.46.36-2.39-.14-5.5,3.25-6.5,0,74.95-.03,149.89.1,224.84,0,3.42-.67,4.09-4.09,4.09-138.28-.11-276.56-.09-414.84-.09-.33-.4-.41-.84-.27-1.33,3.9-5.28,9.28-9.04,14.08-13.35,17.36-15.58,33.77-32.06,49.33-49.42,14.78-16.5,29.09-33.38,42.31-51.16,15.11-20.33,29.4-41.2,41.91-63.25.16-.28.44-.49.72-.68,2.31-.31,4.56.1,6.82.44,1.04.24,2.07.52,3.16.48,5.66.05,11.32,0,16.97.01,3.4.2,6.61-.87,9.89-1.47,1.57-.29,3.12-.69,4.55-1.45,1.65-.38,3.36-.46,4.98-.96,1.23-.3,2.34-.89,3.45-1.49,1.55-.76,3.07-1.57,4.7-2.17,1.71-.43,3.04-1.49,4.32-2.61,3.78-2.32,7.75-4.33,11.4-6.87,1.55-.86,2.93-1.95,4.12-3.26,2.93-2.88,5.84-5.78,8.69-8.72.96-.94,1.57-2.11,2.17-3.29,3.02-4.17,5.74-8.52,7.92-13.19.97-1.12,2.08-2.14,2.49-3.65.36-1.03.76-2.04,1.22-3.03.75-1.59,1.63-3.14,1.69-4.97.09-1.16.19-2.32.6-3.43,1.31-2.29,2-4.78,2.32-7.38.06-.99.17-1.98.35-2.96.65-1.99.69-4.04.63-6.1,0-3.7.03-7.4-.03-11.09-.04-.98-.22-1.95-.2-2.93.25-1.6.02-3.16-.41-4.7-.22-1.35-.45-2.7-.85-4.01-.43-1.81-.5-3.7-1.22-5.45-2.21-7.16-5.26-13.95-9.11-20.38-.63-1.09-1.02-2.32-1.88-3.27-.26-.31-.48-.65-.68-1-.43-.9-1.02-1.7-1.68-2.45-.49-.66-.88-1.37-1.33-2.05-.7-1.07-1.74-1.79-2.69-2.6-.81-.73-1.55-1.53-2.19-2.43-1.12-1.91-2.66-3.39-4.55-4.52-.9-.66-1.68-1.44-2.34-2.34-.82-1.24-1.64-2.48-3.08-3.1-1.71-.8-2.88-2.5-4.85-2.87-3.27-1.93-6.71-3.56-9.87-5.68-1.74-1.45-4.04-2.17-5.41-4.11-1.55-3.47-4.33-.95-6.52-1.32-.5.01-.99-.03-1.49-.09-3.06-.57-6-1.74-9.16-1.73-7.48-1.57-15.06-.74-22.58-.99-2.68.77-5.49-3.17-8.12.21-1.65,1.59-3.87,1.7-5.89,2.35-1.35.3-2.71.55-3.96,1.18-2.05.99-4.17,1.83-6.29,2.67-2.89,1.22-5.63,2.74-8.42,4.16-1.92,1.05-3.67,2.35-5.47,3.59-1.53.85-2.8,2.05-4.18,3.1-2.31,1.41-4.12,3.3-5.54,5.59-.97,1.27-2.09,2.39-3.36,3.35-2.29,1.41-4.15,3.25-5.57,5.54-1.04,1.36-2.25,2.6-3.09,4.12-.93,1.2-1.47,2.62-2.18,3.95-.25.38-.53.73-.83,1.07-3.71,5.95-6.47,12.33-8.58,18.99-.44,1.43-.81,2.88-1.18,4.33-.46,3.96-1.52,7.83-1.41,11.85-.02,4.47.01,8.93-.01,13.39.04,1.52-.2,3.07.54,4.5.52,1.13.92,2.29.85,3.56-.34,4.83,1.45,9.2,2.93,13.64.51,1.75,1.04,3.48,2.14,4.98,2.3,4.19,4.68,8.34,6.91,12.57.46,1.68,1.48,3.04,2.6,4.33.27.34.5.7.73,1.07.68,1.12,1.56,2.05,2.58,2.86,1.26.94,2.3,2.07,3.07,3.45,1.01,2.14,3.04,3.21,4.82,4.54,1.03,1.15,2.97,1.71,2.56,3.83-20.9,25.48-43.12,49.75-66.84,72.63-29.98,28.9-61.99,55.37-95.7,79.8-12.67,9.18-25.7,17.83-38.77,26.41-1.66,1.09-3.19,3.21-5.71,1.76C.1,332.83.11,168.9,0,4.96,0,1.11.49-.01,4.75,0c73.09.18,146.18.13,219.26.13-.94,3.3-4,2.47-6.14,2.84-17.63,2.99-34.83,7.47-51.5,13.98-4.96,1.94-9.9,3.94-14.66,6.35-9.4,4.76-11.3,10.24-6.24,19.48,6.79,12.41,13.95,24.63,21.22,36.77,11.88,19.85,22.88,40.2,34.8,60.02,6.63,11.02,17.49,15.46,29.47,12.47,12.09-3.01,19.61-12.89,19.66-26.2.09-26.97.02-53.95.03-80.92,0-8.99-.3-18,.1-26.97.3-6.68-1.48-12.11-6.74-16.3-.34-.51-.33-1.02,0-1.52h27.99c.33.51.33,1.01-.01,1.52-5.25,4.21-6.74,9.76-6.7,16.35.17,35.1.09,70.2.07,105.3,0,4.87.39,9.66,2.41,14.15,4.11,9.14,11.16,14.25,21.17,15.17,11.22,1.03,19.87-3.2,25.54-12.96,12.77-22.01,25.57-44.01,38.25-66.08,5.22-9.08,10.38-18.21,15.78-27.19,1.12-1.86,2.23-3.71,3.07-5.71,3.03-7.29,1.08-13.13-6.02-16.69-13.73-6.89-28.23-11.79-43.03-15.79-8.52-2.3-17.19-3.91-25.87-5.48-1.73-.31-4.2.23-4.66-2.58,71.97,0,143.95.03,215.92-.1,3.42,0,4.1.67,4.09,4.09-.13,72.95-.1,145.9-.1,218.84-3.41-1.05-2.74-4.26-3.09-6.58-2.47-16.36-6.51-32.3-11.99-47.89-2.49-7.08-5.41-13.97-8.34-20.86-4.24-9.98-10.78-12.39-20.35-7.1-14.43,7.96-28.61,16.39-42.9,24.61-16.6,9.54-33.16,19.16-49.77,28.68-2.02,1.16-4.06,2.3-5.98,3.63-9.79,6.85-13.38,16.18-10.73,27.84,2.46,10.83,9.86,17.51,21.43,19.48,3.47.59,6.93.84,10.44.84,33.14-.02,66.29-.09,99.43.04,7.94.03,15.45-.3,20.09-8.13.35-.59,1.07-.74,1.77-.56Z"/>
  <path class="cls-370" d="m241.4,333.13c-.49,1.22-.82,2.53-1.48,3.64-39.21,65.59-87.88,123.23-145.73,173.16-.37.32-.83.53-1.25.79-1.03.78-2.23.51-3.37.51-28.7.01-57.4.01-86.1,0-1.14,0-2.34.24-3.38-.48v-1c.82-3.66.82-7.33,0-10.99v-2c13.84-7.63,26.59-16.92,39.42-26.06,61.11-43.59,116.06-93.85,163.78-151.88,1.01-1.23,1.67-2.99,3.72-2.97,1.78-.19,3.22.69,4.55,1.62,8.43,5.92,17.63,10.2,27.54,12.99.8.22,1.52.62,2.13,1.21.29.46.35.94.17,1.45Z"/>
  <path class="cls-69" d="m511.9,282.92c-2.76,3.67-2.03,8.17-2.76,12.27-3.97,22.38-10.55,43.91-20.19,64.49-4.34,9.27-11.96,11.75-20.9,6.61-32.74-18.79-65.46-37.61-98.11-56.54-11.16-6.47-15.91-18.55-12.55-30.83,3.39-12.37,13.36-20.15,26.43-20.18,37.79-.08,75.57.03,113.36-.09,7.54-.02,11.94,3.78,14.71,10.26v6.99c-.75,1-.75,2,0,3v4Z"/>
  <path class="cls-85" d="m511.9,236.96c-3.65,7.5-9.76,9.77-17.9,9.72-36.29-.26-72.58-.04-108.87-.14-18.83-.05-31.51-14.87-28.27-32.81,1.44-7.99,5.82-14.08,12.83-18.13,32.96-19.05,65.94-38.07,98.97-57,8.32-4.77,16.09-2.14,20.18,6.63,10.53,22.58,17.62,46.2,21.24,70.87.34,2.3-.27,4.99,1.82,6.87v3c-.63.67-.63,1.33,0,2v8.99Z"/>
  <path class="cls-369" d="m291.99.13c5.9,2.17,12.2,2.48,18.29,3.78,19.11,4.07,37.54,10.13,55.24,18.37,9,4.19,11.52,11.87,6.53,20.53-18.82,32.68-37.68,65.33-56.64,97.93-6.53,11.22-18.5,15.99-30.79,12.69-12.6-3.38-20.44-13.49-20.46-26.75-.06-37.43-.02-74.87-.02-112.3,0-5.88,1.74-10.78,7.54-13.39,5.4-1.1,10.94.5,16.32-.87h4Z"/>
  <path class="cls-140" d="m244.35.98c5.19,2.26,7.46,6.53,7.47,11.89.07,38.46.12,76.92-.01,115.37-.04,11.69-8,21.49-19.53,24.92-11.52,3.43-24.01-.24-30.07-10-9.02-14.53-17.14-29.62-25.74-44.41-8.68-14.93-17.34-29.88-26.18-44.73-2.21-3.71-4.36-7.47-6.46-11.24-4.89-8.8-2.51-16.26,6.59-20.52,22.46-10.5,46-17.4,70.51-21.09,1.07-.16,2.41.33,3.07-1.05h4c5.39,1.37,10.94-.23,16.34.86Z"/>
  <path class="cls-30" d="m.1,510.76c30.95-.01,61.9-.03,92.85-.04.04.35.08.69.12,1.04-29.66,0-59.33.02-88.99-.06-1.29,0-3.08,1.12-3.97-.94Z"/>
  <path class="cls-238" d="m244.35.98c-5.45-.28-10.99,1.25-16.34-.86h15.99c.17.26.29.55.35.86Z"/>
  <path class="cls-261" d="m287.99.13c-5.34,2.11-10.88.57-16.32.87.06-.31.17-.59.33-.87h15.99Z"/>
  <path class="cls-30" d="m.1,498.77c1.62,3.66,1.62,7.33,0,10.99v-10.99Z"/>
  <path class="cls-241" d="m511.9,278.93c-1.55-1-1.19-2,0-3v3Z"/>
  <path class="cls-273" d="m511.9,227.96c-1.12-.67-1.32-1.33,0-2v2Z"/>
  <path class="cls-346" d="m240.82,331.96c-10.41-2.13-19.75-6.67-28.49-12.57-1.76-1.19-3.54-2.35-5.32-3.53-.99-.95-1.98-1.9-2.98-2.86-1.38-2.05-3.31-3.54-5.17-5.1l-2.82-2.84c-.85-1.2-1.24-2.85-3.03-3.16,0-.29.02-.59.03-.88-.92-1.4-1.77-2.85-2.99-4.03-2.33-4.31-4.67-8.62-7-12.92-.81-1.61-.96-3.43-1.55-5.11-1.57-4.61-3.24-9.19-3.47-14.12-.33-.92-.67-1.84-1-2.77.06-2.07.02-4.12-.48-6.15.01-3.82-.04-7.64.02-11.46.51-3.73.96-7.48,1.49-11.21.36-2.05,1.14-4,1.52-6.04,1.91-7.1,5.62-13.46,8.38-20.21.37-.02.73-.04,1.1-.06.52-1.61,1.46-2.97,2.49-4.29.39-1.31,1.46-2.09,2.34-3.02,1.44-2.8,3.66-4.88,6.15-6.71.65-1.31,1.62-2.28,2.93-2.93,1.83-2.53,3.97-4.72,6.76-6.2.96-.89,1.76-2.01,3.14-2.34,1.87-1.61,4.04-2.76,6.13-4.04,2.79-1.58,5.6-3.11,8.63-4.22,2.17-.73,4.19-1.83,6.31-2.68,1.01-.55,2.19-.51,3.23-.95,1.85-1.06,4.7.16,5.84-2.54.55-2.64,1.58-4.18,4.22-1.76.82.75,1.8.69,2.78.73.04.16.11.33.1.48-.01.15-.12.28-.18.43,2.1.56,4.08-.43,6.16-.47,6.14-.11,12.23.35,18.31,1.1,2.73.66,5.53,1.06,8.2,1.97,2.14.73,4.53.39,6.57,1.57,2.6,1.38,5.27,2.63,7.91,3.93,3.36,1.89,7.29,2.82,9.89,5.97,1.72.39,2.37,2.41,4.15,2.71,1.49.83,2.87,1.8,3.81,3.27.95.37,1.63,1.03,2.02,1.97,1.99,1.38,3.67,3.06,5.06,5.05.65.64,1.3,1.28,1.94,1.93.85,1.25,1.71,2.48,3.2,3.06.26.65.53,1.3.79,1.95,1,.81,1.2,2.14,2.03,3.06l-.03-.04c1,.79,1.21,2.11,2.03,3.02,5.23,6.11,7.58,13.58,9.97,21.04.21,2.05.13,4.17,1.32,6.01,1.06,1.13.57,2.54.7,3.84-.73,1.41.3,2.82-.01,4.23.32.65.65,1.29.97,1.94-1.1,3.98-.19,8.04-.49,12.05.42,2.3-.81,4.47-.5,6.77,0,1.05,0,2.09,0,3.14-2.19,1.79-.91,5.08-2.97,6.93-.02,1.38-.04,2.75-.05,4.13-1.24,1.38-2.18,2.89-1.95,4.86-.34,1.02-.68,2.03-1.02,3.05-1.38.55-1.62,2.25-2.94,2.87-1.26,5.41-4.36,9.75-8,13.77-.39,1.37-1.95,2.06-2.04,3.6l-8.93,8.68c-1.48.96-2.85,2.07-4.12,3.29-3.54,3.07-7.44,5.51-12.01,6.75-.84,1.59-2.74,1.79-3.91,2.96-1.6.67-3.19,1.33-4.79,2-1.38.11-2.49.64-3.12,1.95-1.71-.25-3.4,1.13-5.12.06-1.29.95-2.67,1.64-4.34,1.53-3.34,1.15-6.83,1.5-10.3,1.94-5.45,0-10.9.01-16.35,0-1.37-.23-2.73-.53-4.07-.93-2.47.02-4.89-.22-7.09-1.48Z"/>
  <path class="cls-367" d="m82.13,251.64c-18.15,0-36.31.02-54.46,0-12.3-.02-17.57-5.42-16.45-17.61,2.72-29.58,10.4-57.87,23.15-84.72,3.88-8.18,11.81-10.36,20.15-5.59,25.13,14.38,50.19,28.9,75.27,43.36,7.21,4.16,14.43,8.28,21.62,12.48,12.16,7.11,17.37,18.61,14.16,31.08-3.38,13.13-13.54,20.88-27.98,20.97-18.49.12-36.97.03-55.46.03Z"/>
  <path class="cls-351" d="m264.12,434.71c0-18.32-.01-36.64,0-54.95.01-14.22,7.51-24.55,20.24-27.97,13.03-3.49,24.47,1.36,31.64,13.74,18.75,32.38,37.42,64.8,56.09,97.23,4.58,7.96,2.16,16.06-6.17,19.98-26.91,12.67-55.22,20.34-84.84,22.96-11.51,1.02-16.96-4.36-16.96-16.03,0-18.32,0-36.64,0-54.95Z"/>
  <path class="cls-213" d="m350.31,316.94c4.77.05,9.18,1.35,13.31,3.73,32.88,18.95,65.78,37.85,98.63,56.86,8.18,4.73,9.93,12.64,4.52,20.38-17.34,24.81-38.44,45.92-63.35,63.16-7.41,5.13-15.59,3.43-20.11-4.34-19.23-33.07-38.51-66.1-57.37-99.38-10.25-18.09,3.57-40.54,24.38-40.41Z"/>
  <path class="cls-370" d="m164.88,292.51c-.43,8.57-4.28,16.63-12.89,21.64-33.23,19.33-66.54,38.53-99.89,57.64-7.8,4.47-15.69,1.77-19.55-6.41-12.98-27.51-20.56-56.5-23.23-86.76-.8-9.07,5.22-14.98,15.13-15,29.65-.05,59.31-.02,88.97-.02,8.16,0,16.33-.14,24.49.04,15.44.35,26.91,12.2,26.98,28.86Z"/>
  <path class="cls-172" d="m165.28,188.16c-4.34.38-8.84-1.18-13.1-3.64-32.71-18.85-65.43-37.67-98.1-56.6-7.9-4.58-9.75-13.09-4.49-20.56,17.11-24.29,37.71-45.14,62.04-62.24,9.14-6.43,16.4-4.85,22.02,4.83,19.05,32.77,38.12,65.54,56.92,98.45,10.05,17.59-3.88,39.81-25.28,39.75Z"/>
  <path class="cls-95" d="m357.52,184.41c-21.64-.06-34.52-20.91-25.29-38.26,17.14-32.23,34.49-64.35,51.81-96.49,4.16-7.71,11.49-9.78,18.95-5.01,24.8,15.86,45.86,35.77,63.3,59.46,4.74,6.44,3.19,14.33-3.68,18.61-31.32,19.51-62.74,38.87-94.14,58.26-3.91,2.41-8.25,3.48-10.94,3.44Z"/>
  <path class="cls-184" d="m274.97,168.1c-8.98-.73-17.96-2.09-27.11-.51.72-.53,1.43-1.06,2.15-1.59,8.34.1,16.71-.67,24.97,1.06.24.23.31.46.23.69-.08.23-.17.34-.25.34Z"/>
  <path class="cls-170" d="m187.97,207.01c-1.65,7.04-5.58,13.18-7.88,19.97-.32.49-.63.49-.95,0,1.7-7.2,4.84-13.78,8.83-19.97Z"/>
  <path class="cls-207" d="m178.03,264.84c1.33,4.69,2.66,9.39,3.99,14.09-.35.49-.71.48-1.08.03-2.02-4.49-4.11-8.96-2.91-14.11Z"/>
  <path class="cls-237" d="m178.96,232.9c-1,3.64-.24,7.57-1.88,11.1-.42-.23-.75-.55-.96-.99-.06-4.13.53-8.17,1.89-12.08.77.44.29,1.48.95,1.97Z"/>
  <path class="cls-252" d="m251.04,333.83c5.98.03,11.97.07,17.95.1.33.18.44.36.33.54-.11.18-.22.27-.33.27-6.28-.01-12.56-.02-18.84-.04-.26-.86-.14-1.33.89-.88Z"/>
  <path class="cls-184" d="m243.01,167.05c.82.1,1.83.07,2.09,1,.26.93-.66.84-1.26.93-2.27.35-4.55.71-6.82,1.07-.23-.2-.31-.4-.24-.6.07-.2.15-.31.23-.31l6-2.09Z"/>
  <path class="cls-195" d="m176.12,243.01c.32.33.64.66.96.99,0,4.3,0,8.6,0,12.9.44,1.05-.07,1.19-.94.97,0-4.95,0-9.91-.01-14.86Z"/>
  <path class="cls-247" d="m227.95,173.87c-2.97,1.38-5.94,2.76-8.92,4.14-1.05.43-1.2-.07-.98-.95,2.94-1.43,5.64-3.37,8.89-4.12,1.06-.48,1.19.06,1.01.93Z"/>
  <path class="cls-346" d="m284.98,169.01c2.33.69,6.13-3.53,6.98,2.09-.4.35-.86.58-1.38.68-2.04-.58-4.49-.33-5.6-2.78Z"/>
  <path class="cls-247" d="m274.97,168.1c0-.34.01-.69.02-1.03,2.99.68,5.98,1.35,8.96,2.03.18.87.04,1.41-1.02.95-2.68-.53-5.47-.64-7.96-1.94Z"/>
  <path class="cls-194" d="m198.87,307.9c3.3.1,4.35,2.48,5.17,5.1-2.19-1.22-4.69-2.14-5.17-5.1Z"/>
  <path class="cls-219" d="m290.91,171.12c.35,0,.7-.01,1.05-.02,1.4,1.71,4.21,1.58,5.13,3.92-3.09,0-5.55-1.72-8.19-2.97.45-.79,1.48-.34,2.01-.94Z"/>
  <path class="cls-254" d="m268.99,334.74c0-.27,0-.54,0-.82,3.33-.65,6.66-1.3,10-1.95.33.18.44.36.33.54-.11.18-.22.27-.33.27-3.19,1.36-6.56,1.83-10,1.95Z"/>
  <path class="cls-242" d="m344.02,256.92c.41-4.29-1.28-8.72.91-12.88-.04,4.28-.08,8.57-.11,12.85-.25.5-.52.49-.8.02Z"/>
  <path class="cls-174" d="m200.04,192.94c-2.01,2.34-4.01,4.68-6.02,7.03-.28-.24-.39-.5-.31-.76.08-.27.16-.4.25-.4,1.14-2.87,2.84-5.17,6.09-5.86Z"/>
  <path class="cls-174" d="m210.01,183.99c-2.35,2.01-4.7,4.01-7.04,6.02.69-3.25,2.99-4.94,5.86-6.09.42-.35.81-.33,1.18.07Z"/>
  <path class="cls-160" d="m290.91,171.12c-.67.31-1.34.62-2.01.93-1.97-.73-4.21-.66-5.97-2.01.34-.32.68-.63,1.02-.95.34-.03.68-.06,1.03-.09,1.73,1.39,3.82,1.79,5.93,2.11Z"/>
  <path class="cls-198" d="m227.95,173.87c-.34-.31-.67-.62-1.01-.93,2.05-.93,4.1-1.85,6.15-2.78.48.15.81.47,1.02.92-2.05.93-4.11,1.86-6.16,2.79Z"/>
  <path class="cls-210" d="m218.04,177.06c.33.32.66.63.98.95-2.01,1.31-4.02,2.62-6.02,3.93-.57-.36-.59-.75-.06-1.16,1.3-1.79,3.35-2.54,5.1-3.72Z"/>
  <path class="cls-253" d="m340.97,272.93c1.38-2.14-.46-5.67,2.97-6.93-1.25,2.2.07,5.5-2.97,6.93Z"/>
  <path class="cls-169" d="m322.02,194c-2.09-1.28-3.79-2.95-5.06-5.05,2.8.56,4.54,2.2,5.06,5.05Z"/>
  <path class="cls-198" d="m176.13,257.88c.31-.32.63-.65.94-.97,1.34,1.73,1.45,3.46-.04,5.17-1.34-1.18-.97-2.72-.9-4.2Z"/>
  <path class="cls-179" d="m178.96,232.9c-.79-.43-.89-1.19-.95-1.97-.06-1.44.35-2.75,1.12-3.95.32,0,.63,0,.95,0-.37,1.98-.75,3.95-1.12,5.93Z"/>
  <path class="cls-209" d="m311.12,183.95c-2.08,0-3.2-1.35-4.14-2.96,2.76-1.78,2.9,2.43,4.98,2.19.12.7-.06,1.07-.85.77Z"/>
  <path class="cls-225" d="m240.82,331.96c2.39.32,4.78.64,7.17.96.25.23.34.46.26.69-.08.23-.16.35-.24.35-2.21-.18-4.5.24-6.6-.83-.19-.39-.39-.78-.58-1.18Z"/>
  <path class="cls-221" d="m311.12,183.95c.28-.26.57-.51.85-.77,1.72.69,2.95,1.78,2.98,3.8-1.41-.84-3.25-1.13-3.83-3.03Z"/>
  <path class="cls-192" d="m338.97,281.92c-.91-2.24-.72-4.05,1.95-4.86-.65,1.62-1.3,3.24-1.95,4.86Z"/>
  <path class="cls-231" d="m344.02,256.92c.27,0,.54,0,.8-.02.31,2.08.23,4.1-.88,5.97-2.25-2.01.65-3.95.07-5.94Z"/>
  <path class="cls-184" d="m234.1,171.08c-.34-.31-.68-.61-1.02-.92,1.18-.83,2.46-1.25,3.92-1.03,0,.3,0,.61,0,.91-.71,1.08-1.85.94-2.91,1.03Z"/>
  <path class="cls-214" d="m180.94,278.96c.36,0,.72-.02,1.08-.03,1.02,1.58,1.19,3.33,1.03,5.14-1.55-1.36-2.01-3.16-2.11-5.11Z"/>
  <path class="cls-197" d="m327.17,198.99c-2.6.59-2.77-1.37-3.2-3.06,1.3.78,2.97,1.16,3.2,3.06Z"/>
  <path class="cls-260" d="m343.28,234.03c-1.81-1.7-2.27-3.7-1.32-6.01,1.3,1.81.88,4.01,1.32,6.01Z"/>
  <path class="cls-159" d="m190.06,296.99c2.43.28,2.66,2.19,2.99,4.03-1.49-.98-2.87-2.04-2.99-4.03Z"/>
  <path class="cls-247" d="m343.97,242.1c-1.16-1.41-1.63-2.83.01-4.23.51,1.41,1.84,2.83-.01,4.23Z"/>
  <path class="cls-210" d="m193.02,301.91c3.14-1,2.51,1.63,3.03,3.15-1.32-.75-2.33-1.8-3.03-3.15Z"/>
  <path class="cls-168" d="m311.92,317.18c.61-2.05,2-3.13,4.12-3.29-.93,1.65-2.19,2.88-4.12,3.29Z"/>
  <path class="cls-155" d="m296,326.89c.63-1.88,2.5-2.12,3.91-2.96-.16,2.5-2.12,2.62-3.91,2.96Z"/>
  <path class="cls-162" d="m191.94,202.97c-.96,1.33-1.91,2.66-2.87,3.99-.25-1.71.16-3.13,1.74-4.05.41-.54.78-.52,1.13.06Z"/>
  <path class="cls-184" d="m212.95,180.78c.02.39.04.77.06,1.16-1,.68-1.99,1.37-2.99,2.05-.39-.02-.79-.05-1.18-.07,1-1.54,2.26-2.72,4.12-3.14Z"/>
  <path class="cls-184" d="m191.94,202.97c-.38-.02-.75-.04-1.13-.06.42-1.85,1.62-3.11,3.15-4.11.02.39.04.78.06,1.17-.69,1-1.39,2-2.08,3Z"/>
  <path class="cls-195" d="m324.97,305.2c-1.25-2.29,1.06-2.56,2.04-3.6.15,1.67-.83,2.7-2.04,3.6Z"/>
  <path class="cls-260" d="m335.01,287.83c.74-1.2.9-2.99,2.94-2.87-.75,1.19-.86,3.03-2.94,2.87Z"/>
  <path class="cls-159" d="m248,333.96c0-.35,0-.7-.01-1.05,1.12-.05,2.26-.16,3.05.91-.3.29-.59.59-.89.88-.85.13-1.62.05-2.15-.74Z"/>
  <path class="cls-210" d="m331.98,206.98c-1.3-.59-1.96-1.6-2.03-3.02,2.08.06,2.02,1.57,2.03,3.02Z"/>
  <path class="cls-222" d="m329.99,204c-1.3-.61-1.99-1.62-2.03-3.06,2.03.13,2.06,1.57,2.03,3.06Z"/>
  <path class="cls-254" d="m278.99,332.79v-.81c1.33-.36,2.65-.72,3.98-1.08-.72,1.9-2.26,2.09-3.98,1.89Z"/>
  <path class="cls-230" d="m288.09,330.83c.07-2.2,1.18-2.73,3.11-1.95-1.04.65-2.08,1.3-3.11,1.95Z"/>
  <path class="cls-335" d="m451.8,322.68c-.57,1.42-1.14,2.84-1.7,4.26-.06,2.78-2.44,3.05-4.27,3.92-.71.28-1.43.57-2.14.85-1.17,1-2.35.97-3.53.02-2.45-1.15-4.56-2.74-6.31-4.81-.66-.89-1.45-1.74-.97-3,.05-1.87.11-3.75.16-5.62.78-2.67,1.82-5.16,4.53-6.49,4.07-.62,5.59-3.24,5.53-7.09.63-2.66.84-5.36.85-8.09,0-.51.04-1.01.1-1.52.2-.74.36-1.49.97-2.04,1.03-3.36,2.06-6.72,3.08-10.08.36-1.15.8-2.25,1.9-2.92.96-1.45,1.92-2.89,2.88-4.34,1.17-1.5,1.24-4.13,4.06-3.94,1.01,3.24-1.64,5.47-2.35,8.24-1,3.94-3.47,7.56-2.49,11.91.19.72-.13,1.32-.44,1.93-1.39,2.15.26,5.03-1.65,7.05-.27.28-.96.07-.98.47-.02.44.68.19.96.5.7.77.59,1.56.12,2.38-4.12,5.47-1.68,10.2,1.66,14.84.98,1.18.93,2.36.03,3.56Z"/>
  <path class="cls-330" d="m431.93,314.9c-9.21,3.67-15.9-3.13-14.17-10.08,1.22-4.89,5.16-6.51,9.39-7.77.52-.74,1.04-.76,1.55,0,2.86,1,5.74,1.96,8.27,3.7,1.01-.41,2.05-.55,3.13-.45,1.47.58,1.79,1.76,1.67,3.17-1.36,2.7-4.23,4.48-4.74,7.72-1.24,1.88-2.54,3.67-5.11,3.7Z"/>
  <path class="cls-330" d="m453.85,300.92c-.49-2.58,1.24-2.72,3.13-3.25,5.14-1.42,10.83-1.48,14.97-5.6.51-.73,1.24-.63,1.97-.53.96.47,1.46,1.26,1.57,2.31-.18,2.13-2.2,2.19-3.48,3.09-4.64,2.76-9.53,4.88-14.69,6.55-2.19.71-2.98.49-3.43-1.57-.33-.21-.45-.42-.35-.65.1-.23.2-.35.31-.35Z"/>
  <path class="cls-72" d="m436.14,310.92c.88-2.83,1.03-6.18,4.85-6.97.88-1.1.2-2.41.47-3.6.13-.16.27-.32.4-.47,2.23-1.46-.04-4.46,2.05-5.97.42.23.72.56.94.98-.02.35-.03.7-.05,1.05-1.01,3.07.23,6.32-.75,9.39,1.29,5.22-1.79,6.86-6.12,7.48-.74-.5-1.37-1.09-1.78-1.9Z"/>
  <path class="cls-269" d="m436.14,310.92c1.22.04,1.75.73,1.78,1.9-1.63,1.82-3.25,3.65-4.88,5.47-.37-1.13-.74-2.26-1.11-3.39,1.4-1.33,2.8-2.65,4.21-3.98Z"/>
  <path class="cls-109" d="m451.08,292.97c.34-.34.68-.67,1.01-1.01,1.64,2.86-.51,6.07.84,8.95-.73.71-1.31,2.28-2.48.43.27-2.78-.69-5.66.63-8.37Z"/>
  <path class="cls-3" d="m451.08,292.97c-.29,2.97-.7,5.95.05,8.91.46.73.37,1.4-.21,2.03-.26.15-.53.28-.82.38-.35-.78-.7-1.57-1.05-2.35-.24-.26-.3-.5-.19-.72.1-.21.2-.32.29-.32,1.97-2.32-.7-5.76,1.93-7.92Z"/>
  <path class="cls-33" d="m456.93,271.8c-1.35,1.31-2.71,2.63-4.06,3.94-.17-2.68,1.48-4.45,3.56-5.35,1.55-.67.44.85.5,1.41Z"/>
  <path class="cls-251" d="m473.93,292.13c-.66-.02-1.32-.04-1.98-.06,1.01-1.71,2.85-2.34,4.5-2.75,1.52-.37.46.97.46,1.58-.71,1.12-1.51,1.99-2.99,1.23Z"/>
  <path class="cls-302" d="m472.02,296.94c.97-1,1.94-2,2.91-3,.44-.68.8-1.51,1.88-1.07.19,3.45-2.29,3.77-4.78,4.07Z"/>
  <path class="cls-34" d="m445.83,330.86c1.42-1.31,2.84-2.62,4.27-3.92.91,3.84-1.77,3.79-4.27,3.92Z"/>
  <path class="cls-71" d="m450,280.08c-.31,1.19-.76,2.28-1.9,2.92-.48-1.7-.9-3.36,1.9-2.92Z"/>
  <path class="cls-24" d="m428.71,297.05c-.52,0-1.03,0-1.55,0-.76-.17-1.52-.35-2.28-.52.02-.2.04-.4.06-.6,1.43,0,3.07-.43,4.26.1,1.72.78-.33.64-.48,1.03Z"/>
  <path class="cls-26" d="m451.8,322.68c-.01-1.19-.02-2.37-.03-3.56,2.3,1.26,1,3.07.73,4.73l-.7-1.17Z"/>
  <path class="cls-25" d="m416.35,304.7c.74,1.53.61,2.87.1,4.41-.77-1.52-.66-2.86-.1-4.41Z"/>
  <path class="cls-36" d="m450.92,303.91c.07-.68.14-1.35.21-2.03.6-.32,1.2-.65,1.8-.97.31,0,.61,0,.92,0,.02.33.03.67.05,1-1.02.63-1.42,2.17-2.98,1.99Z"/>
  <path class="cls-297" d="m439.85,300.79l-2.87-.03c1.51-.93,2.83-2.94,4.88-.88,0,0,.02.12.02.12-.53.65-1.4.4-2.03.8Z"/>
  <path class="cls-25" d="m440.16,331.72c1.18,0,2.35-.01,3.53-.02.74,1.97-1.08,1.24-1.47,1.1-.69-.24-2.5,1.25-2.06-1.08Z"/>
  <path class="cls-28" d="m444.85,294.89c-.31-.33-.62-.65-.94-.98,0-.94,0-1.87,0-2.95,1.52.36.7,1.51,1.1,2.12-.06.61-.11,1.21-.17,1.82Z"/>
  <path class="cls-1" d="m476.81,292.87c-.63.36-1.25.71-1.88,1.07-.33-.6-.66-1.21-1-1.81,1-.41,1.99-.82,2.99-1.23-.04.66-.08,1.32-.12,1.97Z"/>
  <path class="cls-299" d="m432.88,323.91c.32,1,.64,2,.97,3-2.08-.44-2.49-1.41-.97-3Z"/>
  <path class="cls-283" d="m444.71,197.12c2.23.64,4.34,1.54,6.13,3.06,1.97.51,2.96,1.94,3.55,3.76-.15,3.37,1.87,5.69,3.72,8.19,1.1,1.48,2.95,2.61,2.93,4.8,2.12,6.4,1.62,7.83-3.42,9.81-1.19,1.27-2.61.58-3.96.47-4.77-1.11-9.57-.88-14.38-.26-3.81.02-7.84,2.23-11.3-1.13-1.36-3.13-1.52-6.25.07-9.36,2.7-4.68,5.94-9.09,7.25-14.46,1.91-2.99,4.31-5.22,8.15-5.17.48-.18.9-.1,1.26.29Z"/>
  <path class="cls-342" d="m458.87,195.02c.66.03,1.32.09,1.99.09,3.15-.02,6.77-1.26,8.4,2.91,1.77,4.52.67,8.44-2.85,11.71-.48.45-.97.89-1.46,1.33-5.72,2.67-9.45.42-10.74-6.49.13-3.05,2.16-5.4,3.02-8.19.25-.43.57-.8.96-1.1.23-.09.46-.17.69-.26Z"/>
  <path class="cls-338" d="m423.97,211.84c-.11-1.95-1.92-2.63-3.03-3.71-3.45-3.34-3.7-7.1-1.22-10.75,1.95-2.88,5.1-3.15,8.32-1.72.55.25,1.28.1,1.92.13.25-.05.51-.1.76-.16.22.14.43.28.66.42.35.4.62.84.83,1.32,1.57,3.14,2.45,6.38,1.48,9.89-2.42,4.81-4.18,5.64-9.71,4.57Z"/>
  <path class="cls-8" d="m446.04,188.18c1.44-2.16.97-5.36,3.33-6.91,2.24-1.46,5-2.33,7.52-1.12,2.33,1.11,3.01,3.58,3.31,6.17.36,3.07-1.7,5.68-1.33,8.7,0,0,.11-.08.11-.08-.28.22-.57.4-.89.56-.29.2-.55.44-.78.71-.39.41-.85.64-1.43.55-5.09.95-8.14-1.38-9.74-6.04-1.05-.81-.88-1.66-.09-2.53Z"/>
  <path class="cls-339" d="m430.73,195.01c-.35-3.36-2.99-6.34-1.8-9.91.67-2.03.52-4.76,3.7-5.09,2.98-.31,5.85-.58,7.57,2.69.45.85,1.21,1.54,1.83,2.31,1.55,1.78,1.58,3.86,1.22,6.03-3.03,7.44-6.34,8.75-12.37,4.9l.11.1c-.25-.18-.37-.4-.36-.64,0-.26.04-.39.1-.39Z"/>
  <path class="cls-41" d="m454.78,203.99c1.77,6.55,4.14,8.2,10.16,7.06-.16.44-.31,1.27-.49,1.28-3.08.13-3.65,2.06-3.42,4.61-2.33-2.96-5.81-4.95-7.2-8.69-.54-1.46-1.88-2.85-.3-4.44.48-.39.9-.33,1.24.19Z"/>
  <path class="cls-40" d="m423.97,211.84c3.97.16,7.36-.74,9.02-4.86,1.69-1.39-1.49-5.01,2.45-5.37.21.15.41.3.62.46-.37,6.08-3.23,10.78-8.01,14.41,1.75-4.28-2.97-2.87-4.08-4.63Z"/>
  <path class="cls-120" d="m430.88,195.94c5.27,1.27,9.99,1.24,11.93-5.17.73.7.73,1.45.11,2.22-.34.99-.67,1.97-1.01,2.96.54.78,1.75.28,2.23,1.17-3.44.44-5.49,3.14-8.09,4.95l-.2-.09c.05-1.43-1.1-2.75-2.94-3.46-.76-.29-1.27-.95-1.81-1.53-.08-.35-.15-.7-.23-1.04Z"/>
  <path class="cls-111" d="m454.78,203.99c-.41-.06-.83-.13-1.24-.19-1.43-.81-1.98-2.28-2.69-3.63,1.45-1.46,4.2-1.03,5.02-3.42.3-.27.59-.54.89-.81.31-.19.65-.3,1.02-.36.08.16.16.33.24.49-.04,3.06-1.55,5.52-3.23,7.92Z"/>
  <path class="cls-88" d="m427.98,225.83c3.62,1.77,7.32.48,10.98.24,1.18.95,2.84-.19,3.98.92-5.08.72-10.35,4.07-14.97-1.17Z"/>
  <path class="cls-47" d="m442.94,226.99c-1.36-.18-2.89.42-3.98-.92,5.08-.49,10.15-.89,15.11.83-.81,1.05-2.28.07-3.11,1.03-2.54-1.46-5.32-.83-8.01-.94Z"/>
  <path class="cls-153" d="m442.93,192.99l-.11-2.22c-.26-1.92-.52-3.84-.79-5.76,3.52,2.3,2.05,5.16.9,7.98Z"/>
  <path class="cls-137" d="m450.96,227.93c.76-1.17,2.02-.86,3.11-1.03,1.18-.05,2.36-.1,3.55-.15-1.8,2.75-4.49.53-6.66,1.18Z"/>
  <path class="cls-132" d="m461.19,188.75v-4.19c1.07,1.73.81,3.05,0,4.19Z"/>
  <path class="cls-142" d="m446.04,188.18c.03.84.06,1.69.09,2.53-2.35-.04-.76-1.82-1.15-2.72-.08-.19-.35-1.45.75-.68.21.14.21.57.31.86Z"/>
  <path class="cls-138" d="m427.53,188.83c-.67-1.33-.82-2.57-.22-3.91,1.15,1.36.18,2.71.22,3.91Z"/>
  <path class="cls-116" d="m444.15,197.11c-.74-.39-1.49-.78-2.23-1.17,1.13.02,2.25.02,3.38.07.58.02.8.31.31.75-.22.2-.59.24-.89.36,0,0-.28.13-.28.13l-.28-.13Z"/>
  <path class="cls-82" d="m430.73,195.01c.09.34.17.69.26,1.03-.34-.09-.69-.17-1.03-.26.26-.26.52-.52.77-.77Z"/>
  <path class="cls-288" d="m303.98,75.06c-2.14,3.29-.59,6.92-.9,10.37-.18,1.99-.54,3.09-2.79,2.92-4.24-.31-9.21,1.44-11.4-4.3-1.57-5.01-1.28-10.02-.05-15.04,5.56-6.99,11.52-13.58,18.96-18.68.49-.06,1.11-.2,1.46.07,7.05,5.43,13.81,11.15,18.42,18.96v-.24c1.33,4.91,1.07,9.84.15,14.77-1.62,3.62-10.3,6.35-13.34,4.2-.97-.69-.75-1.75-.77-2.7-.06-3.13-.08-6.25-.13-9.38,0-.08-.18-.23-.23-.22-.15.05-.28.17-.41.26-.47.54-.75.46-.84-.25l.06.1c-2.67-1-5.58.42-8.22-.84Z"/>
  <path class="cls-335" d="m303.93,39.94c5.94-2.74,10.08.41,13.99,4.29,2.34-.89,2.64-6.36,6.85-3.03.38.89,1.21,1.88,1.05,2.67-1.46,7.09,2.17,11.62,7.16,15.92,3.6,3.1,2.71,5.29-2.05,6.42-2.43.38-3.52-1.59-4.89-2.92-4.77-4.65-9.39-9.45-14.19-14.07-1.32-1.28-2.49-3.47-4.98-1.93-4.53,4.55-9.02,9.14-13.6,13.63-1.27,1.24-2.33,2.83-4.34,3.04-.99.77-1.98,1.55-2.98,2.32-.98.66-1.97.67-2.96.02-1.68-1.06-1.19-2.74-1.21-4.27-.07-1.98,1.62-2.79,2.73-3.92,5.11-5.21,10.27-10.37,15.49-15.48,1.12-1.1,1.91-2.82,3.92-2.69Z"/>
  <path class="cls-264" d="m288.95,63.94c5.72-5.96,11.44-11.91,17.16-17.87,1.81-1.1,3.16-.19,4.37,1.07,6.45,6.7,13.47,12.83,19.49,19.95-.43.8-1.16.97-1.98.99-5.48-4.36-9.95-9.77-15.05-14.53-1.41-1.32-2.48-3.26-4.89-2.96-5.79,3.4-9.48,9.07-14.47,13.33-1.4,1.2-2.16,3.43-4.59,3.16-.01-1.04-.03-2.09-.04-3.13Z"/>
  <path class="cls-52" d="m329.97,67.09c-6.16-6-12.33-11.99-18.47-18-1.53-1.5-2.87-3.29-5.39-3.02,2.29-2.4,3.87-.71,5.51.92,6.43,6.41,12.88,12.8,19.32,19.2-.32.3-.65.59-.97.89Z"/>
  <path class="cls-104" d="m303.93,39.94c-7.38,7.36-14.75,14.72-22.13,22.08-1.32-1.29-.12-2.08.64-2.85,6.19-6.23,12.41-12.44,18.64-18.64.77-.76,1.57-1.96,2.84-.59Z"/>
  <path class="cls-52" d="m307.99,50.1c1.59-.15,2.89.35,4.03,1.53,5.3,5.5,10.65,10.97,15.98,16.44-.1.43-.19.86-.29,1.29-5.16-5.06-10.3-10.15-15.5-15.17-1.27-1.23-2.24-2.91-4.22-3.24-.35-.19-.47-.38-.35-.57.12-.19.23-.28.35-.28Z"/>
  <path class="cls-60" d="m307.99,50.1c0,.28,0,.57,0,.85-5.95,5.73-11.9,11.46-17.86,17.19-.4.37-.79.35-1.15-.06,0-.34,0-.67,0-1.01,4.86-4.7,9.71-9.41,14.59-14.08,1.28-1.22,2.28-2.93,4.41-2.89Z"/>
  <path class="cls-49" d="m288.98,68.08c.38.02.77.04,1.15.06-2.31,5.16-.27,10.66-1.23,15.92-2.79-2.81-2.75-11.63.08-15.98Z"/>
  <path class="cls-67" d="m303.98,75.06c2.76.12,5.67-1.29,8.22.84q-7.16.4-7.22,7.67c0,1.11,0,2.23-1,3.35v-11.86Z"/>
  <path class="cls-368" d="m324.77,41.2c-2.3-.24-4.18,0-4.71,2.9-.36,1.97-1.34,1.31-2.14.14.77-1.58,1.32-3.41,2.92-4.32,1.59-.91,3.57-2.01,3.93,1.28Z"/>
  <path class="cls-31" d="m327.85,83.89c-.05-4.92-.11-9.85-.16-14.77,2.6,4.81.94,9.91.99,14.89,0,.04-.27.13-.4.1-.15-.03-.28-.15-.43-.23Z"/>
  <path class="cls-39" d="m312.14,75.8c.31,0,.59.08.84.25v10.71c-.28,0-.56.02-.84.02v-10.98Z"/>
  <path class="cls-29" d="m301.75,89.82h-8.75c0-.15,0-.3,0-.45h8.77c0,.15-.02.3-.02.45Z"/>
  <path class="cls-29" d="m315.02,89.37h7.79c-2.59.93-5.18.78-7.79,0Z"/>
  <path class="cls-43" d="m283.01,66.29c.99,0,1.97-.02,2.96-.02-.15.98-.46,1.8-1.69,1.67-.97-.11-1.12-.88-1.26-1.64Z"/>
  <path class="cls-100" d="m306.81,37.57c1.04-.69,2.06-.61,3.43-.03-1.32.71-2.33.76-3.43.03Z"/>
  <path class="cls-140" d="m181.84,80.04c-.33,0-.66,0-.99-.03-.24-.57-.34-1.16-.31-1.77.36-10.8-.31-21.6.35-32.4.69-2.77,3.08-2.21,5.01-2.56.25-.39.5-.79.75-1.18,2,.07,3.54-1.4,5.44-1.66.66-.14,1.31-.13,1.98-.01,1.78.45,3.55.71,5.32-.01.61-.25,1.25-.34,1.91-.32.27.01.54.03.81.05.49,1.23,1.21,2.11,2.72,1.7.05.34.09.69.14,1.03.84,1.81,1.96,2.81,3.95,1.41.07-.47.14-.94.21-1.41,1.23-.53,2.25-1.57,3.72-1.53.12-.54.23-1.08.35-1.63.68-.01,1.26.27,1.83.59,1.66.93,3.36.39,5.06.17,1.2.05,2.26.37,2.82,1.57.75.03,1.5.05,2.24.08,2.51.56,5.1.71,7.56,1.58.5.25.78.64.86,1.2.06.55.03,1.08-.08,1.62-.14,10.23-.24,20.45.07,30.66.08.56.02,1.11-.17,1.65-.7,1.04-1.78,1.13-2.89,1.17-1.29-.08-2.46-.61-3.64-1.06-1.73-.74-3.68-.95-5.24-2.11-2.56-2-5.24-2.12-8.04-.52-.43.27-.89.46-1.38.6-.52.11-1.04.13-1.57.07-3.3-.87-2.82-3.62-2.98-6.03-.42-6.21.77-12.47-.64-18.59-1.38,5.9-.27,11.83-.63,17.71-.15,2.43.35,5.04-1.94,6.87-.42.29-.89.49-1.39.61-1,.12-1.88-.23-2.69-.76-.34-.27-.62-.61-.84-.98-1.92-1.13-3.76-.66-5.58.27-.35.28-.72.52-1.1.75-1.16.66-2.4,1.12-3.65,1.55-1.92.52-3.77,1.2-5.49,2.22-.72.14-1.36-.01-1.87-.57Z"/>
  <path class="cls-244" d="m233.05,43.09c3.02-.14,4.01,1.42,3.99,4.29-.09,9.75-.03,19.5-.03,29.25,0,1.86.07,3.74-2.31,4.32-1.69-4.27-.99-8.75-1.06-13.14-.12-7.06.05-14.13-.09-21.2-.08-.86.05-1.76-.5-2.52v.04c-.57-.35-.57-.69,0-1.04Z"/>
  <path class="cls-6" d="m234,44.74c.32.52.93,1.05.93,1.57-.04,11.54-.14,23.09-.24,34.63-1.22,0-2.45-.01-3.67-.02-.81-.32-1.49-.7-.85-1.73.97-.03,1.93-.06,2.9-.09-.09-9.54-.07-19.09-.05-28.63,0-1.95-.32-3.99.98-5.74Z"/>
  <path class="cls-313" d="m181.13,79c-.09.34-.18.67-.27,1.01-.46.34-.93.68-1.39,1.02-.27-.19-.77-.39-.77-.58.02-12.11-.72-24.23.36-36.33.29-.14.6-.22.93-.22.47.41.78.93.91,1.54.34,10.88,0,21.77.18,32.65.02.3.04.6.06.9Z"/>
  <path class="cls-76" d="m179.05,44.12c.22,12.3-.56,24.62.41,36.91-1.08-.41-1.41-1.29-1.41-2.35,0-11.36-.01-22.72-.01-34.08,0-.14.09-.38.18-.41.26-.07.55-.06.83-.08Z"/>
  <path class="cls-257" d="m230.18,79.19c.28.58.57,1.16.85,1.73-.32.65-.64,1.31-.97,1.96-.27.54-.62.58-1.05.18-1.66-.66-3.32-1.33-4.97-1.99-.58-.62-.62-1.31-.31-2.06.94-1.08,2.25-.88,3.47-1.01.99.39,1.98.79,2.97,1.18Z"/>
  <path class="cls-281" d="m181.84,80.04c.78-.02,1.57-.05,2.35-.07,1.05-.89,2.19-.97,3.42-.4.41.29.69.67.87,1.14.06.5-.08.95-.38,1.35-2.91,1.89-5.21,1.88-6.26-2.02Z"/>
  <path class="cls-333" d="m201.24,80.27c-2.32,1.45-4.86.4-7.29.64-.25-.37-.28-.76-.1-1.18.36-.55.85-.94,1.48-1.15,1.49-.2,2.85-.88,4.33-1.16.73,0,1.36.21,1.8.84.28.71.31,1.39-.22,2.01Z"/>
  <path class="cls-340" d="m201.3,40.1c-.45.37-.9.74-1.35,1.11-1.22.63-2.51.33-3.79.27-1.12-.64-2.6-.56-3.46-1.73.04-.62.37-.99.99-1.11,2.43.28,5-.78,7.3.77-.06.3.04.53.31.69Z"/>
  <path class="cls-320" d="m203.99,83.87c-.06-.59-.12-1.18-.18-1.77.17-.18.35-.37.52-.55,1.4-.76,2.92-.74,4.45-.65.51.08.98.25,1.42.5.48.89.84,1.77-.13,2.59-2.05,1.1-4.06.61-6.08-.12Z"/>
  <path class="cls-347" d="m233.05,43.09c0,.35,0,.69,0,1.04-2.88.33-5.42-.7-7.89-1.99,2.72-.4,5.35-.15,7.89.95Z"/>
  <path class="cls-323" d="m214.02,41.1c-.27-.46-.55-.91-.82-1.37,0,0-.15-.19-.15-.19,2.54-1.72,5.18-1.1,7.82-.31.08.26.21.5.39.71-.96.95-2.34.98-3.47,1.57-1.27-.01-2.59.43-3.77-.41Z"/>
  <path class="cls-187" d="m214.14,81.29c-.8-.41-1.61-.82-2.41-1.22-.14-.53,0-.99.41-1.35,2.45-.57,4.9-1.07,7.22.46.31.81.18,1.53-.41,2.18-1.61.3-3.21.36-4.8-.06Z"/>
  <path class="cls-331" d="m219.09,80.87c0-.53,0-1.06,0-1.6.29-.49.7-.84,1.23-1.03,1.41-.35,2.74-.34,3.8.85-.03.66-.05,1.32-.08,1.98-1.29,2.32-2.74-.77-4.07.11-.46.34-.75.24-.88-.32Z"/>
  <path class="cls-167" d="m201.24,80.27c-.09-.74-.17-1.49-.26-2.23.17-.59.53-.96,1.17-1.01.28,0,.56.03.84.08,1.22.18,1.97.96,2.5,2,.12.44.15.88.08,1.33-.22.71-.74,1.09-1.42,1.29-.02.22-.13.35-.35.37-.74-.77-1.18-1.97-2.57-1.83Z"/>
  <path class="cls-278" d="m220.87,39.23c-2.61-.07-5.24-.46-7.82.31,2.32-2.62,5.24-1.17,7.94-1.13.04,0,.13.27.11.4-.03.15-.15.28-.23.42Z"/>
  <path class="cls-309" d="m180.03,45.08c-.02-.39-.03-.78-.05-1.18,1.9-.96,3.81-1.82,5.93-.62-1.3.59-2.6,1.17-3.9,1.76-.24.34-.57.54-.98.61-.41-.06-.75-.25-1.01-.57Z"/>
  <path class="cls-332" d="m192.34,41.3c-1.83.73-3.54,2.25-5.68.8.46-.41.93-.81,1.4-1.22.77-.99,1.71-1.51,2.99-1.09.69.29,1.09.82,1.3,1.51Z"/>
  <path class="cls-315" d="m208.92,44.29c-.55.88-.69,2.69-1.8,2.38-1.52-.43-2.14-2.11-2.14-3.78,1.01,1.32,2.53,1.22,3.95,1.41Z"/>
  <path class="cls-295" d="m229.01,83.07c.35-.06.7-.12,1.05-.18,1.39.15,2.78.31,4.17.46-1.95,1.94-3.61,1.11-5.22-.28Z"/>
  <path class="cls-279" d="m200.99,39.41c-2.64-.04-5.28-.09-7.91-.13-.31-.25-.43-.5-.33-.76.09-.27.19-.4.29-.4,2.64.53,5.66-1.3,7.96,1.29Z"/>
  <path class="cls-236" d="m193.04,38.11c.01.39.03.78.04,1.16-.03.25-.13.47-.29.67-.44.8-1.07.64-1.72.33-1.14-.46-2.04.24-3.01.61.58-2.86,3.65-1.26,4.98-2.77Z"/>
  <path class="cls-226" d="m203.99,83.87c2.03.04,4.05.08,6.08.12-2.06,1.59-4.09,1.77-6.08-.12Z"/>
  <path class="cls-318" d="m204.84,41.85c-.46.69-.31,2.21-1.8,1.54-1.47-.66-1.58-1.88-.93-3.24.91.57,1.82,1.13,2.72,1.7Z"/>
  <path class="cls-350" d="m212.85,41.35c-1.13.77-2.12,1.89-3.72,1.53.75-1.69,1.71-2.88,3.72-1.53Z"/>
  <path class="cls-316" d="m218.05,40.91c.85-1.03,2.11-.72,3.2-.97,1.46,0,1.92.78,1.66,2.12-.99-.25-1.98-.51-2.97-.76-.72.29-1.41.46-1.89-.39Z"/>
  <path class="cls-280" d="m219.09,80.87c.3.08.6.19.88.32-1.92,1.38-3.86,1.3-5.83.1,1.65-.14,3.3-.28,4.94-.41Z"/>
  <path class="cls-245" d="m210.2,81.4c-.4.15-.79.3-1.19.46-.55-.48-.6-1.08-.42-1.73.45-.81,1.1-1.28,2.06-1.23.42.21.56.54.42.99-.29.5-.59,1.01-.88,1.51Z"/>
  <path class="cls-186" d="m192.16,81.22c-.56.73-1.3.97-2.19.76-.3-.28-.47-.62-.52-1.02.05-.41.21-.76.47-1.07.39-.14.77-.16,1.17-.03.55.29.97.7,1.06,1.35Z"/>
  <path class="cls-292" d="m192.16,81.22c-.36-.35-.72-.7-1.07-1.05.15-.17.3-.34.45-.51.42-.19.86-.27,1.32-.25.45.11.82.35,1.11.71.03.26.03.52,0,.78-.6.1-1.19.21-1.79.31Z"/>
  <path class="cls-345" d="m190.02,80.78c-.02.4-.03.8-.05,1.21-.62.02-1.25.05-1.87.07-.08-.29-.05-.57.06-.84.48-.74,1.12-.79,1.85-.43Z"/>
  <path class="cls-79" d="m211.08,79.89c-.05-.27-.09-.55-.1-.83.14-.1.27-.21.41-.31.36-.04.65.1.88.38-.18.31-.35.62-.53.93-.21-.1-.42-.16-.65-.17Z"/>
  <path class="cls-93" d="m213.99,271.8c.11-.87.53-1.43,1.34-1.89,5.37-3.09,7.87-7.67,7.91-13.97.04-6.03-1.02-12.13.72-18.09,1.2,6.52.17,13.07.62,19.6-.33-6.81.44-13.64-.43-20.45.55-3.02,1.69-5.75,3.92-7.94,1.14-.51,1.83-1.56,2.74-2.35,1.26-1.06,2.25-2.36,3.22-3.67,3.77-3.14,8.09-4.85,13.01-5.01,2.33,1.24,5.07-.42,7.38,1.05,1.04,3.03.59,6.13.35,9.21-.77,1.83-2.53,1.51-3.99,1.81-1.33.37-2.7.7-3.74,1.73-5.27,2.56-7.9,7.21-9.83,12.42-1.33,6.21-.82,12.44-.23,18.67-.39,4.52-1.84,8.59-4.97,11.97-1.73.86-2.8,2.4-3.96,3.85-3,3.29-6.61,5.45-11.08,6.04-6.64-1.07-13.37.31-20.02-.74-.76-3.31-.39-6.64-.23-9.97,3.78-2.32,7.95-.59,11.9-1.15,1.83-.21,3.72-.1,5.38-1.12Z"/>
  <path class="cls-92" d="m316.99,284.88c-10.39.67-15.12-1.62-18.06-8.74-.59-2.17-.83-4.38-.93-6.62-.01-25.19-.01-50.39.01-75.58,0-1.96-.4-3.99.65-5.85,3.51-1.15,7.07-.55,10.62-.32l-.04-.2c.51,24.63.06,49.27.25,73.9.02,2.91-.52,5.89.35,8.5-.66-.53-.33-1.59-.33-2.55-.01-25.8-.01-51.61-.01-77.41,0-.83-.04-1.67.4-2.43,2.02.84.86,2.57.86,3.78.09,24.75.06,49.5.08,74.25,0,1.99.14,3.98.21,5.97,1.78,1.92,4.24.21,6.2,1.18l-.08-.08c.38,4.08.7,8.16-.17,12.22Z"/>
  <path class="cls-93" d="m276.01,276.1c7.91-3.86,6.8-10.33,4.94-17.02-.69-1.64-2.15-2.69-3.18-4.07-.22-1.45.46-2.07,1.87-2.01.46.38.92.75,1.38,1.13,1.05,1.52,2.37,2.78,3.89,3.83,3.89,4.28,4.95,9.64,2.11,14.21-3.3,5.31-7.23,11.01-14.94,10.77-2.58,1.19-5.44-.22-8.03.84-13.66-1.62-21.5-15.7-16.54-30.07,1.95-5.64,4.88-10.75,10.56-13.6,1.65.36,3.29.53,4.91-.1.96-.02,1.53.27,1.07,1.36,1.71,1.48,1.17,3.71,1.82,5.54-.5,3.62-3.58,5.49-5.51,8.13-1.36,1.37-1.68,3.04-1.41,4.89-.64,3.64-.17,7.15,1.15,10.57.68,1.84,1.53,3.5,3.85,3.59,1.35.63,2.7,1.25,4.06,1.88,2.64,1.52,5.31,1.26,8,.14Z"/>
  <path class="cls-53" d="m299.02,188.06c-.02,27.29-.03,54.59-.04,81.88-1.05.9.09,2.56-1.18,3.38-.98-1.49-.75-3.2-.75-4.83-.03-26.21-.03-52.42.01-78.63,0-1.02-.69-2.39.9-2.98.28.46.96.56,1.07,1.18Z"/>
  <path class="cls-149" d="m309.89,187.57v82.52c-.51-.47-.83-.63-.83-.79.05-27.25.11-54.49.18-81.74.22-.06.43-.06.65,0Z"/>
  <path class="cls-102" d="m269.08,235c-.05-.64-.1-1.29-.16-1.93.15-.15.29-.29.44-.44.48-.8,2.45,1.41,2.11-1.06.15-.4.41-.69.78-.88,1.57,0,3.15,1.18,4.71-.04.44-.07.85-.01,1.24.2.61.68.77,1.53.92,2.38.12.85.32,1.7-.12,2.52-1.52,1.45-.57,4.25-2.87,5.28-2.14,1.47-4.24,1.08-6.33-.11l-1.03-1.78c.06-1.38.79-2.71.32-4.14Z"/>
  <path class="cls-16" d="m269.17,222.97c-.62-1.12-1.7-1.87-2.05-3.27-.54-2.17.11-4.03,1.59-5.19,1.84-1.45,3.33.18,4.59,1.5,1.11,1.17,2.58,2.12,2.7,3.97-.38.79-.9,1.44-1.83,1.61-.41.06-.83.08-1.24.1-1.37.08-1.89,2.67-3.75,1.29Z"/>
  <path class="cls-20" d="m288.16,231.68c.96.93,1.05,2.07.82,3.29-.66,1.5-1.26,3.05-3.34,2.93-1.63-.05-3.23-.3-4.76-.89l.05.08c-.41-1.09-1.4-1.9-1.46-3.15.58-2.11,2.63-2.42,4.14-3.4.64-.25,1.29-.19,1.94-.07,1.06,0,1.46,1.41,2.62,1.21Z"/>
  <path class="cls-64" d="m286,220.89c1.92,1.34,1.68,2.49-.33,3.45-1.56.74-2.01,1.97-1.63,3.59-.19.11-.38.22-.57.33-.67.07-1.32-.04-1.97-.21-.65-.18-1.24-.47-1.71-.97-.16-.41-.21-.84-.13-1.27,1.35-1.87-2.22-3.06-.7-4.96,1.62-3.08,3.47-4.58,6.07-.88-.5.76-1.47.5-2.09.98,1.02.05,2.05.41,3.07-.05Z"/>
  <path class="cls-123" d="m279.64,253.01c-.55.63-1.09,1.27-1.64,1.9-.44.45-.92.5-1.44.15-1.21-1.85-6.1-1.41-4.35-4.46,1.82-3.17,4.32.62,6.52,1.34.38.12.61.69.9,1.06Z"/>
  <path class="cls-133" d="m253.97,228.95c0-3.32.02-6.64.03-9.96-.35-.23-.46-.46-.34-.69.12-.23.23-.34.35-.34.85-.13,1.78-.15,1.8.99.06,3.64.06,7.27,0,10.91-.02,1.14-.94,1.12-1.8,1.03-.6-.63-.6-1.27-.04-1.93Z"/>
  <path class="cls-102" d="m269.17,222.97c1.4-.12,1.53-1.12,1.91-2.25.68-2.05,1.36-.67,1.92.23.48,2.95.53,5.89-.35,8.78-.08.46-.29.85-.6,1.19l-.16.15c-2.45.94-2.87-.94-3.51-2.51-.05-1.59-.21-3.21.55-4.71.05-.3.13-.6.24-.88Z"/>
  <path class="cls-148" d="m224.14,237c1.96,7.25.3,14.58-.19,21.88v-21.03c-.1-.32-.04-.6.19-.85Z"/>
  <path class="cls-148" d="m236.96,262.92c-2.09-6.5-.5-13.17-.76-19.75,0-.23.71.63,1,1.08-.08,6.22-.16,12.45-.23,18.67Z"/>
  <path class="cls-12" d="m268.92,223.85c.98,1.37,1.02,2.74.04,4.13-.67.83-1.04,1.96-2.25,2.25-1.87-.45-1.91-2.25-2.61-3.56-.26-.62-.36-1.28-.39-1.94,1.54-1.46,3.52-.3,5.21-.88Z"/>
  <path class="cls-114" d="m197.03,283.89c6.63.59,13.36-1.07,19.92.89-6.64.87-13.28.56-19.93.23-.25-.25-.33-.5-.25-.75.09-.25.17-.37.26-.37Z"/>
  <path class="cls-59" d="m213.99,271.8c-.89,1.55-2.77,1.2-4,2.1-4.08-1.1-8.24-.18-12.35-.49-.58.05-1.1-.11-1.55-.47,5.87-1.85,11.97-.13,17.9-1.13Z"/>
  <path class="cls-122" d="m278.95,220.84c-.3,1.62,1.45,1.35,1.97,2.16.8,1.24,1.64,2.69-.92,2.97-2.14,1.19-3.03-.21-3.8-1.84-.25-1.17-.08-2.23.81-3.11.65-.06,1.3-.12,1.95-.17Z"/>
  <path class="cls-125" d="m269.8,240.92c2.13-.93,4.22.4,6.34.11-3.03,3.89-3.89,3.87-6.34-.11Z"/>
  <path class="cls-110" d="m220.9,293.38c.09,1.54-.71,2.26-2,2.37-1.6.13-1.9-1.01-1.79-2.25.07-.76-.45-2.24,1.35-1.64.95.32,2.51-.22,2.44,1.51Z"/>
  <path class="cls-91" d="m276.01,276.1c-2.71,2.71-5.39,2.93-8-.14l8,.14Z"/>
  <path class="cls-150" d="m316.99,284.88c.06-4.07.12-8.14.17-12.21,1.72,4.1,2.13,8.17-.17,12.21Z"/>
  <path class="cls-112" d="m196.09,272.94c.3.05.6.1.89.14.38.17.51.36.4.56-.11.21-.23.32-.35.32,0,3.31,0,6.62,0,9.94,0,.37,0,.75-.01,1.12-2.56-3.85-1.06-8.02-.93-12.08Z"/>
  <path class="cls-70" d="m263.71,224.73l1.29,1.24c-.51,1.8,1.39,3.71-.25,5.45-.46.53-.96.92-1.7.51l-.02-.09c-1.03-1.81-1.12-3.77-.87-5.77-.26-1.35.81-1.15,1.55-1.33Z"/>
  <path class="cls-266" d="m209.83,294.27c-.21-1.43-.75-2.94.36-4.06.19-.19,1.76.43,2.04,1,1.03,2.09-1.87,1.71-2.39,3.05Z"/>
  <path class="cls-68" d="m260.13,295.02c-1.07,1.01-1.97,1.14-2.52-.5-.37-1.1-.85-2.34.21-3.2.89-.72,1.84-.49,2.11.86.35.92-.04,1.9.21,2.83Z"/>
  <path class="cls-15" d="m294.54,295.4c-1.35-1.46-2.93-1.99-3.02-3.74,0-.16,1.19-.64,1.73-.52,2.41.55,1.72,2.15,1.29,4.26Z"/>
  <path class="cls-272" d="m196.66,295.45c-1-.43-1.63-1.17-1.48-2.29.12-.97.88-1.35,1.78-1.32,1.53.05,1.28,1.21,1.18,2.14-.09.81-.3,1.67-1.48,1.47Z"/>
  <path class="cls-74" d="m241.38,291.99c.96.05,1.56.44,1.38,1.5-.17,1-.51,2.02-1.65,2.14-1.04.11-1.26-.8-1.32-1.66-.07-1.14.34-1.9,1.59-1.98Z"/>
  <path class="cls-113" d="m299.02,188.06c-.36-.39-.71-.79-1.07-1.18,3.79.13,7.71-1.39,11.32.9-3.42.1-6.84.19-10.26.29Z"/>
  <path class="cls-44" d="m262.16,226.06c1.35,1.77.74,3.83.87,5.77-1.96-1.67-3.13-3.46-.87-5.77Z"/>
  <path class="cls-23" d="m308.43,295.71c-.61-2.4-.88-3.84.98-4.52.8-.29,2.17.04,1.94.65-.47,1.25-1.62,2.24-2.92,3.88Z"/>
  <path class="cls-304" d="m286,220.89q-1.49,1.68-4.41-.74c1.33-.07,2.38-.13,3.43-.19.33.31.65.62.98.93Z"/>
  <path class="cls-300" d="m233.96,292.98c.62,1.25,1.83,2.52.13,3.8-.32.24-1.09.3-1.36.09-1.76-1.42.47-2.51.39-3.81.25-.38.53-.41.84-.07Z"/>
  <path class="cls-81" d="m253.97,228.95c.01.64.03,1.28.04,1.93-1.34.02-2.67.03-4.01.05-.35-.22-.46-.44-.35-.65.12-.22.23-.33.35-.33,1.04-1.44,2.6-.84,3.97-1Z"/>
  <path class="cls-42" d="m228.03,278.74c.55-2.08,1.21-4.03,3.96-3.85-.88,1.73-1.97,3.25-3.96,3.85Z"/>
  <path class="cls-267" d="m224.54,296.07c-.78-3.44-.54-4.93,2.27-5.1.07,1.9-1.53,2.66-2.27,5.1Z"/>
  <path class="cls-48" d="m263.05,231.93c.34-.36.67-.72,1.01-1.07,1.79-.78,3.34.03,4.9.76.38.44.38.88.01,1.32,0,0-.05.12-.05.12-2.02-.07-4.21.76-5.87-1.14Z"/>
  <path class="cls-152" d="m264.04,283.78c2.52-1.76,5.36-.47,8.03-.84-2.48,2.18-5.3,1.08-8.03.84Z"/>
  <path class="cls-262" d="m269.08,235c1.35,1.49,1.33,2.87-.32,4.14-1.02-1.47-.34-2.8.32-4.14Z"/>
  <path class="cls-152" d="m254,217.95c0,.34,0,.69,0,1.04-2.31-.4-4.85.87-6.97-.95,2.32-.4,4.64-.49,6.97-.08Z"/>
  <path class="cls-10" d="m265.01,294.55c-.25-.29-.65-.56-.75-.91-.22-.76-.24-1.57.69-1.96.65-.27.85.26.9.71.1.76.09,1.54-.85,2.16Z"/>
  <path class="cls-22" d="m284.93,295.4c-1.89-1.13-1.99-2.52-.34-3.85,1.37-1.09,1.56.01,1.6,1.11.38,1.28-.33,2.06-1.26,2.74Z"/>
  <path class="cls-102" d="m277,221.02c0,.98,0,1.96-.01,2.94-2.24.26-3.21-.77-3.01-2.98.67-.34,1.34-.68,2.01-1.01.34.35.67.7,1.01,1.05Z"/>
  <path class="cls-129" d="m263.95,274.09c-3.25.91-3.58-1.31-3.85-3.59,1.28,1.2,2.57,2.39,3.85,3.59Z"/>
  <path class="cls-305" d="m303.22,292.69c.93-.55,1.74-.39,1.31.76-.37.99-.29,3.39-2.62,1.8-.64-1.41.24-2.04,1.31-2.57Z"/>
  <path class="cls-154" d="m276.56,255.06c.48-.05.96-.1,1.44-.15,1.59.96,2.98,2.06,2.95,4.17-1.85-.92-3.1-2.49-4.39-4.02Z"/>
  <path class="cls-54" d="m284.9,257.96c-2.24-.32-3.58-1.55-3.89-3.83,1.94.62,3.04,2.09,3.89,3.83Z"/>
  <path class="cls-84" d="m258.95,259.93c-1.87-2.3-.41-3.65,1.41-4.89-.05,1.75-.55,3.37-1.41,4.89Z"/>
  <path class="cls-45" d="m272.43,295.06c-.45-1.84-.91-3.13.06-4.28.12-.14,1.12.09,1.22.35.56,1.35-.13,2.42-1.29,3.93Z"/>
  <path class="cls-118" d="m303.22,292.69c-.44.86-.87,1.71-1.31,2.57-1.65-1.05-1.67-2.36-.32-3.56,1.26-1.12,1.58-.16,1.63.99Z"/>
  <path class="cls-130" d="m234.02,223.04c-.12,1.98-1.47,3.03-3.01,3.93-.43-.43-.48-.9-.15-1.41.77-1.19,1.74-2.14,3.16-2.53Z"/>
  <path class="cls-152" d="m265.87,246.91c-.61-1.84-1.21-3.69-1.82-5.54,3.35.94,2.24,3.35,1.82,5.54Z"/>
  <path class="cls-115" d="m262.98,240.01c-1.61,1.44-3.25,1.33-4.91.1,1.62-.73,3.26-.94,4.91-.1Z"/>
  <path class="cls-131" d="m230.86,225.57c.05.47.1.94.15,1.41-.81.94-1.03,2.72-2.95,2.09.45-1.55,1.5-2.62,2.8-3.5Z"/>
  <path class="cls-144" d="m317.24,272.74c-2.11-.16-4.53,1.29-6.2-1.18,2,.75,4.48-1.02,6.2,1.18Z"/>
  <path class="cls-21" d="m284.93,295.4c.42-.91.84-1.83,1.26-2.74,1.58.12,1.22,1.12.84,2-.4.95-.99,1.67-2.1.74Z"/>
  <path class="cls-64" d="m285.98,230.96c-.67,0-1.33,0-2,0-1-.09-2-.32-2.02-1.53-.01-1.03,1.05-1.03,1.75-1.33l.33-.17c1.33-.06,1.16,1.38,1.9,1.91.24.24.32.49.26.74-.07.26-.14.38-.21.38Z"/>
  <path class="cls-55" d="m297.8,273.32c.26-1.17-.05-2.55,1.18-3.38-.02,2.06-.04,4.13-.05,6.19-1.07-.66-1.06-1.75-1.12-2.81Z"/>
  <path class="cls-46" d="m285.98,230.96c-.02-.37-.03-.75-.05-1.12,1.56-.37,1.78.87,2.22,1.84-1.32,1.57-1.64.1-2.17-.72Z"/>
  <path class="cls-90" d="m250,229.94c0,.33,0,.65,0,.98-.99.3-1.99.6-2.98.9.14-1.98,1.59-1.88,2.98-1.88Z"/>
  <path class="cls-119" d="m260.13,295.02c-1.68-.83-.41-1.87-.21-2.83,1.17.86,1.15,1.81.21,2.83Z"/>
  <path class="cls-89" d="m279.96,233.98c.32,1.04.64,2.07.96,3.11-.64-.45-1.28-.89-1.92-1.34-.33-.59-.66-1.18-.99-1.77.65-.6,1.3-.64,1.95,0Z"/>
  <path class="cls-141" d="m286.01,237.05c1.57.14,1.99-1.38,2.97-2.09-.09,1.09.51,2.35-.78,3.14-.68.32-1.37.37-2.09.17-.27-.25-.37-.52-.31-.79.06-.28.13-.43.22-.43Z"/>
  <path class="cls-50" d="m286.01,237.05c0,.25,0,.49.01.74-1.01,1.07-2.22.56-3.38.41-.59-.4-1.18-.8-1.77-1.19,1.71.02,3.42.03,5.13.05Z"/>
  <path class="cls-20" d="m282.64,238.2c1.13-.14,2.25-.27,3.38-.41.73.1,1.45.21,2.17.32-1.83,1.09-3.68,1.34-5.55.09Z"/>
  <path class="cls-232" d="m233.96,292.98l-.41.1s-.43-.02-.42-.02c.13-.24.26-.48.39-.72.15.22.3.43.45.65Z"/>
  <path class="cls-284" d="m61.1,194.9c0-.33-.09-.65-.26-.94-1.46-1.16-2.83-2.4-3.73-4.07-.35-3.77-4.81-4.91-5.5-8.49,1.45-1.15,2.87-.04,4.27-.05,2.69.15,4.58,1.68,6.19,3.66,4.44,3.96,9.69,7.04,13.22,12.01,1,.81,1.99,1.63,2.84,2.59,1.36,1.53,2.16.63,2.91-.63.9-7.72,7.12-10.17,12.91-13.05,1.44-.51,1.57.56,1.81,1.5-.23,2.52-2.4,3.46-4.05,4.74-1.57,1.22-2.82,2.37-1.82,4.53.24.81.28,1.7.87,2.35.99.05,1.29-.79,1.79-1.35.37-.54.79-1.03,1.24-1.51,1.68-1.85,3.77-3.21,5.73-4.71.79-.54,1.61-.99,2.63-.78.89.53,1.37,1.28,1.25,2.35-3.05,3.71-6.05,7.48-10.37,9.87-.26.11-.53.15-.81.12-2.28,1.09-4.83-.21-7.11.81-1.91.79-4.42.81-4.91,3.48-.51,2.83,1.55,4.26,3.51,5.49,2.88,1.81,3.71,5.43,6.59,7.18,1.12.98,2.42,1.83,2.67,3.48.44.5.88,1.01,1.31,1.51,2.57,1.82,2.98,4.19,1.74,6.96-.33.08-.66.16-.99.24-.98.62-1.96.62-2.93-.02-2.48-2.07-3.44-5.45-6.25-7.24-1.12-.97-2.42-1.82-2.68-3.46-1.83-2.71-3.61-5.47-6.25-7.51-1.29-1.22-2.58-1.03-3.88,0-2.18.8-3.39,2.76-5,4.24-.97,1.11-1.8,2.4-3.43,2.66-2.89,2.17-5.78,4.32-8.66,6.5-1.65,1.25-3.46,1.83-4.61-.29-.86-1.59-.89-3.3,1.39-4.46,1.68-.86,2.93-2.55,4.37-3.88,1.14-1.47,2.41-2.8,4.04-3.74.34-.02.66-.11.96-.26,1.16-1.46,2.4-2.82,4.07-3.73.33-.01.64-.1.93-.27.85-1.73,3.47-2.36,3.02-4.89-.67-3.13-3.31-4.76-5.28-6.89-1.47-1.15-2.82-2.4-3.74-4.06Z"/>
  <path class="cls-166" d="m89.08,196.95c-1.8-1.91-1.88-3.44.66-4.91,1.92-1.11,3.59-2.64,5.37-3.98.95-1.48,1.63-3.5,4.07-2.14l-.1-.03c.28.37.57.72.89,1.05.13.3.23.62.28.95-.17,1.17-1,1.92-1.74,2.73-1.65,1.72-3.61,3.1-5.26,4.83-1.3.75-2.35,2.23-4.18,1.49Z"/>
  <path class="cls-73" d="m93.03,202.92c3.33-3.4,6.65-6.8,9.98-10.2.43-.72,1.01-1.17,1.91-1.02-1.88,5.52-6.7,8.41-10.79,11.95-.09.08-.72-.47-1.1-.73Z"/>
  <path class="cls-163" d="m98.04,189.99c.41-1.04,1.16-1.72,2.21-2.09,1.49-.08,2.88,0,2.9,2.02-.15.6-.54.91-1.16.93-.62.4-1.24.8-1.86,1.2-1.79.42-1.89-.87-2.09-2.06Z"/>
  <path class="cls-97" d="m81.04,198.98c-.55,2.26-.91,5.03-3.52,1.18-.72-1.06-1.49-2.1-2.23-3.14,2.3-.47,3,3.73,5.75,1.97Z"/>
  <path class="cls-62" d="m62.07,185.01c-2.06-1.22-4.13-2.44-6.19-3.66,3.29-.86,5.33.39,6.19,3.66Z"/>
  <path class="cls-7" d="m99.18,185.92c-1.72.02-2.71,1.43-4.07,2.14-.07-.88-.25-1.7-1.16-2.13,1.74-.88,3.48-4.38,5.23,0Z"/>
  <path class="cls-63" d="m96.02,231.95c1.05-2.73-.61-4.78-1.74-6.96,3.59,1.57,4.23,3.88,1.74,6.96Z"/>
  <path class="cls-63" d="m70.12,205.85q1.03,2.48-3.02,4.89c0-2.26,2.43-3,3.02-4.89Z"/>
  <path class="cls-107" d="m61.14,214.99c-.7,1.94-2.15,3.08-4.04,3.74.37-2.3,1.74-3.52,4.04-3.74Z"/>
  <path class="cls-101" d="m66.17,211c-.73,1.92-2.21,3.03-4.07,3.73.38-2.31,1.74-3.54,4.07-3.73Z"/>
  <path class="cls-7" d="m85.1,203.85c2.21-1.69,4.74-.56,7.11-.81-2.21,1.66-4.74.58-7.11.81Z"/>
  <path class="cls-98" d="m61.1,194.9c1.91.74,3.05,2.2,3.74,4.06-2.31-.37-3.54-1.74-3.74-4.06Z"/>
  <path class="cls-61" d="m57.11,189.89c1.89.76,3,2.25,3.74,4.07-2.31-.38-3.55-1.74-3.74-4.07Z"/>
  <path class="cls-366" d="m73.04,213.96c1.29-1.4,2.59-3.73,3.88,0-1.29,0-2.58,0-3.88,0Z"/>
  <path class="cls-7" d="m102,190.84c.39-.31.77-.62,1.16-.93.59.59,1.18,1.19,1.77,1.78-.64.34-1.28.68-1.91,1.02-.34-.63-.67-1.25-1.01-1.88Z"/>
  <path class="cls-51" d="m92.09,232.18c.98,0,1.96.01,2.93.02-.12.88-.44,1.65-1.47,1.65-1.03,0-1.35-.78-1.46-1.66Z"/>
  <path class="cls-96" d="m64.61,220.86c.88-1.23,1.9-2.28,3.43-2.67-.2,2.11-1.47,2.82-3.43,2.67Z"/>
  <path class="cls-107" d="m92.97,223.48c-1.19-.93-2.29-1.93-2.67-3.48,2.14.2,2.81,1.53,2.67,3.48Z"/>
  <path class="cls-108" d="m83.16,221.48c1.2.92,2.29,1.91,2.68,3.46-2.14-.19-2.82-1.5-2.68-3.46Z"/>
  <path class="cls-346" d="m99.97,186.95c-.3-.35-.6-.7-.89-1.05.3.35.6.7.89,1.05Z"/>
  <path class="cls-349" d="m278.96,449.8c2.93-5.31,7.18-7.97,13.41-6.75,2.65.52,2.75-1.75,3.5-3.29-.23-1.64-2.01-1.15-2.8-2.02-1.11-4.72,3.43-.88,4.19-2.77,2.2-.59,3.86-1.87,4.9-3.92,1.11-2.52,2.41-4.89,4.82-6.44,4.1-3.37,6.16.76,8.91,2.41,1.01.95,1.88,1.95,1.37,3.49-3.06,3.01-6.78,1-10.2,1.32-1.41,1.96-2.81,3.91-4.22,5.87-.84.89-1.82.66-2.81.36-.95,1.93-1.9,3.86-2.85,5.79.31,1.46,2.26,2.09,1.96,3.87.58,1.42,1.15,2.83,1.73,4.25.9,1.2.94,2.4-.02,3.59-.65,1.61-1.31,3.22-1.96,4.82-.53,1.32-.99,2.71-2.86,2.51-1.64.89-3.29,1.78-4.93,2.66-1.41.19-2.81.35-3.89-.9-3.84-1.54-6.93-3.87-8.4-7.92-1.23-2.35-1.05-4.66.15-6.96Z"/>
  <path class="cls-286" d="m334.89,447.29c.65,1.9,1.3,3.8,1.96,5.7.71.54.77,1.06-.04,1.56-1.35,4.86-4.06,8.51-9.06,10.1-1.52,1-3.04.97-4.57.01-1.98-1.59-5.1-1.31-6.48-3.9-6.19-7.01-4.04-15.25,4.64-17.81,3.75-.62,7.37-.39,10.72,1.63,1.79.01,2.38,1.28,2.83,2.7Z"/>
  <path class="cls-347" d="m312,436.08c-.53-.44-1.07-.87-1.6-1.31-1.38-.69-.88-1.66-.1-2.25,2.08-1.57,8.42-.68,10.56,1.36,1.59,1.58.56,3.22.09,4.84-1.38,2.03-2.52,4.24-4.18,6.04-3.43,3.72-5.44,7.71-3.41,12.89.37.94.72,2.27-.7,2.99l.22-.1c-1.28,1.1-2.55,1.33-3.82-.03-4.09-7.29-2.23-13.74,2.83-19.72-.47-1.58,2.09-3.09.11-4.71Z"/>
  <path class="cls-285" d="m316.92,429.55c-.66-.58-1.32-1.16-1.98-1.74-1.66-4.09.99-5.6,4.1-6.83.48-.35.97-.71,1.45-1.06,2.56,1,4.3,2.82,5.39,5.31.35.81.7,1.62,1.05,2.44-.62,1.68-1.09,3.48-3.14,4.04l.11-.1c-3.15,2.13-4.82-.78-6.98-2.05Z"/>
  <path class="cls-326" d="m312.66,460.63c-4.11-9.9,1.39-16.17,8.29-21.92.43,1.39-1.97,3.04.39,4.25-7.68,5.71-8.61,9.3-4.64,17.81-1.34-.29-2.67-.64-4.04-.14Z"/>
  <path class="cls-289" d="m306.11,423.86c-2.22.96-4.41,1.59-6.23-.73-1.15-1.47-1.24-3.01-.16-4.55,1.05-1.49,2.51-2.19,4.29-1.67,2.45.71,3.19,2.63,3.15,4.98.28,1-.3,1.54-1.05,1.98Z"/>
  <path class="cls-325" d="m316.92,429.55c2.76-.77,4.05,3.42,6.98,2.05-.54,1.4-1.93,1.65-3.04,2.28-3.29-1.73-6.79-.73-10.2-.72-.8,0-.39,1.01-.26,1.61-1.11-.97-2.22-1.94-3.34-2.92,1.48-2.11,3.69-.73,5.51-1.18,1.45-.36,3.39,1.12,4.35-1.13Z"/>
  <path class="cls-361" d="m306.11,423.86c.35-.66.7-1.32,1.05-1.98,2.28,1.63,4.23.74,6.08-.81,2.35,1.35,3.49-2.06,5.66-1.43.05.44.1.89.15,1.33-1.33,2.3-4.46,3.52-4.1,6.83-2.56-1.3-4.07-5.23-7.97-3.18-.29-.25-.58-.51-.87-.76Z"/>
  <path class="cls-290" d="m318.9,419.64c-1.2,1.09-2.3,2.3-3.61,3.23-2.99,2.14-2.23-.21-2.05-1.8,0,0-.16-.1-.16-.1.64-1.14,1.11-2.47,2.8-2.37,1.2-.23,2.5-.75,3.01,1.03Z"/>
  <path class="cls-357" d="m302.16,431.07c-.27,3.01-1.52,4.79-4.9,3.92-1.42-.16-2.83-.32-4.25-.48,3.57.14,6.48-1.31,9.14-3.44Z"/>
  <path class="cls-317" d="m278.96,449.8c-.05,2.32-.1,4.64-.15,6.96-3.24-2.39-2.5-4.7.15-6.96Z"/>
  <path class="cls-358" d="m325.89,425.22c-1.79-1.77-3.59-3.54-5.38-5.31,3.25.29,5.06,2.05,5.38,5.31Z"/>
  <path class="cls-362" d="m323.18,464.67c1.52,0,3.04,0,4.57-.01.38.23.76.46,1.14.7-2.28.73-4.56.71-6.84.01.06-.12.1-.31.2-.36.3-.14.62-.23.94-.34Z"/>
  <path class="cls-328" d="m287.21,464.68c1.31.23,2.82-.4,3.89.9-1.71,2.39-3.45.34-5.07-.13-.33-.1.72-.55,1.18-.77Z"/>
  <path class="cls-329" d="m312,436.08c3.98,1.66.58,3.15-.11,4.71-1.69-1.61.73-3.12.11-4.71Z"/>
  <path class="cls-363" d="m300.85,455.58c0-1.2.01-2.39.02-3.59.25-.43.8-1.45.88-1,.32,1.84.28,3.79-.01,5.64-.06.37-.64-.61-.88-1.06Z"/>
  <path class="cls-327" d="m309.07,460.5c1.27.01,2.54.02,3.82.03-1.28,1.25-2.57,4.13-3.82-.03Z"/>
  <path class="cls-322" d="m336.81,454.55c.01-.52.02-1.04.04-1.56.21-.39.42-.78.63-1.18.77,1.33.87,2.65-.06,3.95-.2-.4-.4-.81-.61-1.21Z"/>
  <path class="cls-364" d="m299.14,447.74c-.67-1.28-2.89-1.78-1.96-3.87,1.06,1.08,3.44,1.5,1.96,3.87Z"/>
  <path class="cls-364" d="m300.03,438.08c.94-.12,1.88-.24,2.81-.36.28,1.98-1.96,1.11-2.48,2.18-.11-.61-.23-1.21-.34-1.82Z"/>
  <path class="cls-321" d="m293.08,437.75c1.01.56,4.12-1.78,2.8,2.02-.66-1.05-2.75-.12-2.8-2.02Z"/>
  <path class="cls-360" d="m323.79,431.7c1.05-1.35,2.1-2.69,3.15-4.04.05,2.2-.2,4.17-3.15,4.04Z"/>
  <path class="cls-357" d="m296.03,462.92c.95-.84,1.91-1.67,2.86-2.51-.25,1.64.05,3.9-2.86,2.51Z"/>
  <path class="cls-359" d="m315.89,418.61c-.93.79-1.87,1.58-2.8,2.37.06-1.83.34-3.39,2.8-2.37Z"/>
  <path class="cls-319" d="m323.13,442.27c1.68-1.99,2.73-1.12,3.91-1.56-1.05,1.84-2.14.53-3.91,1.56Z"/>
  <path class="cls-362" d="m334.89,447.29c-.94-.9-1.89-1.8-2.83-2.7,2.94-1.19,2.6,1.06,2.83,2.7Z"/>
  <path class="cls-294" d="m388.75,369.97c-.12,3.58,3.25,2.87,5.05,4.1,1,8.22,1.04,16.45.33,24.69l1.77,1.17c1.36,1.57,1.24,3.11-.11,4.62-9.11.07-18.23.14-27.34.22-1.63-1.47-1.12-3.1-.37-4.76.95-.42,2.18-.57,2.06-2.06-.98-8.02-1.29-16.04.15-24.04,1.77-1.14,5.23-.15,4.92-3.91,4.51-1.8,9.03-1.76,13.55-.03Z"/>
  <path class="cls-287" d="m417,403.82c.65,1.69,1.34,3.37,1.92,5.08.42,1.22.24,2.4-1.17,2.82-1.37.41-2.37.25-2.95-1.54-.97-2.97-2.39-5.78-3.62-8.66-.52.2-.78-1.48-1.22-.34-1.29,3.34.31,7.05-1.19,10.4-2.05,1.9-3.49,1.13-4.61-1.05-1.44-4.36-.6-8.75-.27-13.14.1-1.28.6-2.91-.58-3.77-1.39-1.01-2.3.78-3.49,1.18-.97.05-1.95.1-2.92.14-.71-.49-1.42-.98-.89-2.01,3.72-3.32,5.09-8.19,7.95-12.08,1.38-1.21,2.75-1.17,4.11.03,5.51,1.42,9.13,5.13,11.9,9.85,1.23,2.09-.14,3.2-1.61,4.26-1.06.39-1.77-.25-2.7-1.01-.09,1.5.52,2.71.78,3.96.15.42.26.85.36,1.28.25,1.52.5,3.04.19,4.58Z"/>
  <path class="cls-291" d="m417.71,395.23c.6-1.58,2.33-2.58,2.27-4.49,1.64,1.07,3.68-1.73,4.98.28,1.08,1.68,5.45,2.29,3.13,4.82-2.19,2.39-3.64,7.95-9.08,4.85-1.47.08-2.21-1.04-3.11-1.88l.08.1c-1.06-2-.11-3.05,1.73-3.68Z"/>
  <path class="cls-282" d="m408.07,380.89c-1.37-.01-2.74-.02-4.11-.03-.54-.69-1.08-1.39-1.62-2.08-1.67-3.49-1.95-6.55,2.55-8.09,2.65,0,5.71-1.01,6.76,2.8.96,3.5-.26,5.96-3.58,7.4Z"/>
  <path class="cls-224" d="m399.82,394.8c.39-.52.74-1.08,1.17-1.56.87-.97,1.8-2.26,3.25-1.52,1.17.6.62,2.06.59,3.12-.17,5.23-.44,10.46-.67,15.69-1.93.75-1.17-.87-1.18-1.49-.07-3.93-.23-7.87.03-11.79.19-2.84-1.15-2.91-3.18-2.46Z"/>
  <path class="cls-204" d="m396.01,392.94c.3.67.59,1.34.89,2.01-2.63.04-1.39,2.88-2.78,3.82-.95-8.22-.29-16.46-.33-24.69,2.4.59.94,2.47,1.09,3.68.63,5.04-1,10.25,1.12,15.19Z"/>
  <path class="cls-190" d="m388.75,369.97c-4.52,0-9.03.02-13.55.03-.88-.8-.59-1.64.36-1.78,4.24-.64,8.51-.59,12.75-.02.92.12,1.31.92.44,1.77Z"/>
  <path class="cls-205" d="m370.22,406.11h23.67c0,.16,0,.33,0,.49h-23.74c.03-.16.05-.33.08-.49Z"/>
  <path class="cls-216" d="m370.28,373.91c-.05,8.01-.1,16.03-.15,24.04-2.61-5.43-.73-11.17-1.07-16.76-.14-2.38-1.31-5.23,1.22-7.29Z"/>
  <path class="cls-202" d="m408.77,411.58c.04-4.65-.63-9.34.48-14.72,1.92,1.62,1.76,3.21,1.93,4.66-2.07,3.11-.89,6.64-1.3,9.96-.01.12-.19.31-.27.3-.28-.03-.56-.13-.84-.2Z"/>
  <path class="cls-223" d="m404.9,370.69c-3.25,1.94-3.16,4.94-2.55,8.09-2.55-1.52-2.03-3.84-1.2-5.91.57-1.42,1.28-3.59,3.75-2.19Z"/>
  <path class="cls-189" d="m395.78,404.56c.04-1.54.07-3.08.11-4.62,1.82-.99,1.95.5,1.96,1.53,0,1.37.33,3.22-2.07,3.09Z"/>
  <path class="cls-234" d="m415.89,398.81c1.64-.36,2.39.74,3.11,1.88-.67,1.04-1.34,2.08-2.01,3.13-1-1.53-1.69-3.13-1.1-5.01Z"/>
  <path class="cls-235" d="m368.08,400.02c.12,1.59.24,3.17.37,4.76-2.33-1.18-1.44-3.14-1.18-4.94,0-.05.29-.11.42-.08.15.04.27.17.4.26Z"/>
  <path class="cls-336" d="m99.91,309.63c-1.26,3.72-2.11,7.56-3.64,11.23-2.06,4.94-6.11,7.74-10.07,10.75-1.65.31-3.3.44-4.93-.13-1.66-.63-3.29-.47-4.91.18-1.52.3-3.01.39-4.3-.72-3.2-1.33-5.7-3.62-8.13-6.01-1-1.01-2.47-1.64-2.66-3.3l.14.14c-1.83-2.68-2.74-5.71-3.46-8.83.76-3.87-.62-7.78.54-11.7,1.48-5.02,5.04-7.65,9.58-9.43,1.71-1.3,3.72-.99,5.62-.88,1.79.1,3.23-.13,3.97-1.96.19-.41.41-.8.64-1.19.92-.96,1.36-2.37,2.73-2.91,1.2-1.06,1.65-2.5,2.01-3.98,1.35-1.77,2.69-2.03,3.99.05.8.84,2.66,1.32,1.01,2.99-1.11,2.19-3.38,3.38-4.65,5.43-.66,1.05-.8,1.96.65,2.46,6.95-.87,12.05,1.69,15.08,8.11,1.74,3.12,1.94,6.36.79,9.71Z"/>
  <path class="cls-2" d="m79.02,288.19c.06.2.09.4.09.6-2.24,1.64-4.47,1.82-6.69-.03-1.61-.85-3.38-1.56-3.57-3.76-.56-1.42-1.12-2.83-1.68-4.25-.82-.96-.87-1.9.08-2.81l-.11.25c2.5-1.37,4.82-.92,7.02.7,2.4,1.88,3.77,4.44,4.78,7.23.78.66.58,1.36.08,2.07Z"/>
  <path class="cls-307" d="m72.05,288.05c2.31.69,4.6,1.46,7.06.75-.68,3.27-1.98,5.05-5.77,3.27-1.47-.69-3.49-.21-5.26-.27.05-2.73,3.19-1.2,3.99-2.9-.35-.19-.47-.37-.36-.57.11-.19.23-.29.35-.29Z"/>
  <path class="cls-18" d="m99.91,309.63l-.79-9.71c3.4,1.01,1.6,3.81,1.88,5.81.28,1.98.06,4.03-.73,6.11-.12-.74-.25-1.47-.37-2.21Z"/>
  <path class="cls-11" d="m57.96,312.93c1.77,2.7,2.98,5.62,3.46,8.83-2.74-2.32-4.07-5.19-3.46-8.83Z"/>
  <path class="cls-99" d="m83.09,288.97c1.06-2.27,2.78-3.89,4.97-5.05.24,3.06-3.29,3.59-4.02,5.99-.82.19-1.36.1-.95-.94Z"/>
  <path class="cls-270" d="m74.17,278.88c-2.31-.51-4.57-1.49-7.02-.71,2.52-1.53,5.01-2.84,7.02.71Z"/>
  <path class="cls-306" d="m72.07,330.94c1.67-.01,3.33-.03,5-.04.35.22.46.44.35.66-.11.22-.23.33-.35.33-1.99,1.37-3.86,2.11-4.99-.96Z"/>
  <path class="cls-17" d="m81.06,330.99c1.72.17,3.58-.75,5.15.62-1.64,1.83-3.36,1.76-5.15.23-.35-.19-.46-.37-.35-.56.11-.19.23-.29.34-.29Z"/>
  <path class="cls-14" d="m87.05,280.93c-1.33-.42-2.65-1-3.99-.05,1.36-3.37,3.27-1.84,5.15-.57-.38.2-.77.41-1.15.61Z"/>
  <path class="cls-106" d="m83.09,288.97c.32.31.63.63.95.94,0,0,.03.05.03.05.35.21.47.42.35.64-.12.21-.23.32-.35.32,0,.3,0,.6-.01.9-1.15.4-2.31.8-3.83,1.33.67-2.05,1.57-3.25,2.87-4.17Z"/>
  <path class="cls-57" d="m72.05,288.05c0,.29,0,.57.01.86-2.08-.47-4.18-.93-3.22-3.91,1.07,1.02,2.13,2.03,3.2,3.05Z"/>
  <path class="cls-35" d="m79.02,288.19c-.03-.69-.05-1.38-.08-2.07.43-.87-.03-2.35,1.56-2.4.17,0,.36.75.54,1.15-.39,1.28-.58,2.69-2.03,3.33Z"/>
  <path class="cls-105" d="m56.68,309.54c-.86-2.28-.66-3.84,0-5.46v5.46Z"/>
  <path class="cls-103" d="m84.06,290.91c0-.32,0-.64,0-.96,1.62,0,3.24,0,4.85,0,.01.32.03.64.04.95h-4.89Z"/>
  <path class="cls-13" d="m81.06,330.99c0,.28,0,.57,0,.85-1.33.02-2.66.03-4,.05,0-.33,0-.66,0-1,1.36-1.19,2.68-.8,3.99.1Z"/>
  <path class="cls-13" d="m67.26,277.93c-.03.94-.06,1.88-.08,2.81-.1.31-.12.69-.31.9-.48.52-.75.17-.75-.33,0-1.25-.35-2.64,1.15-3.38Z"/>
  <path class="cls-27" d="m61.29,321.62c1.5.61,2.1,1.94,2.66,3.3-1.94-.25-2.99-1.22-2.66-3.3Z"/>
  <path class="cls-344" d="m139.83,105.79c-1.29,2.28-2.59,4.57-3.88,6.85-1.67,3.18-4.12,5.59-7.27,7.3-2.95,1.96-5.39,6.14-9.71,2.28-4.31-2.06-7.09-5.73-9.84-9.42-.71-1.29-1.4-2.59-2.12-3.87-3.77-6.71-2.06-11.96,5.16-15.82,2.41-1.87,4.96-1.13,7.33-.11,1.93.83,3.71.93,5.6.16.66-.07,1.31-.14,1.97-.21,7.58-3.1,16.25,4.88,12.77,12.85Z"/>
  <path class="cls-296" d="m149.08,106.13c1.04-.48,1.85-.62,1.99.94.16,1.77-.27,3.64.83,5.26.98,1.15.91,2.32.03,3.49-2.58,8.03-7.01,14.53-14.93,18.18-.4.94-1.04,1.61-2.06,1.85-1.09,7.09-6.22,5.43-10.79,4.99-.69-2.94-1.94-5.89.17-8.78,1.84-3.04,4-5.81,6.94-7.88,1.99-1.66,4.25-1.99,6.71-1.32,3.26-1.65,4.41-5.76,8.07-6.95,3.17.39,1.74-1.54,1.46-2.9.64-2.28-1.23-5.13,1.59-6.9Z"/>
  <path class="cls-348" d="m99.88,116.15c3.01,1.6,3.93,5.46,7.25,6.74,2.46-.7,4.71-.38,6.69,1.32,1.74,1.61,3.49,3.22,5.23,4.84,3.74,3.43,3.18,7.57,1.92,11.81-.81.1-1.61.18-2.42.29-4.27.59-7.85.07-8.4-5.27-1.07-.2-1.68-.91-2.07-1.86-2.93-2.92-7.6-3.34-10.01-6.99-1.43-.94-2.26-2.19-2.04-3.97-.45-2.3-1.51-4.33-2.75-6.29-1.12-1.8-1-3.61-.07-5.44,1-1.28.69-2.82.8-4.27.12-1.57.97-1.4,1.99-.91,1.75,2.02.84,4.69,1.66,6.93.77.58-2.51,3.29,1.23,2.33.44.11.76.36.99.74Z"/>
  <path class="cls-249" d="m139.83,105.79c.27-9.73-2.69-12.71-12.77-12.85,1.75-3.85,4.47-1.47,6.6-.79,6.33,2.02,9.01,7.59,6.98,13.89-.02.05-.29.07-.42.03-.15-.05-.26-.19-.39-.28Z"/>
  <path class="cls-183" d="m120.97,140.86c-.12-4.02.62-8.18-1.92-11.81,2.41-.6,2.44,1.66,2.73,2.78.77,2.99,1.74,0,2.54.25-.06,2.93-.11,5.85-.17,8.78-.03.39-.06.79-.08,1.18h0c-1.56-.93-.59-2.72-1.39-4.05-1.29,1.11.05,3.22-1.63,4.05h0c-.03-.39-.05-.78-.08-1.17Z"/>
  <path class="cls-156" d="m125.1,93.15c-1.37,1.23-2.71,2.43-4.73,1.12-2.54-1.65-5.39-1.35-8.21-1.17-.56-.24-2.12-.2-.63-1.2,1.88-1.27,4.05-1.01,6.19-.48,2.45.61,4.92,1.15,7.38,1.73Z"/>
  <path class="cls-173" d="m99.88,116.15c-.29-.03-.56-.11-.83-.23-.66-.7-2.65-.01-2.1-1.99-.32-2.59-.64-5.18-.96-7.78.59-.65,1.45-.5,1.52.16.36,3.39,1.29,6.63,2.36,9.84Z"/>
  <path class="cls-164" d="m109.13,112.8c3.28,3.14,6.56,6.28,9.84,9.42-5.14-1.2-7.83-4.96-9.84-9.42Z"/>
  <path class="cls-165" d="m128.68,119.95c2.42-2.43,4.85-4.86,7.27-7.3-.87,3.98-3.3,6.4-7.27,7.3Z"/>
  <path class="cls-157" d="m93.21,111.33c.02,1.81.05,3.63.07,5.44-2.6-3.02-.61-6.42-1.17-10.25,1.45,1.87.68,3.44,1.1,4.81Z"/>
  <path class="cls-171" d="m151.93,115.82c-.01-1.16-.02-2.33-.03-3.49.12-1.76.24-3.51.37-5.27.24.01.48.02.71.03,0,3.24,0,6.48-.02,9.71,0,.05-.36.17-.37.15-.24-.37-.44-.75-.66-1.13Z"/>
  <path class="cls-158" d="m149.08,106.13c-1.85,2.42-.3,5.36-1.19,7.92-.29.32-.58.32-.87-.01.02-2.1-.05-4.2.09-6.3.07-1.04.11-2.56,1.97-1.62Z"/>
  <path class="cls-177" d="m124.06,142.03h8.72c-2.92.64-5.88,1.89-8.72,0,0,0,0,0,0,0Z"/>
  <path class="cls-176" d="m121.04,142.03c-2.82,2.16-5.9.33-8.86,0,2.96,0,5.91,0,8.87,0,0,0,0,0,0,0Z"/>
  <path class="cls-250" d="m137.97,122.87c-2.24.44-4.47.88-6.71,1.32,1.82-2.62,2.18-2.69,6.71-1.32Z"/>
  <path class="cls-208" d="m147.02,114.04c.29-.01.58,0,.87.01,1.33.74,2.76,1.62,1.3,3.26-2.2,2.49-1.16-3.02-3.16-1.39.33-.63.66-1.26.99-1.88Z"/>
  <path class="cls-248" d="m113.81,124.21c-2.23-.44-4.46-.88-6.69-1.32,2.54-1.12,5.06-2.16,6.69,1.32Z"/>
  <path class="cls-182" d="m96.03,123.05c.68,1.32,1.36,2.65,2.04,3.97-2.5-.39-3.38-1.61-2.04-3.97Z"/>
  <path class="cls-181" d="m108.07,134.02c.96.32,1.66.93,2.07,1.86-1.91.73-2.42-.09-2.07-1.86Z"/>
  <path class="cls-181" d="m134.93,135.85c.69-.62,1.38-1.24,2.06-1.85.39,1.81-.13,2.63-2.06,1.85Z"/>
  <path class="cls-353" d="m371.28,124.85c-2.9-5.16,1.65-3.32,3.64-3.88,3.17,1.04,4.7,4.04,7.16,5.92,3.45,2.76,7.53,1.57,11.37,1.78,2.45.13,4.91.04,7.3,0-2.72-1.09-5.83.43-8.36-1.46-1.11-1.32-1.57-2.68-.22-4.12,5.45-.11,10.9-.41,16.34-.27,4.11.1,9.74,5.27,10.65,9.3.31,1.35.11,2.4-1.51,3.05-1.34.53-2.49,1.6-3.62,2.55-2.87,2.4-5.67,4.1-8.43-.11-.23-.77-1.14-.99-1.38-1.74-5.83-1.28-11.72-.33-17.59-.55-2.63-.1-5.25-.04-7.64-1.35-1.86-.82-2.97-2.38-4.01-4.02-.41-.64-.82-1.28-1.23-1.92-.97-.94-2.38-1.55-2.48-3.18Z"/>
  <path class="cls-353" d="m374.96,99.05c-.11-.95-1.04-2.24,1.04-2.22,1.4.01,2.87.25,4.14-.65.5-.75,1.12-.63,1.78-.26,6.45-.66,11.32-4.4,15.97-8.41,2.19-1.88,3.37-1.81,4.71.87,2.14,4.26,4.59,8.35,6.87,12.43-1.18,1.99-4.1-.1-4.86,2.41-2.07,2.01-5.32,1.46-7.41,3.42-1,.41-2.06.69-3.01,1.23-1.4.77-2.18,2.31-3.69,2.95-.7.28-1.42.42-2.17.48-2.31.05-4.63.32-6.87-.49-2.3-1.37-2.7-4.05-4.16-6-1.38-1.68-1.65-3.81-2.36-5.76Z"/>
  <path class="cls-324" d="m388.91,110.07c.71-.02,1.42-.03,2.13-.05,1.25-.87,2.38-1.9,3.72-2.64.95-.62,2.09-.78,3.1-1.25,2.05-1.68,4.64-1.67,7.05-2.24,1.34.38,3.11.31,3.34,2.14.24,1.94-2.03.78-2.62,1.82-.39.91-1,.68-1.65.34-6.53.82-11.38,5.37-17.21,7.75-1.22.91-2.45.87-3.68.02-1.66-.94-3.94-1.17-4.25-3.67-.48-.82-.05-1.26.66-1.58,3.17.27,6.44,2.08,9.41-.65Z"/>
  <path class="cls-233" d="m381.02,127.06c-2.64-1.42-4.44-3.68-6.09-6.09,0-2.91,1.66-2.19,3.17-1.34.94.52,1.43,1.88,2.86,1.42,2.82,1.79,6.06,3.25,5.62,7.49-2.13.56-4.09.47-5.56-1.47Z"/>
  <path class="cls-346" d="m386.99,127.88c-2.01-2.28-4.02-4.55-6.03-6.83,3.37-3.02,3.56,1.93,5.63,2.4.63.15.94,2.23,2.28,2.75.34.37.49.8.42,1.3-.62,1-1.36,1.3-2.3.38Z"/>
  <path class="cls-134" d="m404.22,135.87c1,.16,1.58.64,1.39,1.74-7.82-1.46-15.77.1-23.61-1.74h22.23Z"/>
  <path class="cls-143" d="m409.85,121.73h-15.71v-.42h15.71c0,.14,0,.28,0,.42Z"/>
  <path class="cls-94" d="m404.91,103.89c-2.11,1.61-4.74,1.91-7.11,2.87-.44-.21-1.02-.24-1.12-.89,2.23-2.13,4.92-2.87,7.94-2.66.16.2.26.42.29.67Z"/>
  <path class="cls-121" d="m374.96,99.05c1.41,1.45,2.34,3.18,2.97,5.09.43.89-.16,1.18-.84,1.41-1.67.06-2.2-1.37-3.07-2.35-1.4-1.77,1.21-2.64.95-4.15Z"/>
  <path class="cls-139" d="m389.11,127.03c-.13-.26-.21-.54-.24-.83,1.11-1.04,2.21-2.07,3.32-3.11-.29,1.35-.11,2.59.9,3.63.61,1.09.03,1.78-.79,2.4-1.91.6-2.41-.95-3.18-2.09Z"/>
  <path class="cls-203" d="m379.79,111.06c-.32.41-.63.82-.95,1.23-1.28-1.57-2.91-2.95-2.85-5.25.35-.31.75-.45,1.21-.46,1.71.5,2.24,2.05,3.03,3.38.11.47-.02.84-.44,1.09Z"/>
  <path class="cls-145" d="m381.92,95.92c-.59.09-1.19.17-1.78.26-1.72-.15-3.45-.29-5.17-.44,2.36-.53,4.72-1.35,6.95.18Z"/>
  <path class="cls-38" d="m374.99,129.94c2.04.64,2.98,2.37,4.01,4.02-2.81.13-3.53-1.83-4.01-4.02Z"/>
  <path class="cls-128" d="m383.1,115.96c1.23,0,2.46-.01,3.68-.02.16.05.34.06.47.15.23.16.43.37.64.56-1.95.66-3.91.61-5.86.03.05-.13.07-.33.16-.37.29-.15.61-.24.92-.35Z"/>
  <path class="cls-193" d="m376.98,107.04h-.49s-.49,0-.49,0c-1.34-.93-2.08-2.17-1.98-3.84,1.57-.26,1.72,1.41,2.68,1.98.9.49.81,1.15.29,1.86Z"/>
  <path class="cls-58" d="m371.28,124.85c1.13.82,2.2,1.69,2.48,3.18-1.45-.57-3.79-.45-2.48-3.18Z"/>
  <path class="cls-135" d="m403.99,108.18c.55-.11,1.1-.22,1.65-.34.76.16,1.51.32,2.97.62-2.06.65-3.39,1.04-4.62-.29Z"/>
  <path class="cls-75" d="m437.91,318.22c3.32-4.37,5.02-4.55,8.08-.88,1.79,1.45,1,3.8,1.92,5.55.09.87-.19,1.57-.95,2.05-1.35.36-2.05,1.6-3.15,2.31-1.25.36-2.62-.23-3.83.49-1.56-.37-2.51-1.35-2.92-2.88.06-2.24-.09-4.51.85-6.63Z"/>
  <path class="cls-268" d="m437.91,318.22c-.3,2.21.87,4.61-.85,6.63-1.44-2.43-1.12-4.64.85-6.63Z"/>
  <path class="cls-256" d="m444.04,305.34c.17-3.14-.95-6.38.75-9.39-.1,3.14.32,6.33-.75,9.39Z"/>
  <path class="cls-258" d="m449.15,300.89c-.03.35-.07.69-.1,1.04-.88.72-1.78,1.02-2.44-.19-.18-.33-.07-1.05.19-1.33.96-1.03,1.73-.49,2.35.48Z"/>
  <path class="cls-265" d="m447.9,322.89c-1.54-1.54-.99-3.8-1.92-5.55,2.91,1.07,2.53,3.27,1.92,5.55Z"/>
  <path class="cls-303" d="m439.97,327.74c1.13-1.3,2.65-.72,4.02-.85.37-.4.71-.38,1.04.05-1.49,1.53-3.19,1.72-5.06.8Z"/>
  <path class="cls-19" d="m445.04,326.93c-.35-.02-.69-.03-1.04-.05.85-.85.79-3.08,2.96-1.94-.3.99-.91,1.68-1.92,1.99Z"/>
  <path class="cls-75" d="m423.98,311.79c-3.45-1.52-4.25-4.29-2.47-7.24,1.85-3.07,5-5.48,8.6-3.37,2.46,1.44,5.98,3.74,2.86,7.8-1.67.05-1.99,2.07-3.49,2.38-1.82.38-3.65.44-5.5.43Z"/>
  <path class="cls-32" d="m423.98,311.79c1.79-1.63,3.96-.6,5.95-.83.3.17.4.34.3.5-.1.16-.2.25-.3.25-1.96,1.14-3.94,1.31-5.94.08Z"/>
  <path class="cls-298" d="m429.92,311.71c0-.25,0-.5,0-.75.98-.71.64-3.44,3.04-1.98-.57,1.41-1.56,2.34-3.04,2.73Z"/>
  <path class="cls-175" d="m439.85,300.79c.46-.81,1.22-.85,2.03-.8-.13,1.36.37,2.85-.89,3.95-.23-1.11.31-2.49-1.14-3.16Z"/>
  <path class="cls-83" d="m457.89,195.16c.36-.07.72-.15,1.08-.22-.32.38-.64.76-.96,1.14,0,0-.29-.35-.29-.35.06-.19.12-.38.18-.56Z"/>
  <path class="cls-86" d="m431.11,196.98c2,.48,4.01.95,6.07,1.45-.44,1.19-.88,2.36-1.33,3.54-3.25.35-.86,3.94-2.87,5.01.9-3.62-1.43-6.63-1.87-9.99Z"/>
  <path class="cls-151" d="m457.89,195.16c0,.2-.07.39-.17.56-.32.09-.64.16-.97.22.14-.61.47-.95,1.14-.78Z"/>
  <path class="cls-243" d="m210.97,79.06c-.64.36-1.27.71-1.91,1.07-1.46,1.01-2.91,1.06-4.34-.07-.24-.18-.27-.38-.1-.62.26-1.35,1.09-2.43,1.71-3.61.64-8.37.21-16.74.22-25.11.03-.58.18-1.12.45-1.62,2.77.46,1.96,2.66,1.98,4.31.07,6.27.06,12.54.01,18.82-.02,2.15.02,4.1,3,3.85.33.29.52.65.56,1.09-.07.99-.93,1.36-1.54,1.92,0,0-.05-.01-.05-.01Z"/>
  <path class="cls-277" d="m206.98,77.17c-.42,1.13-1.37,1.72-2.35,2.27-.97-.48-1.59-1.21-1.65-2.34,1.74-1.33,2.12-3.1,2.07-5.23-.12-6.14-.09-12.28-.01-18.42.02-1.65-.83-3.87,1.97-4.35-.01.28-.03.56-.05.83,0,.28.02.57.03.85.04,8.51.02,17.02,0,25.54,0,.28-.01.57-.02.85Z"/>
  <path class="cls-161" d="m234,44.74c0,9.91.03,19.82-.03,29.73,0,1.56.67,3.34-.9,4.63-.05-.37-.09-.73-.14-1.1-.77-10.91-.47-21.83-.16-32.75.09-.39.18-.78.27-1.17.57-.14.9.05.96.65Z"/>
  <path class="cls-277" d="m181.05,45.1c.32-.08.64-.1.96-.06,0,9.76.04,19.52-.02,29.28,0,1.58.6,3.35-.87,4.68l-.26.1c-.4-11.34-.79-22.67.19-34Z"/>
  <path class="cls-255" d="m232.78,45.26c.05,10.92.11,21.83.16,32.75-1.77-2.02-.93-4.46-.86-6.66.3-8.69-1.01-17.44.7-26.09Z"/>
  <path class="cls-5" d="m224.12,79.1c-1.37,0-2.73-.02-4.1-.03-.33-.3-.52-.67-.57-1.11.07-.94.55-1.63,1.31-2.16.43-.16.84-.12,1.22.14,1.5,1.3,3.83.51,5.23,2.07-.73,1.22-2.02.85-3.09,1.09Z"/>
  <path class="cls-334" d="m202.15,77.02c-.39.34-.78.67-1.17,1.01-.7.04-1.4.08-2.1.12-2.03-.32-4.07,1.01-6.1-.04-.33-.71-.34-1.36.3-1.92l-.11-.33c.47-.3.97-.52,1.5-.67,1.91-.1,3.86-.47,5.62.7.76.24,1.66.21,2.06,1.12Z"/>
  <path class="cls-293" d="m221,76.18c-.32.61-.64,1.21-.97,1.82-2.71.05-5.6,1.68-8.04-.86,0-.35,0-.71.01-1.06.32,0,.64-.04.95-.13,2.1-1.33,4.39-.81,6.64-.7.56.18,1.02.49,1.4.93Z"/>
  <path class="cls-337" d="m187.98,79.91c-1.26.02-2.53.04-3.79.06.38-3.1,3.5-1.31,4.83-2.71.51.26,1.06.44,1.35.99.06.39-.02.75-.23,1.09-.5.28-1,.57-1.58.62-.19-.01-.38-.02-.57-.04Z"/>
  <path class="cls-240" d="m221,76.18c-.29-.16-.6-.25-.92-.3-2.28-.85-4.73.2-7.01-.65,3.13-1.75,6.16-2.28,8.91.71-.33.08-.65.16-.98.24Z"/>
  <path class="cls-228" d="m193.96,75.89c-.33,0-.66,0-.99-.01,1.76-3.18,4.58-1.54,7.04-1.53.05,0,.14.26.13.39-.02.15-.15.28-.23.41-1.89,1-4.04-.13-5.95.74Z"/>
  <path class="cls-4" d="m190.24,78.13c-.4-.29-.81-.59-1.21-.88,1.35-.35,2.71-.7,4.06-1.05l-.07,1.83c.14.17.28.35.42.52-.08.21-.16.42-.24.63-1.27.43-2.13-.27-2.96-1.06Z"/>
  <path class="cls-180" d="m213.06,75.23c2.35.12,4.79-.84,7.01.65-2.37.02-4.74.04-7.11.06.07-.23.11-.47.1-.71Z"/>
  <path class="cls-178" d="m193.96,75.89c1.84-1.41,3.95-.63,5.95-.74.07.25.13.5.18.76-2.04,0-4.09,0-6.13-.01Z"/>
  <path class="cls-275" d="m195.96,40.94c1.33.09,2.67.18,4,.27-1.94,1.44-3.91,1.26-5.9.12.47-.9,1.17-.72,1.9-.39Z"/>
  <path class="cls-229" d="m218.05,40.91c.63.13,1.26.26,1.89.39-2.02,1.21-4,1.36-5.93-.19,1.35-.06,2.69-.13,4.04-.19Z"/>
  <path class="cls-308" d="m195.96,40.94c-.63.13-1.26.26-1.9.39-.57,0-1.14-.02-1.72-.03-.42-.34-.85-.68-1.27-1.03.57-.11,1.15-.22,1.72-.33,1.08.24,2.35-.1,3.16.99Z"/>
  <path class="cls-343" d="m181.05,45.1c-.06,11.33-.13,22.67-.19,34-1.76-3.45-.69-7.14-.78-10.7-.19-7.77-.06-15.55-.06-23.32.34,0,.68.01,1.02.02Z"/>
  <path class="cls-259" d="m190.02,80.78c-.62.14-1.23.29-1.85.43-.06-.43-.12-.87-.18-1.3,0,0-.04.13-.04.13.73-.5,1.44-.56,2.12.09-.06.21-.07.43-.05.65Z"/>
  <path class="cls-274" d="m192.97,79.09c.02-.35.03-.7.05-1.06,1.95.17,3.96-2.07,5.87.12-.94,1.62-2.33,1.58-3.86,1.06-.71.39-1.4.41-2.06-.13Z"/>
  <path class="cls-185" d="m192.97,79.09c.69.04,1.37.08,2.06.13-.36.3-.71.6-1.07.9-.37-.09-.73-.17-1.1-.26-.23-.24-.29-.45-.16-.62.11-.15.23-.22.33-.22l-.07.08Z"/>
  <path class="cls-227" d="m204.73,80.06c1.45.02,2.89.05,4.34.07-.02.58-.04,1.15-.06,1.73-1.63.61-3.24.21-4.85-.13.19-.56.38-1.11.57-1.66Z"/>
  <path class="cls-276" d="m212,77.13c2.58,1.24,5.47-.47,8.04.86,0,.36-.01.72-.02,1.08-.31.05-.62.12-.93.21-2.28-.05-4.55-.1-6.83-.15-.41-.02-.83-.04-1.24-.05.32-.65.65-1.3.97-1.95Z"/>
  <path class="cls-78" d="m190.07,80.13c-.71-.03-1.42-.06-2.12-.09.25-1.04,1.09-1.05,1.92-1.09,1.06-.38,1.32.08,1.12,1.05l.11.17c-.34-.01-.68-.02-1.02-.04Z"/>
  <path class="cls-191" d="m190.98,80c-.37-.35-.75-.7-1.12-1.05.09-.29.22-.56.38-.82,1.12-.28,1.91.45,2.8.89-.09.27-.15.55-.18.84-.63.05-1.25.09-1.88.14Z"/>
  <path class="cls-146" d="m197.04,273.96c0-.29-.03-.59-.05-.88,4.33.28,8.78-1.18,13,.82-4.32.02-8.63.04-12.95.06Z"/>
  <path class="cls-124" d="m283.07,268.54c.07-1.54.14-3.09.25-5.77.82,2.85.95,4.53-.25,5.77Z"/>
  <path class="cls-112" d="m257.67,266.84c-.85-2.27-.78-3.51-.4-4.89,1.15,1.26.45,2.57.4,4.89Z"/>
  <path class="cls-127" d="m279.96,233.98c-.65,0-1.3,0-1.95,0-.02-1-.03-2-.05-3-.17-2.83,2.63-2.7,3.99-4.01.59.38,1.18.75,1.77,1.13-1.43,1.1-.86,2.01.27,2.86-.52,2.1-3.02,1.56-4.02,3.02Z"/>
  <path class="cls-301" d="m268.98,232.94c0-.31-.02-.61-.05-.92-.36-.96-2.55-.16-1.97-2.04.05-1.28.69-1.98,2-2,.75,1.24,1.12,2.84,2.92,3.09-.14,1.65,2.18,2.5,1.5,4.38-2.29.46-2.27-2.89-4.4-2.51Z"/>
  <path class="cls-37" d="m281.95,226.97c-.65,2.01-2.79,2.54-3.99,4.01-.31,0-.62-.01-.93-.01-1.45.37-1.71-.79-2.16-1.69-.25-1.42-1.29-3.39.29-4.09,1.65-.72,3.09,1.41,4.83,1.78.65,0,1.3,0,1.96,0Z"/>
  <path class="cls-263" d="m275.96,228.96c.04.84.25,1.58,1.07,2-1.7,4.19-3.33.49-4.99-.04-.06-.31-.09-.62-.11-.93.61-3.2,1.96-3.5,4.02-1.03Z"/>
  <path class="cls-126" d="m275.96,228.96c-1.71-1.08-3.12-1.03-4.02,1.03.16-3.04-.41-6.16,1.06-9.04.33.02.66.03.99.03.68,1.32,1.66,2.33,3.01,2.98.56,1.33,1.56,2,3.01,2.01,0,.33,0,.66,0,1-1.7.4-2.96-.84-4.7-1.37.25,1.28.45,2.33.66,3.37Z"/>
  <path class="cls-66" d="m266.96,229.98c.66.68,1.31,1.36,1.97,2.04-1.62-.39-3.24-.78-4.86-1.17,1.67-1.37-.84-3.54.94-4.89.65,1.34,1.3,2.68,1.96,4.02Z"/>
  <path class="cls-199" d="m98.04,189.99c.7.69,1.39,1.37,2.09,2.06-2.02,1.63-4.04,3.27-6.05,4.9-.88-.24-1.29-.81-1.22-1.73.67-2.8,3.41-3.54,5.19-5.24Z"/>
  <path class="cls-7" d="m92.86,195.23c.41.58.81,1.15,1.22,1.73-.46.4-.92.8-1.38,1.2-.77,1-1.7,1.85-2.54,2.79-1.61-.99-.93-2.61-1.08-4,1.34-.4,2.03-2.21,3.78-1.72Z"/>
  <path class="cls-271" d="m90.15,200.95c-.52-2.17.7-2.77,2.54-2.79.17,1.85-.89,2.59-2.54,2.79Z"/>
  <path class="cls-351" d="m289.9,449.77c-.35.73-.61,1.53-1.06,2.19-.74,1.08-.5,1.8.6,2.34,1.08.52,1.42-.33,1.84-1.02.86-1.4,1.64-2.85,2.58-4.19,1.68-2.42,2.19-.43,2.86.83.35,3,.05,5.94-.93,8.8-3.28,4.04-6.96,4.39-11.03,1.21-1.59-2.78-2.9-5.62-2.15-8.96,1.31-1.96,3.13-3.33,5.21-4.37,3.88-1.02,1.45,2.07,2.08,3.18Z"/>
  <path class="cls-363" d="m295.79,458.72c0-2.97-.23-5.96.93-8.8,1.62,3.14,1.53,6.09-.93,8.8Z"/>
  <path class="cls-355" d="m282.95,450.8c-.93,3.35,1.98,5.93,1.82,9.13-3.31-2.36-3.68-5.53-2.52-9.12.23-.39.46-.41.7,0Z"/>
  <path class="cls-314" d="m282.95,450.8c-.23,0-.47,0-.7,0,.83-2.9,3.11-4.12,5.74-4.91.35.2.47.41.35.61-.11.21-.23.31-.35.31-1.68,1.33-3.36,2.65-5.05,3.98Z"/>
  <path class="cls-311" d="m287.99,446.82c0-.31,0-.62,0-.92,1.25-.41,2.97-.78,3.56.24.8,1.39-.85,2.5-1.65,3.63-1.62-.35.66-3.21-1.91-2.95Z"/>
  <path class="cls-351" d="m318.88,457.97c-3.01-5.58-1.78-9.13,4.16-12.02,1.62.6,3.24.57,4.86.02,2.62.64,4.28,2.27,4.97,4.88-.73,1.96.38,4.18-.83,6.08l.1-.08c-1.73,2.1-3.54,4.06-6.59,3.92-2.76.37-4.45-1.84-6.67-2.8Z"/>
  <path class="cls-356" d="m324.97,459.81c3.12.77,4.86-1.79,7.17-2.97-.15,2.42-1.72,3.52-3.83,4.1-1.02.39-2.06.39-3.12.2-.5-.38-.57-.82-.22-1.34Z"/>
  <path class="cls-310" d="m324.97,459.81c0,.32,0,.65,0,.97-.74.66-1.54.47-2.34.18-1.79-.32-2.98-1.39-3.75-2.99,2.54-1.05,3.52,3.03,6.09,1.85Z"/>
  <path class="cls-322" d="m332.04,456.93c.2-2.04-.84-4.24.83-6.08.94,2.19,1.29,4.3-.83,6.08Z"/>
  <path class="cls-351" d="m322.63,460.96c.78-.06,1.56-.12,2.34-.18,1.11.06,2.22.11,3.33.17-1.89,1.25-3.78,1.25-5.68.01Z"/>
  <path class="cls-363" d="m327.9,445.97c-1.63,1.25-3.25,1.27-4.86-.02,1.62-.59,3.24-.58,4.86.02Z"/>
  <path class="cls-212" d="m377.88,379.04c.27,1.92-.57,2.67-2.51,2.66-1.82,0-2.7-.53-2.71-2.54-.01-2.07.58-3.05,2.81-2.96,1.99.08,2.63,1.02,2.41,2.83Z"/>
  <path class="cls-211" d="m384.02,400.04c-1.42,1.06-2.82,1.25-4.15-.15.18-3.4.29-6.81,1.05-10.15,0-.31.05-.61.15-.9.59-.57,1.18-.58,1.77,0,.09.29.13.59.14.9,1.74,3.29.72,6.87,1.04,10.31Z"/>
  <path class="cls-212" d="m375.35,383.09c2.27-.21,2.52.99,2.61,2.73.14,2.54-1.34,2.51-3.12,2.53-2.27.03-2.12-1.44-2.17-2.99-.07-2.13,1.16-2.47,2.68-2.28Z"/>
  <path class="cls-200" d="m388.59,376.39c2.04-.27,2.63.9,2.77,2.6.15,1.86-.56,2.7-2.53,2.67-1.83-.03-2.72-.56-2.71-2.55,0-1.83.54-2.86,2.47-2.72Z"/>
  <path class="cls-205" d="m382.85,388.84c-.59,0-1.18,0-1.77,0-1.41-2-3.57-4.12.38-5.64.95-.37,2.43-.42,2.98,1.01.74,1.93.04,3.46-1.58,4.63Z"/>
  <path class="cls-205" d="m379.49,379.31c-.12-1.74.08-3.03,1.97-2.84,1.59.16,3.3.16,3.21,2.63-.06,1.89-.76,2.58-2.65,2.57-1.91-.01-2.75-.75-2.53-2.36Z"/>
  <path class="cls-200" d="m386.2,387.6c.05-2.11-.9-4.96,2.96-4.45,3.39.44,2.09,2.86,1.86,4.79-1.67.84-3.32,1.4-4.81-.34Z"/>
  <path class="cls-239" d="m373.94,390c1.87-.13,4-.98,3.99,2.37,0,3.32-2.08,2.56-3.99,2.37-.72-1.58-.72-3.15,0-4.73Z"/>
  <path class="cls-215" d="m384.02,400.04c-1.8-3.29-.84-6.86-1.04-10.31,3.12,3.15,1.49,6.79,1.04,10.31Z"/>
  <path class="cls-217" d="m380.92,389.74c-.48,3.37,1.19,6.96-1.05,10.15-.44-3.46-1.53-6.99,1.05-10.15Z"/>
  <path class="cls-188" d="m389.97,394.74h-2.04c-1.24-1.55-1.14-3.19-.25-4.86.75-.64,1.55-.7,2.39-.18l-.15.23c.82,1.6.74,3.2.05,4.82Z"/>
  <path class="cls-218" d="m387.92,389.96c0,1.6,0,3.2.01,4.79-3-1.1-1.79-3.07-1.02-4.95.39-.27.73-.23,1.01.16Z"/>
  <path class="cls-352" d="m387.92,389.96c-.34-.05-.67-.11-1.01-.16-.24-.73-.48-1.46-.72-2.19,1.6.11,3.21.22,4.81.34-.31.58-.62,1.17-.93,1.75-.72.09-1.44.18-2.15.26Z"/>
  <path class="cls-201" d="m373.94,390c0,1.58,0,3.16,0,4.73-1.86-1.58-1.87-3.15,0-4.73Z"/>
  <path class="cls-206" d="m389.97,394.74c-.02-1.61-.03-3.21-.05-4.82,2.23,1.58,2.22,3.19.05,4.82Z"/>
  <path class="cls-246" d="m417.71,395.23c-1.1.98-1.64,2.22-1.73,3.68-1.79-2.26-1.45-4.99-1.98-7.74,2.38.64,2.25,3.03,3.71,4.05Z"/>
  <path class="cls-248" d="m109.8,104.8c-1.22-.14-1.62-.96-1.74-2.03-.36-3.1,4.83-7.98,7.95-7.48.89.14,1.67.58,1.81,1.43.08.5-.38,1.5-.76,1.59-3.31.82-5.55,2.67-6.45,6.04-.06.21-.53.3-.81.45Z"/>
  <path class="cls-220" d="m96.96,113.93c.7.66,1.4,1.33,2.1,1.99-1.88-1.08-1.08,3.2-3,1.58-1.78-1.51-.23-2.58.9-3.57Z"/>
  <path class="cls-80" d="m389.11,127.03c1.43-.14,1.79,1.5,2.98,1.77,4.06-.98,8.11-1.54,12.09.33-6.67,1.22-13.39.55-20.09.42-1.41-.03-3-.48-3.06-2.49,1.8,1.68,3.92.95,5.97.82.92.24,1.84.49,2.12-.85Z"/>
  <path class="cls-147" d="m404.17,129.13c-4.03-.11-8.06-.22-12.09-.33.33-.69.67-1.39,1-2.08,3.3.01,6.6-.05,9.89.08,1.39.06,3.23.31,1.2,2.33Z"/>
  <path class="cls-117" d="m379.79,111.06c-.12-.31-.23-.62-.35-.94.51-.45,1.05-.49,1.63-.14,2.61.03,5.22.06,7.83.09.6,3.23-2.12,2.26-3.49,2.48-1.97.31-3.95-.25-5.63-1.49Z"/>
  <path class="cls-312" d="m389.9,99.63c-.16-.68,0-1.22.69-1.51,1.89-1.3,3.32-.5,4.61.99,1.41,1.24-.09,2.12-.38,3.15-1.91.57-3.61.16-5.12-1.12-.15-.54-.08-1.04.21-1.52Z"/>
  <path class="cls-87" d="m381.08,109.98c-.54.05-1.09.1-1.63.14-.82-1.03-1.64-2.05-2.46-3.08-.1-.62-.2-1.24-.29-1.86.41-.35.82-.69,1.23-1.04,1.49,1.71,2.73,3.56,3.16,5.84Z"/>
  <path class="cls-9" d="m385.19,103.95c-.51-1.4-2.47-2.94-.47-4.26,2.44-1.6.9,3.22,3.23,2.35.25.37.32.77.16,1.19-.83.8-1.76,1.22-2.92.71Z"/>
  <path class="cls-77" d="m385.19,103.95c.94-.3,1.88-.6,2.82-.9.86-.16,1.31.09,1.07,1.05-1.35,1.27-2.71,2.98-3.89-.14Z"/>
  <path class="cls-56" d="m395.2,99.1c-1.54-.32-2.85-1.7-4.61-.99,2.31-3.25,3.67-2.12,4.61.99Z"/>
  <path class="cls-196" d="m389.08,104.1c-.36-.35-.71-.7-1.07-1.05-.02-.33-.04-.67-.06-1,.65-.81,1.3-1.61,1.95-2.42.02.49.04.99.06,1.48.57.5,1.49.79,1.09,1.85-.66.38-1.32.76-1.98,1.14Z"/>
  <path class="cls-136" d="m394.93,108.03c-1.06,1.12-2.29,1.93-3.89,1.99.41-1.54.75-3.16,2.91-2.98.46.2.79.53.98.99Z"/>
  <path class="cls-365" d="m394.93,108.03c-.33-.33-.65-.66-.98-.99.42-1.54,1.92-.53,2.73-1.16.37.3.75.59,1.12.89-.96.42-1.91.84-2.87,1.26Z"/>
  <path class="cls-65" d="m391.06,102.96c-.36-.62-.73-1.24-1.09-1.85,1.62.38,3.23.77,4.85,1.15-1.04,1.38-2.4,1.05-3.76.7Z"/>
  <path class="cls-341" d="m206.96,49.93c2.34,4.82.84,9.93.92,14.88.07,4.09,1.34,8.4-.91,12.36,0,0,.11-.22.11-.22-.91-8.92-.89-17.83,0-26.75l-.12-.27Z"/>
  <path class="cls-354" d="m207.08,50.2c0,8.92,0,17.83,0,26.75-1.87-.66-1-2.25-1.02-3.4-.09-6.65-.09-13.31,0-19.97.02-1.13-.87-2.73,1.01-3.39Z"/>
</svg>